<?xml version="1.0" encoding="utf-8" standalone="no"?>
<!DOCTYPE svg PUBLIC "-//W3C//DTD SVG 1.1//EN"
  "http://www.w3.org/Graphics/SVG/1.1/DTD/svg11.dtd">
<svg xmlns:xlink="http://www.w3.org/1999/xlink" width="236.16pt" height="236.16pt" viewBox="0 0 236.16 236.16" xmlns="http://www.w3.org/2000/svg" version="1.1">
 <metadata>
  <rdf:RDF xmlns:dc="http://purl.org/dc/elements/1.1/" xmlns:cc="http://creativecommons.org/ns#" xmlns:rdf="http://www.w3.org/1999/02/22-rdf-syntax-ns#">
   <cc:Work>
    <dc:type rdf:resource="http://purl.org/dc/dcmitype/StillImage"/>
    <dc:date>2025-09-10T14:49:19.327835</dc:date>
    <dc:format>image/svg+xml</dc:format>
    <dc:creator>
     <cc:Agent>
      <dc:title>Matplotlib v3.10.6, https://matplotlib.org/</dc:title>
     </cc:Agent>
    </dc:creator>
   </cc:Work>
  </rdf:RDF>
 </metadata>
 <defs>
  <style type="text/css">*{stroke-linejoin: round; stroke-linecap: butt}</style>
 </defs>
 <g id="figure_1">
  <g id="patch_1">
   <path d="M 0 236.16 
L 236.16 236.16 
L 236.16 0 
L 0 0 
z
" style="fill: #0d1117"/>
  </g>
  <g id="axes_1">
   <g id="patch_2">
    <path d="M 123.12 118.08 
C 122.427512 115.530346 123.327112 109.158124 121.167969 98.520438 
C 111.739747 89.522174 100.571136 79.822435 95.008819 67.668551 
C 89.446502 55.514666 100.388424 38.393447 132.283068 28.116074 
C 169.042919 31.425693 209.377759 64.537262 223.92 118.08 
C 209.377759 171.622738 169.042919 204.734307 132.283068 208.043926 
C 100.388424 197.766553 89.446502 180.645334 95.008819 168.491449 
C 100.571136 156.337565 111.739747 146.637826 121.167969 137.639562 
C 123.327112 127.001876 122.427512 120.629654 123.12 118.08 
z
" clip-path="url(#p962ba6e5d9)" style="fill: #0d1117; stroke: #0d1117; stroke-linejoin: miter"/>
   </g>
   <g id="patch_3">
    <path d="M 188.64 118.08 
C 188.64 108.814146 186.814829 99.63839 183.26894 91.077857 
C 179.723051 82.517324 174.525403 74.738494 167.973454 68.186546 
C 161.421506 61.634597 153.642676 56.436949 145.082143 52.89106 
C 136.52161 49.345171 127.345854 47.52 118.08 47.52 
C 108.814146 47.52 99.63839 49.345171 91.077857 52.89106 
C 82.517324 56.436949 74.738494 61.634597 68.186546 68.186546 
C 61.634597 74.738494 56.436949 82.517324 52.89106 91.077857 
C 49.345171 99.63839 47.52 108.814146 47.52 118.08 
C 47.52 127.345854 49.345171 136.52161 52.89106 145.082143 
C 56.436949 153.642676 61.634597 161.421506 68.186546 167.973454 
C 74.738494 174.525403 82.517324 179.723051 91.077857 183.26894 
C 99.63839 186.814829 108.814146 188.64 118.08 188.64 
C 127.345854 188.64 136.52161 186.814829 145.082143 183.26894 
C 153.642676 179.723051 161.421506 174.525403 167.973454 167.973454 
C 174.525403 161.421506 179.723051 153.642676 183.26894 145.082143 
C 186.814829 136.52161 188.64 127.345854 188.64 118.08 
C 188.64 108.814146 186.814829 99.63839 183.26894 91.077857 
C 179.723051 82.517324 174.525403 74.738494 167.973454 68.186546 
C 161.421506 61.634597 153.642676 56.436949 145.082143 52.89106 
C 136.52161 49.345171 127.345854 47.52 118.08 47.52 
C 108.814146 47.52 99.63839 49.345171 91.077857 52.89106 
C 82.517324 56.436949 74.738494 61.634597 68.186546 68.186546 
C 61.634597 74.738494 56.436949 82.517324 52.89106 91.077857 
C 49.345171 99.63839 47.52 108.814146 47.52 118.08 
C 47.52 127.345854 49.345171 136.52161 52.89106 145.082143 
C 56.436949 153.642676 61.634597 161.421506 68.186546 167.973454 
C 74.738494 174.525403 82.517324 179.723051 91.077857 183.26894 
C 99.63839 186.814829 108.814146 188.64 118.08 188.64 
C 127.345854 188.64 136.52161 186.814829 145.082143 183.26894 
C 153.642676 179.723051 161.421506 174.525403 167.973454 167.973454 
C 174.525403 161.421506 179.723051 153.642676 183.26894 145.082143 
C 186.814829 136.52161 188.64 127.345854 188.64 118.08 
C 188.64 108.814146 186.814829 99.63839 183.26894 91.077857 
C 179.723051 82.517324 174.525403 74.738494 167.973454 68.186546 
C 161.421506 61.634597 153.642676 56.436949 145.082143 52.89106 
C 136.52161 49.345171 127.345854 47.52 118.08 47.52 
C 108.814146 47.52 99.63839 49.345171 91.077857 52.89106 
C 82.517324 56.436949 74.738494 61.634597 68.186546 68.186546 
C 61.634597 74.738494 56.436949 82.517324 52.89106 91.077857 
C 49.345171 99.63839 47.52 108.814146 47.52 118.08 
C 47.52 127.345854 49.345171 136.52161 52.89106 145.082143 
C 56.436949 153.642676 61.634597 161.421506 68.186546 167.973454 
C 74.738494 174.525403 82.517324 179.723051 91.077857 183.26894 
C 99.63839 186.814829 108.814146 188.64 118.08 188.64 
C 127.345854 188.64 136.52161 186.814829 145.082143 183.26894 
C 153.642676 179.723051 161.421506 174.525403 167.973454 167.973454 
C 174.525403 161.421506 179.723051 153.642676 183.26894 145.082143 
C 186.814829 136.52161 188.64 127.345854 188.64 118.08 
C 188.64 108.814146 186.814829 99.63839 183.26894 91.077857 
C 179.723051 82.517324 174.525403 74.738494 167.973454 68.186546 
C 161.421506 61.634597 153.642676 56.436949 145.082143 52.89106 
C 136.52161 49.345171 127.345854 47.52 118.08 47.52 
C 108.814146 47.52 99.63839 49.345171 91.077857 52.89106 
C 82.517324 56.436949 74.738494 61.634597 68.186546 68.186546 
C 61.634597 74.738494 56.436949 82.517324 52.89106 91.077857 
C 49.345171 99.63839 47.52 108.814146 47.52 118.08 
C 47.52 127.345854 49.345171 136.52161 52.89106 145.082143 
C 56.436949 153.642676 61.634597 161.421506 68.186546 167.973454 
C 74.738494 174.525403 82.517324 179.723051 91.077857 183.26894 
C 99.63839 186.814829 108.814146 188.64 118.08 188.64 
C 127.345854 188.64 136.52161 186.814829 145.082143 183.26894 
C 153.642676 179.723051 161.421506 174.525403 167.973454 167.973454 
C 174.525403 161.421506 179.723051 153.642676 183.26894 145.082143 
C 186.814829 136.52161 188.64 127.345854 188.64 118.08 
C 188.64 108.814146 186.814829 99.63839 183.26894 91.077857 
C 179.723051 82.517324 174.525403 74.738494 167.973454 68.186546 
C 161.421506 61.634597 153.642676 56.436949 145.082143 52.89106 
C 136.52161 49.345171 127.345854 47.52 118.08 47.52 
C 108.814146 47.52 99.63839 49.345171 91.077857 52.89106 
C 82.517324 56.436949 74.738494 61.634597 68.186546 68.186546 
C 61.634597 74.738494 56.436949 82.517324 52.89106 91.077857 
C 49.345171 99.63839 47.52 108.814146 47.52 118.08 
C 47.52 127.345854 49.345171 136.52161 52.89106 145.082143 
C 56.436949 153.642676 61.634597 161.421506 68.186546 167.973454 
C 74.738494 174.525403 82.517324 179.723051 91.077857 183.26894 
C 99.63839 186.814829 108.814146 188.64 118.08 188.64 
C 127.345854 188.64 136.52161 186.814829 145.082143 183.26894 
C 153.642676 179.723051 161.421506 174.525403 167.973454 167.973454 
C 174.525403 161.421506 179.723051 153.642676 183.26894 145.082143 
C 186.814829 136.52161 188.64 127.345854 188.64 118.08 
C 188.64 108.814146 186.814829 99.63839 183.26894 91.077857 
C 179.723051 82.517324 174.525403 74.738494 167.973454 68.186546 
C 161.421506 61.634597 153.642676 56.436949 145.082143 52.89106 
C 136.52161 49.345171 127.345854 47.52 118.08 47.52 
C 108.814146 47.52 99.63839 49.345171 91.077857 52.89106 
C 82.517324 56.436949 74.738494 61.634597 68.186546 68.186546 
C 61.634597 74.738494 56.436949 82.517324 52.89106 91.077857 
C 49.345171 99.63839 47.52 108.814146 47.52 118.08 
C 47.52 127.345854 49.345171 136.52161 52.89106 145.082143 
C 56.436949 153.642676 61.634597 161.421506 68.186546 167.973454 
C 74.738494 174.525403 82.517324 179.723051 91.077857 183.26894 
C 99.63839 186.814829 108.814146 188.64 118.08 188.64 
C 127.345854 188.64 136.52161 186.814829 145.082143 183.26894 
C 153.642676 179.723051 161.421506 174.525403 167.973454 167.973454 
C 174.525403 161.421506 179.723051 153.642676 183.26894 145.082143 
C 186.814829 136.52161 188.64 127.345854 188.64 118.08 
C 188.64 108.814146 186.814829 99.63839 183.26894 91.077857 
C 179.723051 82.517324 174.525403 74.738494 167.973454 68.186546 
C 161.421506 61.634597 153.642676 56.436949 145.082143 52.89106 
C 136.52161 49.345171 127.345854 47.52 118.08 47.52 
C 108.814146 47.52 99.63839 49.345171 91.077857 52.89106 
C 82.517324 56.436949 74.738494 61.634597 68.186546 68.186546 
C 61.634597 74.738494 56.436949 82.517324 52.89106 91.077857 
C 49.345171 99.63839 47.52 108.814146 47.52 118.08 
C 47.52 127.345854 49.345171 136.52161 52.89106 145.082143 
C 56.436949 153.642676 61.634597 161.421506 68.186546 167.973454 
C 74.738494 174.525403 82.517324 179.723051 91.077857 183.26894 
C 99.63839 186.814829 108.814146 188.64 118.08 188.64 
C 127.345854 188.64 136.52161 186.814829 145.082143 183.26894 
C 153.642676 179.723051 161.421506 174.525403 167.973454 167.973454 
C 174.525403 161.421506 179.723051 153.642676 183.26894 145.082143 
C 186.814829 136.52161 188.64 127.345854 188.64 118.08 
C 188.64 108.814146 186.814829 99.63839 183.26894 91.077857 
C 179.723051 82.517324 174.525403 74.738494 167.973454 68.186546 
C 161.421506 61.634597 153.642676 56.436949 145.082143 52.89106 
C 136.52161 49.345171 127.345854 47.52 118.08 47.52 
C 108.814146 47.52 99.63839 49.345171 91.077857 52.89106 
C 82.517324 56.436949 74.738494 61.634597 68.186546 68.186546 
C 61.634597 74.738494 56.436949 82.517324 52.89106 91.077857 
C 49.345171 99.63839 47.52 108.814146 47.52 118.08 
C 47.52 127.345854 49.345171 136.52161 52.89106 145.082143 
C 56.436949 153.642676 61.634597 161.421506 68.186546 167.973454 
C 74.738494 174.525403 82.517324 179.723051 91.077857 183.26894 
C 99.63839 186.814829 108.814146 188.64 118.08 188.64 
C 127.345854 188.64 136.52161 186.814829 145.082143 183.26894 
C 153.642676 179.723051 161.421506 174.525403 167.973454 167.973454 
C 174.525403 161.421506 179.723051 153.642676 183.26894 145.082143 
C 186.814829 136.52161 188.64 127.345854 188.64 118.08 
C 188.64 108.814146 186.814829 99.63839 183.26894 91.077857 
C 179.723051 82.517324 174.525403 74.738494 167.973454 68.186546 
C 161.421506 61.634597 153.642676 56.436949 145.082143 52.89106 
C 136.52161 49.345171 127.345854 47.52 118.08 47.52 
C 108.814146 47.52 99.63839 49.345171 91.077857 52.89106 
C 82.517324 56.436949 74.738494 61.634597 68.186546 68.186546 
C 61.634597 74.738494 56.436949 82.517324 52.89106 91.077857 
C 49.345171 99.63839 47.52 108.814146 47.52 118.08 
C 47.52 127.345854 49.345171 136.52161 52.89106 145.082143 
C 56.436949 153.642676 61.634597 161.421506 68.186546 167.973454 
C 74.738494 174.525403 82.517324 179.723051 91.077857 183.26894 
C 99.63839 186.814829 108.814146 188.64 118.08 188.64 
C 127.345854 188.64 136.52161 186.814829 145.082143 183.26894 
C 153.642676 179.723051 161.421506 174.525403 167.973454 167.973454 
C 174.525403 161.421506 179.723051 153.642676 183.26894 145.082143 
C 186.814829 136.52161 188.64 127.345854 188.64 118.08 
C 188.64 108.814146 186.814829 99.63839 183.26894 91.077857 
C 179.723051 82.517324 174.525403 74.738494 167.973454 68.186546 
C 161.421506 61.634597 153.642676 56.436949 145.082143 52.89106 
C 136.52161 49.345171 127.345854 47.52 118.08 47.52 
C 108.814146 47.52 99.63839 49.345171 91.077857 52.89106 
C 82.517324 56.436949 74.738494 61.634597 68.186546 68.186546 
C 61.634597 74.738494 56.436949 82.517324 52.89106 91.077857 
C 49.345171 99.63839 47.52 108.814146 47.52 118.08 
C 47.52 127.345854 49.345171 136.52161 52.89106 145.082143 
C 56.436949 153.642676 61.634597 161.421506 68.186546 167.973454 
C 74.738494 174.525403 82.517324 179.723051 91.077857 183.26894 
C 99.63839 186.814829 108.814146 188.64 118.08 188.64 
C 127.345854 188.64 136.52161 186.814829 145.082143 183.26894 
C 153.642676 179.723051 161.421506 174.525403 167.973454 167.973454 
C 174.525403 161.421506 179.723051 153.642676 183.26894 145.082143 
C 186.814829 136.52161 188.64 127.345854 188.64 118.08 
C 188.64 113.458153 188.185887 108.847467 187.284209 104.314427 
C 186.382532 99.781387 185.037644 95.347887 183.26894 91.077857 
C 181.500235 86.807827 179.316257 82.72189 176.748496 78.878964 
C 174.180735 75.036039 171.241594 71.454685 167.973454 68.186546 
C 164.705315 64.918406 161.123961 61.979265 157.281036 59.411504 
C 153.43811 56.843743 149.352173 54.659765 145.082143 52.89106 
C 140.812113 51.122356 136.378613 49.777468 131.845573 48.875791 
C 127.312533 47.974113 122.701847 47.52 118.08 47.52 
C 113.458153 47.52 108.847467 47.974113 104.314427 48.875791 
C 99.781387 49.777468 95.347887 51.122356 91.077857 52.89106 
C 86.807827 54.659765 82.72189 56.843743 78.878964 59.411504 
C 75.036039 61.979265 71.454685 64.918406 68.186546 68.186546 
C 64.918406 71.454685 61.979265 75.036039 59.411504 78.878964 
C 56.843743 82.72189 54.659765 86.807827 52.89106 91.077857 
C 51.122356 95.347887 49.777468 99.781387 48.875791 104.314427 
C 47.974113 108.847467 47.52 113.458153 47.52 118.08 
C 47.52 122.701847 47.974113 127.312533 48.875791 131.845573 
C 49.777468 136.378613 51.122356 140.812113 52.89106 145.082143 
C 54.659765 149.352173 56.843743 153.43811 59.411504 157.281036 
C 61.979265 161.123961 64.918406 164.705315 68.186546 167.973454 
C 71.454685 171.241594 75.036039 174.180735 78.878964 176.748496 
C 82.72189 179.316257 86.807827 181.500235 91.077857 183.26894 
C 95.347887 185.037644 99.781387 186.382532 104.314427 187.284209 
C 108.847467 188.185887 113.458153 188.64 118.08 188.64 
C 122.701847 188.64 127.312533 188.185887 131.845573 187.284209 
C 136.378613 186.382532 140.812113 185.037644 145.082143 183.26894 
C 149.352173 181.500235 153.43811 179.316257 157.281036 176.748496 
C 161.123961 174.180735 164.705315 171.241594 167.973454 167.973454 
C 171.241594 164.705315 174.180735 161.123961 176.748496 157.281036 
C 179.316257 153.43811 181.500235 149.352173 183.26894 145.082143 
C 185.037644 140.812113 186.382532 136.378613 187.284209 131.845573 
C 188.185887 127.312533 188.64 122.701847 188.64 118.08 
C 188.64 108.814146 186.814829 99.63839 183.26894 91.077857 
C 179.723051 82.517324 174.525403 74.738494 167.973454 68.186546 
C 161.421506 61.634597 153.642676 56.436949 145.082143 52.89106 
C 136.52161 49.345171 127.345854 47.52 118.08 47.52 
C 108.814146 47.52 99.63839 49.345171 91.077857 52.89106 
C 82.517324 56.436949 74.738494 61.634597 68.186546 68.186546 
C 61.634597 74.738494 56.436949 82.517324 52.89106 91.077857 
C 49.345171 99.63839 47.52 108.814146 47.52 118.08 
C 47.52 127.345854 49.345171 136.52161 52.89106 145.082143 
C 56.436949 153.642676 61.634597 161.421506 68.186546 167.973454 
C 74.738494 174.525403 82.517324 179.723051 91.077857 183.26894 
C 99.63839 186.814829 108.814146 188.64 118.08 188.64 
C 127.345854 188.64 136.52161 186.814829 145.082143 183.26894 
C 153.642676 179.723051 161.421506 174.525403 167.973454 167.973454 
C 174.525403 161.421506 179.723051 153.642676 183.26894 145.082143 
C 186.814829 136.52161 188.64 127.345854 188.64 118.08 
C 188.64 113.458153 188.185887 108.847467 187.284209 104.314427 
C 186.382532 99.781387 185.037644 95.347887 183.26894 91.077857 
C 181.500235 86.807827 179.316257 82.72189 176.748496 78.878964 
C 174.180735 75.036039 171.241594 71.454685 167.973454 68.186546 
C 164.705315 64.918406 161.123961 61.979265 157.281036 59.411504 
C 153.43811 56.843743 149.352173 54.659765 145.082143 52.89106 
C 140.812113 51.122356 136.378613 49.777468 131.845573 48.875791 
C 127.312533 47.974113 122.701847 47.52 118.08 47.52 
C 113.458153 47.52 108.847467 47.974113 104.314427 48.875791 
C 99.781387 49.777468 95.347887 51.122356 91.077857 52.89106 
C 86.807827 54.659765 82.72189 56.843743 78.878964 59.411504 
C 75.036039 61.979265 71.454685 64.918406 68.186546 68.186546 
C 64.918406 71.454685 61.979265 75.036039 59.411504 78.878964 
C 56.843743 82.72189 54.659765 86.807827 52.89106 91.077857 
C 51.122356 95.347887 49.777468 99.781387 48.875791 104.314427 
C 47.974113 108.847467 47.52 113.458153 47.52 118.08 
C 47.52 122.701847 47.974113 127.312533 48.875791 131.845573 
C 49.777468 136.378613 51.122356 140.812113 52.89106 145.082143 
C 54.659765 149.352173 56.843743 153.43811 59.411504 157.281036 
C 61.979265 161.123961 64.918406 164.705315 68.186546 167.973454 
C 71.454685 171.241594 75.036039 174.180735 78.878964 176.748496 
C 82.72189 179.316257 86.807827 181.500235 91.077857 183.26894 
C 95.347887 185.037644 99.781387 186.382532 104.314427 187.284209 
C 108.847467 188.185887 113.458153 188.64 118.08 188.64 
C 122.701847 188.64 127.312533 188.185887 131.845573 187.284209 
C 136.378613 186.382532 140.812113 185.037644 145.082143 183.26894 
C 149.352173 181.500235 153.43811 179.316257 157.281036 176.748496 
C 161.123961 174.180735 164.705315 171.241594 167.973454 167.973454 
C 171.241594 164.705315 174.180735 161.123961 176.748496 157.281036 
C 179.316257 153.43811 181.500235 149.352173 183.26894 145.082143 
C 185.037644 140.812113 186.382532 136.378613 187.284209 131.845573 
C 188.185887 127.312533 188.64 122.701847 188.64 118.08 
C 188.64 108.814146 186.814829 99.63839 183.26894 91.077857 
C 179.723051 82.517324 174.525403 74.738494 167.973454 68.186546 
C 161.421506 61.634597 153.642676 56.436949 145.082143 52.89106 
C 136.52161 49.345171 127.345854 47.52 118.08 47.52 
C 108.814146 47.52 99.63839 49.345171 91.077857 52.89106 
C 82.517324 56.436949 74.738494 61.634597 68.186546 68.186546 
C 61.634597 74.738494 56.436949 82.517324 52.89106 91.077857 
C 49.345171 99.63839 47.52 108.814146 47.52 118.08 
C 47.52 127.345854 49.345171 136.52161 52.89106 145.082143 
C 56.436949 153.642676 61.634597 161.421506 68.186546 167.973454 
C 74.738494 174.525403 82.517324 179.723051 91.077857 183.26894 
C 99.63839 186.814829 108.814146 188.64 118.08 188.64 
C 127.345854 188.64 136.52161 186.814829 145.082143 183.26894 
C 153.642676 179.723051 161.421506 174.525403 167.973454 167.973454 
C 174.525403 161.421506 179.723051 153.642676 183.26894 145.082143 
C 186.814829 136.52161 188.64 127.345854 188.64 118.08 
C 188.64 113.458153 188.185887 108.847467 187.284209 104.314427 
C 186.382532 99.781387 185.037644 95.347887 183.26894 91.077857 
C 181.500235 86.807827 179.316257 82.72189 176.748496 78.878964 
C 174.180735 75.036039 171.241594 71.454685 167.973454 68.186546 
C 164.705315 64.918406 161.123961 61.979265 157.281036 59.411504 
C 153.43811 56.843743 149.352173 54.659765 145.082143 52.89106 
C 140.812113 51.122356 136.378613 49.777468 131.845573 48.875791 
C 127.312533 47.974113 122.701847 47.52 118.08 47.52 
C 113.458153 47.52 108.847467 47.974113 104.314427 48.875791 
C 99.781387 49.777468 95.347887 51.122356 91.077857 52.89106 
C 86.807827 54.659765 82.72189 56.843743 78.878964 59.411504 
C 75.036039 61.979265 71.454685 64.918406 68.186546 68.186546 
C 64.918406 71.454685 61.979265 75.036039 59.411504 78.878964 
C 56.843743 82.72189 54.659765 86.807827 52.89106 91.077857 
C 51.122356 95.347887 49.777468 99.781387 48.875791 104.314427 
C 47.974113 108.847467 47.52 113.458153 47.52 118.08 
C 47.52 122.701847 47.974113 127.312533 48.875791 131.845573 
C 49.777468 136.378613 51.122356 140.812113 52.89106 145.082143 
C 54.659765 149.352173 56.843743 153.43811 59.411504 157.281036 
C 61.979265 161.123961 64.918406 164.705315 68.186546 167.973454 
C 71.454685 171.241594 75.036039 174.180735 78.878964 176.748496 
C 82.72189 179.316257 86.807827 181.500235 91.077857 183.26894 
C 95.347887 185.037644 99.781387 186.382532 104.314427 187.284209 
C 108.847467 188.185887 113.458153 188.64 118.08 188.64 
C 122.701847 188.64 127.312533 188.185887 131.845573 187.284209 
C 136.378613 186.382532 140.812113 185.037644 145.082143 183.26894 
C 149.352173 181.500235 153.43811 179.316257 157.281036 176.748496 
C 161.123961 174.180735 164.705315 171.241594 167.973454 167.973454 
C 171.241594 164.705315 174.180735 161.123961 176.748496 157.281036 
C 179.316257 153.43811 181.500235 149.352173 183.26894 145.082143 
C 185.037644 140.812113 186.382532 136.378613 187.284209 131.845573 
C 188.185887 127.312533 188.64 122.701847 188.64 118.08 
C 188.64 109.601533 187.111845 101.192064 184.128958 93.255642 
C 181.146071 85.31922 176.757002 77.98502 171.172632 71.605426 
C 165.588261 65.225832 158.899482 59.90468 151.427669 55.897634 
C 143.955855 51.890589 135.82262 49.26287 127.418739 48.14073 
C 119.014859 47.01859 110.477116 47.420293 102.215722 49.32654 
C 93.954327 51.232787 86.103746 54.61255 79.041174 59.303443 
C 71.978601 63.994336 65.818989 69.920009 60.858287 76.795752 
C 55.897584 83.671495 52.216534 91.385397 49.991997 99.56683 
C 47.76746 107.748263 47.035645 116.264064 47.831712 124.705077 
C 48.627779 133.146089 50.938772 141.374924 54.653654 148.996214 
C 58.368537 156.617504 63.426845 163.507202 69.585543 169.334281 
C 75.744242 175.161359 82.90309 179.830976 90.718128 183.11877 
C 98.533166 186.406564 106.877195 188.259022 115.349311 188.587141 
C 123.821427 188.91526 132.283735 187.713698 140.329651 185.040187 
C 148.375566 182.366676 155.87413 178.26473 162.465061 172.931435 
C 169.055992 167.59814 174.632015 161.120302 178.92522 153.80916 
L 196.309568 164.017491 
C 190.277112 174.290504 182.279755 183.275362 172.77518 190.457867 
C 163.270606 197.640373 152.443654 202.880843 140.913947 205.879369 
C 129.384239 208.877896 117.375999 209.576164 105.576452 207.934214 
C 93.776905 206.292263 82.415522 202.342024 72.142509 196.309568 
C 61.869496 190.277112 52.884638 182.279755 45.702133 172.77518 
C 38.519627 163.270606 33.279157 152.443654 30.280631 140.913947 
C 27.282104 129.384239 26.583836 117.375999 28.225786 105.576452 
C 29.867737 93.776905 33.817976 82.415522 39.850432 72.142509 
C 45.882888 61.869496 53.880245 52.884638 63.38482 45.702133 
C 72.889394 38.519627 83.716346 33.279157 95.246053 30.280631 
C 106.775761 27.282104 118.784001 26.583836 130.583548 28.225786 
C 142.383095 29.867737 153.744478 33.817976 164.017491 39.850432 
C 174.290504 45.882888 183.275362 53.880245 190.457867 63.38482 
C 197.640373 72.889394 202.880843 83.716346 205.879369 95.246053 
C 208.877896 106.775761 209.576164 118.784001 207.934214 130.583548 
C 206.292263 142.383095 202.342024 153.744478 196.309568 164.017491 
C 193.300554 169.141713 189.795332 173.957915 185.844449 178.396647 
C 181.893566 182.835379 177.516102 186.875203 172.77518 190.457867 
C 168.034258 194.040531 162.952776 197.148731 157.604006 199.737647 
C 152.255237 202.326563 146.665014 204.383692 140.913947 205.879369 
C 135.16288 207.375047 129.278746 208.30205 123.346392 208.647011 
C 117.414038 208.991972 111.462116 208.753226 105.576452 207.934214 
C 99.690788 207.115201 93.899808 205.71988 88.287017 203.768369 
C 82.674225 201.816858 77.266731 199.318583 72.142509 196.309568 
C 67.018287 193.300554 62.202085 189.795332 57.763353 185.844449 
C 53.324621 181.893566 49.284797 177.516102 45.702133 172.77518 
C 42.119469 168.034258 39.011269 162.952776 36.422353 157.604006 
C 33.833437 152.255237 31.776308 146.665014 30.280631 140.913947 
C 28.784953 135.16288 27.85795 129.278746 27.512989 123.346392 
C 27.168028 117.414038 27.406774 111.462116 28.225786 105.576452 
C 29.044799 99.690788 30.44012 93.899808 32.391631 88.287017 
C 34.343142 82.674225 36.841417 77.266731 39.850432 72.142509 
C 42.859446 67.018287 46.364668 62.202085 50.315551 57.763353 
C 54.266434 53.324621 58.643898 49.284797 63.38482 45.702133 
C 68.125742 42.119469 73.207224 39.011269 78.555994 36.422353 
C 83.904763 33.833437 89.494986 31.776308 95.246053 30.280631 
C 100.99712 28.784953 106.881254 27.85795 112.813608 27.512989 
C 118.745962 27.168028 124.697884 27.406774 130.583548 28.225786 
C 136.469212 29.044799 142.260192 30.44012 147.872983 32.391631 
C 153.485775 34.343142 158.893269 36.841417 164.017491 39.850432 
C 169.141713 42.859446 173.957915 46.364668 178.396647 50.315551 
C 182.835379 54.266434 186.875203 58.643898 190.457867 63.38482 
C 194.040531 68.125742 197.148731 73.207224 199.737647 78.555994 
C 202.326563 83.904763 204.383692 89.494986 205.879369 95.246053 
C 207.375047 100.99712 208.30205 106.881254 208.647011 112.813608 
C 208.991972 118.745962 208.753226 124.697884 207.934214 130.583548 
C 207.115201 136.469212 205.71988 142.260192 203.768369 147.872983 
C 201.816858 153.485775 199.318583 158.893269 196.309568 164.017491 
C 190.277112 174.290504 182.279755 183.275362 172.77518 190.457867 
C 163.270606 197.640373 152.443654 202.880843 140.913947 205.879369 
C 129.384239 208.877896 117.375999 209.576164 105.576452 207.934214 
C 93.776905 206.292263 82.415522 202.342024 72.142509 196.309568 
C 61.869496 190.277112 52.884638 182.279755 45.702133 172.77518 
C 38.519627 163.270606 33.279157 152.443654 30.280631 140.913947 
C 27.282104 129.384239 26.583836 117.375999 28.225786 105.576452 
C 29.867737 93.776905 33.817976 82.415522 39.850432 72.142509 
C 45.882888 61.869496 53.880245 52.884638 63.38482 45.702133 
C 72.889394 38.519627 83.716346 33.279157 95.246053 30.280631 
C 106.775761 27.282104 118.784001 26.583836 130.583548 28.225786 
C 142.383095 29.867737 153.744478 33.817976 164.017491 39.850432 
C 174.290504 45.882888 183.275362 53.880245 190.457867 63.38482 
C 197.640373 72.889394 202.880843 83.716346 205.879369 95.246053 
C 208.877896 106.775761 209.576164 118.784001 207.934214 130.583548 
C 206.292263 142.383095 202.342024 153.744478 196.309568 164.017491 
C 193.300554 169.141713 189.795332 173.957915 185.844449 178.396647 
C 181.893566 182.835379 177.516102 186.875203 172.77518 190.457867 
C 168.034258 194.040531 162.952776 197.148731 157.604006 199.737647 
C 152.255237 202.326563 146.665014 204.383692 140.913947 205.879369 
C 135.16288 207.375047 129.278746 208.30205 123.346392 208.647011 
C 117.414038 208.991972 111.462116 208.753226 105.576452 207.934214 
C 99.690788 207.115201 93.899808 205.71988 88.287017 203.768369 
C 82.674225 201.816858 77.266731 199.318583 72.142509 196.309568 
C 67.018287 193.300554 62.202085 189.795332 57.763353 185.844449 
C 53.324621 181.893566 49.284797 177.516102 45.702133 172.77518 
C 42.119469 168.034258 39.011269 162.952776 36.422353 157.604006 
C 33.833437 152.255237 31.776308 146.665014 30.280631 140.913947 
C 28.784953 135.16288 27.85795 129.278746 27.512989 123.346392 
C 27.168028 117.414038 27.406774 111.462116 28.225786 105.576452 
C 29.044799 99.690788 30.44012 93.899808 32.391631 88.287017 
C 34.343142 82.674225 36.841417 77.266731 39.850432 72.142509 
C 42.859446 67.018287 46.364668 62.202085 50.315551 57.763353 
C 54.266434 53.324621 58.643898 49.284797 63.38482 45.702133 
C 68.125742 42.119469 73.207224 39.011269 78.555994 36.422353 
C 83.904763 33.833437 89.494986 31.776308 95.246053 30.280631 
C 100.99712 28.784953 106.881254 27.85795 112.813608 27.512989 
C 118.745962 27.168028 124.697884 27.406774 130.583548 28.225786 
C 136.469212 29.044799 142.260192 30.44012 147.872983 32.391631 
C 153.485775 34.343142 158.893269 36.841417 164.017491 39.850432 
C 169.141713 42.859446 173.957915 46.364668 178.396647 50.315551 
C 182.835379 54.266434 186.875203 58.643898 190.457867 63.38482 
C 194.040531 68.125742 197.148731 73.207224 199.737647 78.555994 
C 202.326563 83.904763 204.383692 89.494986 205.879369 95.246053 
C 207.375047 100.99712 208.30205 106.881254 208.647011 112.813608 
C 208.991972 118.745962 208.753226 124.697884 207.934214 130.583548 
C 207.115201 136.469212 205.71988 142.260192 203.768369 147.872983 
C 201.816858 153.485775 199.318583 158.893269 196.309568 164.017491 
C 190.277112 174.290504 182.279755 183.275362 172.77518 190.457867 
C 163.270606 197.640373 152.443654 202.880843 140.913947 205.879369 
C 129.384239 208.877896 117.375999 209.576164 105.576452 207.934214 
C 93.776905 206.292263 82.415522 202.342024 72.142509 196.309568 
C 61.869496 190.277112 52.884638 182.279755 45.702133 172.77518 
C 38.519627 163.270606 33.279157 152.443654 30.280631 140.913947 
C 27.282104 129.384239 26.583836 117.375999 28.225786 105.576452 
C 29.867737 93.776905 33.817976 82.415522 39.850432 72.142509 
C 45.882888 61.869496 53.880245 52.884638 63.38482 45.702133 
C 72.889394 38.519627 83.716346 33.279157 95.246053 30.280631 
C 106.775761 27.282104 118.784001 26.583836 130.583548 28.225786 
C 142.383095 29.867737 153.744478 33.817976 164.017491 39.850432 
C 174.290504 45.882888 183.275362 53.880245 190.457867 63.38482 
C 197.640373 72.889394 202.880843 83.716346 205.879369 95.246053 
C 208.877896 106.775761 209.576164 118.784001 207.934214 130.583548 
C 206.292263 142.383095 202.342024 153.744478 196.309568 164.017491 
C 190.277112 174.290504 182.279755 183.275362 172.77518 190.457867 
C 163.270606 197.640373 152.443654 202.880843 140.913947 205.879369 
C 129.384239 208.877896 117.375999 209.576164 105.576452 207.934214 
C 93.776905 206.292263 82.415522 202.342024 72.142509 196.309568 
C 61.869496 190.277112 52.884638 182.279755 45.702133 172.77518 
C 38.519627 163.270606 33.279157 152.443654 30.280631 140.913947 
C 27.282104 129.384239 26.583836 117.375999 28.225786 105.576452 
C 29.867737 93.776905 33.817976 82.415522 39.850432 72.142509 
C 45.882888 61.869496 53.880245 52.884638 63.38482 45.702133 
C 72.889394 38.519627 83.716346 33.279157 95.246053 30.280631 
C 106.775761 27.282104 118.784001 26.583836 130.583548 28.225786 
C 142.383095 29.867737 153.744478 33.817976 164.017491 39.850432 
C 174.290504 45.882888 183.275362 53.880245 190.457867 63.38482 
C 197.640373 72.889394 202.880843 83.716346 205.879369 95.246053 
C 208.877896 106.775761 209.576164 118.784001 207.934214 130.583548 
C 206.292263 142.383095 202.342024 153.744478 196.309568 164.017491 
C 190.277112 174.290504 182.279755 183.275362 172.77518 190.457867 
C 163.270606 197.640373 152.443654 202.880843 140.913947 205.879369 
C 129.384239 208.877896 117.375999 209.576164 105.576452 207.934214 
C 93.776905 206.292263 82.415522 202.342024 72.142509 196.309568 
C 61.869496 190.277112 52.884638 182.279755 45.702133 172.77518 
C 38.519627 163.270606 33.279157 152.443654 30.280631 140.913947 
C 27.282104 129.384239 26.583836 117.375999 28.225786 105.576452 
C 29.867737 93.776905 33.817976 82.415522 39.850432 72.142509 
C 45.882888 61.869496 53.880245 52.884638 63.38482 45.702133 
C 72.889394 38.519627 83.716346 33.279157 95.246053 30.280631 
C 106.775761 27.282104 118.784001 26.583836 130.583548 28.225786 
C 142.383095 29.867737 153.744478 33.817976 164.017491 39.850432 
C 174.290504 45.882888 183.275362 53.880245 190.457867 63.38482 
C 197.640373 72.889394 202.880843 83.716346 205.879369 95.246053 
C 208.877896 106.775761 209.576164 118.784001 207.934214 130.583548 
C 206.292263 142.383095 202.342024 153.744478 196.309568 164.017491 
C 190.277112 174.290504 182.279755 183.275362 172.77518 190.457867 
C 163.270606 197.640373 152.443654 202.880843 140.913947 205.879369 
C 129.384239 208.877896 117.375999 209.576164 105.576452 207.934214 
C 93.776905 206.292263 82.415522 202.342024 72.142509 196.309568 
C 61.869496 190.277112 52.884638 182.279755 45.702133 172.77518 
C 38.519627 163.270606 33.279157 152.443654 30.280631 140.913947 
C 27.282104 129.384239 26.583836 117.375999 28.225786 105.576452 
C 29.867737 93.776905 33.817976 82.415522 39.850432 72.142509 
C 45.882888 61.869496 53.880245 52.884638 63.38482 45.702133 
C 72.889394 38.519627 83.716346 33.279157 95.246053 30.280631 
C 106.775761 27.282104 118.784001 26.583836 130.583548 28.225786 
C 142.383095 29.867737 153.744478 33.817976 164.017491 39.850432 
C 174.290504 45.882888 183.275362 53.880245 190.457867 63.38482 
C 197.640373 72.889394 202.880843 83.716346 205.879369 95.246053 
C 208.877896 106.775761 209.576164 118.784001 207.934214 130.583548 
C 206.292263 142.383095 202.342024 153.744478 196.309568 164.017491 
C 190.277112 174.290504 182.279755 183.275362 172.77518 190.457867 
C 163.270606 197.640373 152.443654 202.880843 140.913947 205.879369 
C 129.384239 208.877896 117.375999 209.576164 105.576452 207.934214 
C 93.776905 206.292263 82.415522 202.342024 72.142509 196.309568 
C 61.869496 190.277112 52.884638 182.279755 45.702133 172.77518 
C 38.519627 163.270606 33.279157 152.443654 30.280631 140.913947 
C 27.282104 129.384239 26.583836 117.375999 28.225786 105.576452 
C 29.867737 93.776905 33.817976 82.415522 39.850432 72.142509 
C 45.882888 61.869496 53.880245 52.884638 63.38482 45.702133 
C 72.889394 38.519627 83.716346 33.279157 95.246053 30.280631 
C 106.775761 27.282104 118.784001 26.583836 130.583548 28.225786 
C 142.383095 29.867737 153.744478 33.817976 164.017491 39.850432 
C 174.290504 45.882888 183.275362 53.880245 190.457867 63.38482 
C 197.640373 72.889394 202.880843 83.716346 205.879369 95.246053 
C 208.877896 106.775761 209.576164 118.784001 207.934214 130.583548 
C 206.292263 142.383095 202.342024 153.744478 196.309568 164.017491 
C 190.277112 174.290504 182.279755 183.275362 172.77518 190.457867 
C 163.270606 197.640373 152.443654 202.880843 140.913947 205.879369 
C 129.384239 208.877896 117.375999 209.576164 105.576452 207.934214 
C 93.776905 206.292263 82.415522 202.342024 72.142509 196.309568 
C 61.869496 190.277112 52.884638 182.279755 45.702133 172.77518 
C 38.519627 163.270606 33.279157 152.443654 30.280631 140.913947 
C 27.282104 129.384239 26.583836 117.375999 28.225786 105.576452 
C 29.867737 93.776905 33.817976 82.415522 39.850432 72.142509 
C 45.882888 61.869496 53.880245 52.884638 63.38482 45.702133 
C 72.889394 38.519627 83.716346 33.279157 95.246053 30.280631 
C 106.775761 27.282104 118.784001 26.583836 130.583548 28.225786 
C 142.383095 29.867737 153.744478 33.817976 164.017491 39.850432 
C 174.290504 45.882888 183.275362 53.880245 190.457867 63.38482 
C 197.640373 72.889394 202.880843 83.716346 205.879369 95.246053 
C 208.877896 106.775761 209.576164 118.784001 207.934214 130.583548 
C 206.292263 142.383095 202.342024 153.744478 196.309568 164.017491 
C 193.300554 169.141713 189.795332 173.957915 185.844449 178.396647 
C 181.893566 182.835379 177.516102 186.875203 172.77518 190.457867 
C 168.034258 194.040531 162.952776 197.148731 157.604006 199.737647 
C 152.255237 202.326563 146.665014 204.383692 140.913947 205.879369 
C 135.16288 207.375047 129.278746 208.30205 123.346392 208.647011 
C 117.414038 208.991972 111.462116 208.753226 105.576452 207.934214 
C 99.690788 207.115201 93.899808 205.71988 88.287017 203.768369 
C 82.674225 201.816858 77.266731 199.318583 72.142509 196.309568 
C 67.018287 193.300554 62.202085 189.795332 57.763353 185.844449 
C 53.324621 181.893566 49.284797 177.516102 45.702133 172.77518 
C 42.119469 168.034258 39.011269 162.952776 36.422353 157.604006 
C 33.833437 152.255237 31.776308 146.665014 30.280631 140.913947 
C 28.784953 135.16288 27.85795 129.278746 27.512989 123.346392 
C 27.168028 117.414038 27.406774 111.462116 28.225786 105.576452 
C 29.044799 99.690788 30.44012 93.899808 32.391631 88.287017 
C 34.343142 82.674225 36.841417 77.266731 39.850432 72.142509 
C 42.859446 67.018287 46.364668 62.202085 50.315551 57.763353 
C 54.266434 53.324621 58.643898 49.284797 63.38482 45.702133 
C 68.125742 42.119469 73.207224 39.011269 78.555994 36.422353 
C 83.904763 33.833437 89.494986 31.776308 95.246053 30.280631 
C 100.99712 28.784953 106.881254 27.85795 112.813608 27.512989 
C 118.745962 27.168028 124.697884 27.406774 130.583548 28.225786 
C 136.469212 29.044799 142.260192 30.44012 147.872983 32.391631 
C 153.485775 34.343142 158.893269 36.841417 164.017491 39.850432 
C 169.141713 42.859446 173.957915 46.364668 178.396647 50.315551 
C 182.835379 54.266434 186.875203 58.643898 190.457867 63.38482 
C 194.040531 68.125742 197.148731 73.207224 199.737647 78.555994 
C 202.326563 83.904763 204.383692 89.494986 205.879369 95.246053 
C 207.375047 100.99712 208.30205 106.881254 208.647011 112.813608 
C 208.991972 118.745962 208.753226 124.697884 207.934214 130.583548 
C 207.115201 136.469212 205.71988 142.260192 203.768369 147.872983 
C 201.816858 153.485775 199.318583 158.893269 196.309568 164.017491 
C 190.277112 174.290504 182.279755 183.275362 172.77518 190.457867 
C 163.270606 197.640373 152.443654 202.880843 140.913947 205.879369 
C 129.384239 208.877896 117.375999 209.576164 105.576452 207.934214 
C 93.776905 206.292263 82.415522 202.342024 72.142509 196.309568 
C 61.869496 190.277112 52.884638 182.279755 45.702133 172.77518 
C 38.519627 163.270606 33.279157 152.443654 30.280631 140.913947 
C 27.282104 129.384239 26.583836 117.375999 28.225786 105.576452 
C 29.867737 93.776905 33.817976 82.415522 39.850432 72.142509 
C 45.882888 61.869496 53.880245 52.884638 63.38482 45.702133 
C 72.889394 38.519627 83.716346 33.279157 95.246053 30.280631 
C 106.775761 27.282104 118.784001 26.583836 130.583548 28.225786 
C 142.383095 29.867737 153.744478 33.817976 164.017491 39.850432 
C 174.290504 45.882888 183.275362 53.880245 190.457867 63.38482 
C 197.640373 72.889394 202.880843 83.716346 205.879369 95.246053 
C 208.877896 106.775761 209.576164 118.784001 207.934214 130.583548 
C 206.292263 142.383095 202.342024 153.744478 196.309568 164.017491 
C 190.277112 174.290504 182.279755 183.275362 172.77518 190.457867 
C 163.270606 197.640373 152.443654 202.880843 140.913947 205.879369 
C 129.384239 208.877896 117.375999 209.576164 105.576452 207.934214 
C 93.776905 206.292263 82.415522 202.342024 72.142509 196.309568 
C 61.869496 190.277112 52.884638 182.279755 45.702133 172.77518 
C 38.519627 163.270606 33.279157 152.443654 30.280631 140.913947 
C 27.282104 129.384239 26.583836 117.375999 28.225786 105.576452 
C 29.867737 93.776905 33.817976 82.415522 39.850432 72.142509 
C 45.882888 61.869496 53.880245 52.884638 63.38482 45.702133 
C 72.889394 38.519627 83.716346 33.279157 95.246053 30.280631 
C 106.775761 27.282104 118.784001 26.583836 130.583548 28.225786 
C 142.383095 29.867737 153.744478 33.817976 164.017491 39.850432 
C 174.290504 45.882888 183.275362 53.880245 190.457867 63.38482 
C 197.640373 72.889394 202.880843 83.716346 205.879369 95.246053 
C 208.877896 106.775761 209.576164 118.784001 207.934214 130.583548 
C 206.292263 142.383095 202.342024 153.744478 196.309568 164.017491 
C 190.277112 174.290504 182.279755 183.275362 172.77518 190.457867 
C 163.270606 197.640373 152.443654 202.880843 140.913947 205.879369 
C 129.384239 208.877896 117.375999 209.576164 105.576452 207.934214 
C 93.776905 206.292263 82.415522 202.342024 72.142509 196.309568 
C 61.869496 190.277112 52.884638 182.279755 45.702133 172.77518 
C 38.519627 163.270606 33.279157 152.443654 30.280631 140.913947 
C 27.282104 129.384239 26.583836 117.375999 28.225786 105.576452 
C 29.867737 93.776905 33.817976 82.415522 39.850432 72.142509 
C 45.882888 61.869496 53.880245 52.884638 63.38482 45.702133 
C 72.889394 38.519627 83.716346 33.279157 95.246053 30.280631 
C 106.775761 27.282104 118.784001 26.583836 130.583548 28.225786 
C 142.383095 29.867737 153.744478 33.817976 164.017491 39.850432 
C 174.290504 45.882888 183.275362 53.880245 190.457867 63.38482 
C 197.640373 72.889394 202.880843 83.716346 205.879369 95.246053 
C 208.877896 106.775761 209.576164 118.784001 207.934214 130.583548 
C 206.292263 142.383095 202.342024 153.744478 196.309568 164.017491 
C 190.277112 174.290504 182.279755 183.275362 172.77518 190.457867 
C 163.270606 197.640373 152.443654 202.880843 140.913947 205.879369 
C 129.384239 208.877896 117.375999 209.576164 105.576452 207.934214 
C 93.776905 206.292263 82.415522 202.342024 72.142509 196.309568 
C 61.869496 190.277112 52.884638 182.279755 45.702133 172.77518 
C 38.519627 163.270606 33.279157 152.443654 30.280631 140.913947 
C 27.282104 129.384239 26.583836 117.375999 28.225786 105.576452 
C 29.867737 93.776905 33.817976 82.415522 39.850432 72.142509 
C 45.882888 61.869496 53.880245 52.884638 63.38482 45.702133 
C 72.889394 38.519627 83.716346 33.279157 95.246053 30.280631 
C 106.775761 27.282104 118.784001 26.583836 130.583548 28.225786 
C 142.383095 29.867737 153.744478 33.817976 164.017491 39.850432 
C 174.290504 45.882888 183.275362 53.880245 190.457867 63.38482 
C 197.640373 72.889394 202.880843 83.716346 205.879369 95.246053 
C 208.877896 106.775761 209.576164 118.784001 207.934214 130.583548 
C 206.292263 142.383095 202.342024 153.744478 196.309568 164.017491 
C 190.789734 173.417531 183.620561 181.746181 175.146507 188.603274 
C 166.672452 195.460368 157.031441 200.734298 146.686694 204.171669 
C 136.341946 207.60904 125.461834 209.153905 114.569114 208.732038 
C 103.676393 208.310171 92.948356 205.928439 82.90045 201.701275 
C 72.852544 197.474111 63.648311 191.470319 55.729984 183.978361 
C 47.811658 176.486402 41.308119 167.628219 36.531841 157.829418 
C 31.755564 148.030617 28.784288 137.450686 27.760773 126.597956 
C 26.737258 115.745226 27.678163 104.796339 30.538282 94.277353 
C 33.3984 83.758368 38.13118 73.840494 44.509226 65.000253 
C 50.887272 56.160011 58.806773 48.541289 67.887223 42.510141 
C 76.967674 36.478993 87.061278 32.133583 97.683071 29.682694 
C 108.304863 27.231806 119.281961 26.715329 130.086951 28.158081 
C 140.89194 29.600832 151.348957 32.979329 160.955574 38.131244 
C 170.562192 43.28316 179.16205 50.124641 186.341955 58.326976 
C 193.52186 66.529311 199.164948 75.958997 203.000089 86.162968 
C 206.835229 96.366939 208.8 107.179113 208.8 118.08 
z
" clip-path="url(#p962ba6e5d9)" style="fill: #30363d"/>
   </g>
   <g id="patch_4">
    <path d="M 188.64 118.08 
C 188.64 108.814146 186.814829 99.63839 183.26894 91.077857 
C 179.723051 82.517324 174.525403 74.738494 167.973454 68.186546 
C 161.421506 61.634597 153.642676 56.436949 145.082143 52.89106 
C 136.52161 49.345171 127.345854 47.52 118.08 47.52 
C 108.814146 47.52 99.63839 49.345171 91.077857 52.89106 
C 82.517324 56.436949 74.738494 61.634597 68.186546 68.186546 
C 61.634597 74.738494 56.436949 82.517324 52.89106 91.077857 
C 49.345171 99.63839 47.52 108.814146 47.52 118.08 
C 47.52 127.345854 49.345171 136.52161 52.89106 145.082143 
C 56.436949 153.642676 61.634597 161.421506 68.186546 167.973454 
C 74.738494 174.525403 82.517324 179.723051 91.077857 183.26894 
C 99.63839 186.814829 108.814146 188.64 118.08 188.64 
C 127.345854 188.64 136.52161 186.814829 145.082143 183.26894 
C 153.642676 179.723051 161.421506 174.525403 167.973454 167.973454 
C 174.525403 161.421506 179.723051 153.642676 183.26894 145.082143 
C 186.814829 136.52161 188.64 127.345854 188.64 118.08 
C 188.64 108.814146 186.814829 99.63839 183.26894 91.077857 
C 179.723051 82.517324 174.525403 74.738494 167.973454 68.186546 
C 161.421506 61.634597 153.642676 56.436949 145.082143 52.89106 
C 136.52161 49.345171 127.345854 47.52 118.08 47.52 
C 108.814146 47.52 99.63839 49.345171 91.077857 52.89106 
C 82.517324 56.436949 74.738494 61.634597 68.186546 68.186546 
C 61.634597 74.738494 56.436949 82.517324 52.89106 91.077857 
C 49.345171 99.63839 47.52 108.814146 47.52 118.08 
C 47.52 127.345854 49.345171 136.52161 52.89106 145.082143 
C 56.436949 153.642676 61.634597 161.421506 68.186546 167.973454 
C 74.738494 174.525403 82.517324 179.723051 91.077857 183.26894 
C 99.63839 186.814829 108.814146 188.64 118.08 188.64 
C 127.345854 188.64 136.52161 186.814829 145.082143 183.26894 
C 153.642676 179.723051 161.421506 174.525403 167.973454 167.973454 
C 174.525403 161.421506 179.723051 153.642676 183.26894 145.082143 
C 186.814829 136.52161 188.64 127.345854 188.64 118.08 
C 188.64 108.814146 186.814829 99.63839 183.26894 91.077857 
C 179.723051 82.517324 174.525403 74.738494 167.973454 68.186546 
C 161.421506 61.634597 153.642676 56.436949 145.082143 52.89106 
C 136.52161 49.345171 127.345854 47.52 118.08 47.52 
C 108.814146 47.52 99.63839 49.345171 91.077857 52.89106 
C 82.517324 56.436949 74.738494 61.634597 68.186546 68.186546 
C 61.634597 74.738494 56.436949 82.517324 52.89106 91.077857 
C 49.345171 99.63839 47.52 108.814146 47.52 118.08 
C 47.52 127.345854 49.345171 136.52161 52.89106 145.082143 
C 56.436949 153.642676 61.634597 161.421506 68.186546 167.973454 
C 74.738494 174.525403 82.517324 179.723051 91.077857 183.26894 
C 99.63839 186.814829 108.814146 188.64 118.08 188.64 
C 127.345854 188.64 136.52161 186.814829 145.082143 183.26894 
C 153.642676 179.723051 161.421506 174.525403 167.973454 167.973454 
C 174.525403 161.421506 179.723051 153.642676 183.26894 145.082143 
C 186.814829 136.52161 188.64 127.345854 188.64 118.08 
C 188.64 108.814146 186.814829 99.63839 183.26894 91.077857 
C 179.723051 82.517324 174.525403 74.738494 167.973454 68.186546 
C 161.421506 61.634597 153.642676 56.436949 145.082143 52.89106 
C 136.52161 49.345171 127.345854 47.52 118.08 47.52 
C 108.814146 47.52 99.63839 49.345171 91.077857 52.89106 
C 82.517324 56.436949 74.738494 61.634597 68.186546 68.186546 
C 61.634597 74.738494 56.436949 82.517324 52.89106 91.077857 
C 49.345171 99.63839 47.52 108.814146 47.52 118.08 
C 47.52 127.345854 49.345171 136.52161 52.89106 145.082143 
C 56.436949 153.642676 61.634597 161.421506 68.186546 167.973454 
C 74.738494 174.525403 82.517324 179.723051 91.077857 183.26894 
C 99.63839 186.814829 108.814146 188.64 118.08 188.64 
C 127.345854 188.64 136.52161 186.814829 145.082143 183.26894 
C 153.642676 179.723051 161.421506 174.525403 167.973454 167.973454 
C 174.525403 161.421506 179.723051 153.642676 183.26894 145.082143 
C 186.814829 136.52161 188.64 127.345854 188.64 118.08 
C 188.64 108.814146 186.814829 99.63839 183.26894 91.077857 
C 179.723051 82.517324 174.525403 74.738494 167.973454 68.186546 
C 161.421506 61.634597 153.642676 56.436949 145.082143 52.89106 
C 136.52161 49.345171 127.345854 47.52 118.08 47.52 
C 108.814146 47.52 99.63839 49.345171 91.077857 52.89106 
C 82.517324 56.436949 74.738494 61.634597 68.186546 68.186546 
C 61.634597 74.738494 56.436949 82.517324 52.89106 91.077857 
C 49.345171 99.63839 47.52 108.814146 47.52 118.08 
C 47.52 127.345854 49.345171 136.52161 52.89106 145.082143 
C 56.436949 153.642676 61.634597 161.421506 68.186546 167.973454 
C 74.738494 174.525403 82.517324 179.723051 91.077857 183.26894 
C 99.63839 186.814829 108.814146 188.64 118.08 188.64 
C 127.345854 188.64 136.52161 186.814829 145.082143 183.26894 
C 153.642676 179.723051 161.421506 174.525403 167.973454 167.973454 
C 174.525403 161.421506 179.723051 153.642676 183.26894 145.082143 
C 186.814829 136.52161 188.64 127.345854 188.64 118.08 
C 188.64 108.814146 186.814829 99.63839 183.26894 91.077857 
C 179.723051 82.517324 174.525403 74.738494 167.973454 68.186546 
C 161.421506 61.634597 153.642676 56.436949 145.082143 52.89106 
C 136.52161 49.345171 127.345854 47.52 118.08 47.52 
C 108.814146 47.52 99.63839 49.345171 91.077857 52.89106 
C 82.517324 56.436949 74.738494 61.634597 68.186546 68.186546 
C 61.634597 74.738494 56.436949 82.517324 52.89106 91.077857 
C 49.345171 99.63839 47.52 108.814146 47.52 118.08 
C 47.52 127.345854 49.345171 136.52161 52.89106 145.082143 
C 56.436949 153.642676 61.634597 161.421506 68.186546 167.973454 
C 74.738494 174.525403 82.517324 179.723051 91.077857 183.26894 
C 99.63839 186.814829 108.814146 188.64 118.08 188.64 
C 127.345854 188.64 136.52161 186.814829 145.082143 183.26894 
C 153.642676 179.723051 161.421506 174.525403 167.973454 167.973454 
C 174.525403 161.421506 179.723051 153.642676 183.26894 145.082143 
C 186.814829 136.52161 188.64 127.345854 188.64 118.08 
C 188.64 108.814146 186.814829 99.63839 183.26894 91.077857 
C 179.723051 82.517324 174.525403 74.738494 167.973454 68.186546 
C 161.421506 61.634597 153.642676 56.436949 145.082143 52.89106 
C 136.52161 49.345171 127.345854 47.52 118.08 47.52 
C 108.814146 47.52 99.63839 49.345171 91.077857 52.89106 
C 82.517324 56.436949 74.738494 61.634597 68.186546 68.186546 
C 61.634597 74.738494 56.436949 82.517324 52.89106 91.077857 
C 49.345171 99.63839 47.52 108.814146 47.52 118.08 
C 47.52 127.345854 49.345171 136.52161 52.89106 145.082143 
C 56.436949 153.642676 61.634597 161.421506 68.186546 167.973454 
C 74.738494 174.525403 82.517324 179.723051 91.077857 183.26894 
C 99.63839 186.814829 108.814146 188.64 118.08 188.64 
C 127.345854 188.64 136.52161 186.814829 145.082143 183.26894 
C 153.642676 179.723051 161.421506 174.525403 167.973454 167.973454 
C 174.525403 161.421506 179.723051 153.642676 183.26894 145.082143 
C 186.814829 136.52161 188.64 127.345854 188.64 118.08 
C 188.64 108.814146 186.814829 99.63839 183.26894 91.077857 
C 179.723051 82.517324 174.525403 74.738494 167.973454 68.186546 
C 161.421506 61.634597 153.642676 56.436949 145.082143 52.89106 
C 136.52161 49.345171 127.345854 47.52 118.08 47.52 
C 108.814146 47.52 99.63839 49.345171 91.077857 52.89106 
C 82.517324 56.436949 74.738494 61.634597 68.186546 68.186546 
C 61.634597 74.738494 56.436949 82.517324 52.89106 91.077857 
C 49.345171 99.63839 47.52 108.814146 47.52 118.08 
C 47.52 127.345854 49.345171 136.52161 52.89106 145.082143 
C 56.436949 153.642676 61.634597 161.421506 68.186546 167.973454 
C 74.738494 174.525403 82.517324 179.723051 91.077857 183.26894 
C 99.63839 186.814829 108.814146 188.64 118.08 188.64 
C 127.345854 188.64 136.52161 186.814829 145.082143 183.26894 
C 153.642676 179.723051 161.421506 174.525403 167.973454 167.973454 
C 174.525403 161.421506 179.723051 153.642676 183.26894 145.082143 
C 186.814829 136.52161 188.64 127.345854 188.64 118.08 
C 188.64 108.814146 186.814829 99.63839 183.26894 91.077857 
C 179.723051 82.517324 174.525403 74.738494 167.973454 68.186546 
C 161.421506 61.634597 153.642676 56.436949 145.082143 52.89106 
C 136.52161 49.345171 127.345854 47.52 118.08 47.52 
C 108.814146 47.52 99.63839 49.345171 91.077857 52.89106 
C 82.517324 56.436949 74.738494 61.634597 68.186546 68.186546 
C 61.634597 74.738494 56.436949 82.517324 52.89106 91.077857 
C 49.345171 99.63839 47.52 108.814146 47.52 118.08 
C 47.52 127.345854 49.345171 136.52161 52.89106 145.082143 
C 56.436949 153.642676 61.634597 161.421506 68.186546 167.973454 
C 74.738494 174.525403 82.517324 179.723051 91.077857 183.26894 
C 99.63839 186.814829 108.814146 188.64 118.08 188.64 
C 127.345854 188.64 136.52161 186.814829 145.082143 183.26894 
C 153.642676 179.723051 161.421506 174.525403 167.973454 167.973454 
C 174.525403 161.421506 179.723051 153.642676 183.26894 145.082143 
C 186.814829 136.52161 188.64 127.345854 188.64 118.08 
C 188.64 108.814146 186.814829 99.63839 183.26894 91.077857 
C 179.723051 82.517324 174.525403 74.738494 167.973454 68.186546 
C 161.421506 61.634597 153.642676 56.436949 145.082143 52.89106 
C 136.52161 49.345171 127.345854 47.52 118.08 47.52 
C 108.814146 47.52 99.63839 49.345171 91.077857 52.89106 
C 82.517324 56.436949 74.738494 61.634597 68.186546 68.186546 
C 61.634597 74.738494 56.436949 82.517324 52.89106 91.077857 
C 49.345171 99.63839 47.52 108.814146 47.52 118.08 
C 47.52 127.345854 49.345171 136.52161 52.89106 145.082143 
C 56.436949 153.642676 61.634597 161.421506 68.186546 167.973454 
C 74.738494 174.525403 82.517324 179.723051 91.077857 183.26894 
C 99.63839 186.814829 108.814146 188.64 118.08 188.64 
C 127.345854 188.64 136.52161 186.814829 145.082143 183.26894 
C 153.642676 179.723051 161.421506 174.525403 167.973454 167.973454 
C 174.525403 161.421506 179.723051 153.642676 183.26894 145.082143 
C 186.814829 136.52161 188.64 127.345854 188.64 118.08 
C 188.64 113.458153 188.185887 108.847467 187.284209 104.314427 
C 186.382532 99.781387 185.037644 95.347887 183.26894 91.077857 
C 181.500235 86.807827 179.316257 82.72189 176.748496 78.878964 
C 174.180735 75.036039 171.241594 71.454685 167.973454 68.186546 
C 164.705315 64.918406 161.123961 61.979265 157.281036 59.411504 
C 153.43811 56.843743 149.352173 54.659765 145.082143 52.89106 
C 140.812113 51.122356 136.378613 49.777468 131.845573 48.875791 
C 127.312533 47.974113 122.701847 47.52 118.08 47.52 
C 113.458153 47.52 108.847467 47.974113 104.314427 48.875791 
C 99.781387 49.777468 95.347887 51.122356 91.077857 52.89106 
C 86.807827 54.659765 82.72189 56.843743 78.878964 59.411504 
C 75.036039 61.979265 71.454685 64.918406 68.186546 68.186546 
C 64.918406 71.454685 61.979265 75.036039 59.411504 78.878964 
C 56.843743 82.72189 54.659765 86.807827 52.89106 91.077857 
C 51.122356 95.347887 49.777468 99.781387 48.875791 104.314427 
C 47.974113 108.847467 47.52 113.458153 47.52 118.08 
C 47.52 122.701847 47.974113 127.312533 48.875791 131.845573 
C 49.777468 136.378613 51.122356 140.812113 52.89106 145.082143 
C 54.659765 149.352173 56.843743 153.43811 59.411504 157.281036 
C 61.979265 161.123961 64.918406 164.705315 68.186546 167.973454 
C 71.454685 171.241594 75.036039 174.180735 78.878964 176.748496 
C 82.72189 179.316257 86.807827 181.500235 91.077857 183.26894 
C 95.347887 185.037644 99.781387 186.382532 104.314427 187.284209 
C 108.847467 188.185887 113.458153 188.64 118.08 188.64 
C 122.701847 188.64 127.312533 188.185887 131.845573 187.284209 
C 136.378613 186.382532 140.812113 185.037644 145.082143 183.26894 
C 149.352173 181.500235 153.43811 179.316257 157.281036 176.748496 
C 161.123961 174.180735 164.705315 171.241594 167.973454 167.973454 
C 171.241594 164.705315 174.180735 161.123961 176.748496 157.281036 
C 179.316257 153.43811 181.500235 149.352173 183.26894 145.082143 
C 185.037644 140.812113 186.382532 136.378613 187.284209 131.845573 
C 188.185887 127.312533 188.64 122.701847 188.64 118.08 
C 188.64 109.404798 187.040104 100.803517 183.920736 92.708539 
C 180.801369 84.61356 176.215691 77.162838 170.394222 70.730916 
C 164.572753 64.298993 157.614701 58.995483 149.869845 55.086989 
C 142.124988 51.178496 133.725313 48.731627 125.093068 47.869385 
C 116.460822 47.007143 107.743115 47.744223 99.378181 50.043572 
C 91.013246 52.342921 83.14364 56.165353 76.164961 61.318718 
C 69.186282 66.472083 63.217461 72.868557 58.558547 80.186593 
C 53.899634 87.504629 50.630024 95.619514 48.914079 104.123317 
C 47.198135 112.62712 47.065098 121.374919 48.521658 129.92697 
C 49.978218 138.47902 52.999551 146.689577 57.433777 154.145901 
C 61.868003 161.602225 67.639553 168.177246 74.458297 173.540442 
C 81.27704 178.903638 89.026772 182.963608 97.317917 185.516262 
C 105.609062 188.068917 114.300323 189.070751 122.954797 188.471405 
C 131.609271 187.872059 140.079467 185.681747 147.939595 182.010573 
C 155.799723 178.339399 162.915831 173.249929 168.930196 166.998005 
C 174.94456 160.746082 179.754686 153.438251 183.11877 145.441872 
L 201.701275 153.25955 
C 199.396931 158.736942 196.559979 163.974696 193.231326 168.897286 
C 189.902673 173.819876 186.098397 178.403527 181.873354 182.582143 
C 177.64831 186.760759 173.022906 190.514158 168.063838 193.788218 
C 163.104771 197.062278 157.835991 199.841185 152.333472 202.084869 
C 146.830954 204.328553 141.121274 206.026176 135.286765 207.15326 
C 129.452255 208.280344 123.521095 208.831445 117.57881 208.798616 
C 111.636526 208.765786 105.711817 208.149186 99.890117 206.957706 
C 94.068416 205.766225 88.377842 204.005619 82.90045 201.701275 
C 77.423058 199.396931 72.185304 196.559979 67.262714 193.231326 
C 62.340124 189.902673 57.756473 186.098397 53.577857 181.873354 
C 49.399241 177.64831 45.645842 173.022906 42.371782 168.063838 
C 39.097722 163.104771 36.318815 157.835991 34.075131 152.333472 
C 31.831447 146.830954 30.133824 141.121274 29.00674 135.286765 
C 27.879656 129.452255 27.328555 123.521095 27.361384 117.57881 
C 27.394214 111.636526 28.010814 105.711817 29.202294 99.890117 
C 30.393775 94.068416 32.154381 88.377842 34.458725 82.90045 
C 36.763069 77.423058 39.600021 72.185304 42.928674 67.262714 
C 46.257327 62.340124 50.061603 57.756473 54.286646 53.577857 
C 58.51169 49.399241 63.137094 45.645842 68.096162 42.371782 
C 73.055229 39.097722 78.324009 36.318815 83.826528 34.075131 
C 89.329046 31.831447 95.038726 30.133824 100.873235 29.00674 
C 106.707745 27.879656 112.638905 27.328555 118.58119 27.361384 
C 124.523474 27.394214 130.448183 28.010814 136.269883 29.202294 
C 142.091584 30.393775 147.782158 32.154381 153.25955 34.458725 
C 158.736942 36.763069 163.974696 39.600021 168.897286 42.928674 
C 173.819876 46.257327 178.403527 50.061603 182.582143 54.286646 
C 186.760759 58.51169 190.514158 63.137094 193.788218 68.096162 
C 197.062278 73.055229 199.841185 78.324009 202.084869 83.826528 
C 204.328553 89.329046 206.026176 95.038726 207.15326 100.873235 
C 208.280344 106.707745 208.831445 112.638905 208.798616 118.58119 
C 208.765786 124.523474 208.149186 130.448183 206.957706 136.269883 
C 205.766225 142.091584 204.005619 147.782158 201.701275 153.25955 
C 197.081539 164.240595 190.343697 174.204876 181.873354 182.582143 
C 173.40301 190.959409 163.364891 197.586744 152.333472 202.084869 
C 141.302054 206.582994 129.49187 208.864431 117.57881 208.798616 
C 105.665751 208.7328 93.881495 206.321011 82.90045 201.701275 
C 71.919405 197.081539 61.955124 190.343697 53.577857 181.873354 
C 45.200591 173.40301 38.573256 163.364891 34.075131 152.333472 
C 29.577006 141.302054 27.295569 129.49187 27.361384 117.57881 
C 27.4272 105.665751 29.838989 93.881495 34.458725 82.90045 
C 39.078461 71.919405 45.816303 61.955124 54.286646 53.577857 
C 62.75699 45.200591 72.795109 38.573256 83.826528 34.075131 
C 94.857946 29.577006 106.66813 27.295569 118.58119 27.361384 
C 130.494249 27.4272 142.278505 29.838989 153.25955 34.458725 
C 164.240595 39.078461 174.204876 45.816303 182.582143 54.286646 
C 190.959409 62.75699 197.586744 72.795109 202.084869 83.826528 
C 206.582994 94.857946 208.864431 106.66813 208.798616 118.58119 
C 208.7328 130.494249 206.321011 142.278505 201.701275 153.25955 
C 197.081539 164.240595 190.343697 174.204876 181.873354 182.582143 
C 173.40301 190.959409 163.364891 197.586744 152.333472 202.084869 
C 141.302054 206.582994 129.49187 208.864431 117.57881 208.798616 
C 105.665751 208.7328 93.881495 206.321011 82.90045 201.701275 
C 71.919405 197.081539 61.955124 190.343697 53.577857 181.873354 
C 45.200591 173.40301 38.573256 163.364891 34.075131 152.333472 
C 29.577006 141.302054 27.295569 129.49187 27.361384 117.57881 
C 27.4272 105.665751 29.838989 93.881495 34.458725 82.90045 
C 39.078461 71.919405 45.816303 61.955124 54.286646 53.577857 
C 62.75699 45.200591 72.795109 38.573256 83.826528 34.075131 
C 94.857946 29.577006 106.66813 27.295569 118.58119 27.361384 
C 130.494249 27.4272 142.278505 29.838989 153.25955 34.458725 
C 164.240595 39.078461 174.204876 45.816303 182.582143 54.286646 
C 190.959409 62.75699 197.586744 72.795109 202.084869 83.826528 
C 206.582994 94.857946 208.864431 106.66813 208.798616 118.58119 
C 208.7328 130.494249 206.321011 142.278505 201.701275 153.25955 
C 197.081539 164.240595 190.343697 174.204876 181.873354 182.582143 
C 173.40301 190.959409 163.364891 197.586744 152.333472 202.084869 
C 141.302054 206.582994 129.49187 208.864431 117.57881 208.798616 
C 105.665751 208.7328 93.881495 206.321011 82.90045 201.701275 
C 71.919405 197.081539 61.955124 190.343697 53.577857 181.873354 
C 45.200591 173.40301 38.573256 163.364891 34.075131 152.333472 
C 29.577006 141.302054 27.295569 129.49187 27.361384 117.57881 
C 27.4272 105.665751 29.838989 93.881495 34.458725 82.90045 
C 39.078461 71.919405 45.816303 61.955124 54.286646 53.577857 
C 62.75699 45.200591 72.795109 38.573256 83.826528 34.075131 
C 94.857946 29.577006 106.66813 27.295569 118.58119 27.361384 
C 130.494249 27.4272 142.278505 29.838989 153.25955 34.458725 
C 164.240595 39.078461 174.204876 45.816303 182.582143 54.286646 
C 190.959409 62.75699 197.586744 72.795109 202.084869 83.826528 
C 206.582994 94.857946 208.864431 106.66813 208.798616 118.58119 
C 208.7328 130.494249 206.321011 142.278505 201.701275 153.25955 
C 197.081539 164.240595 190.343697 174.204876 181.873354 182.582143 
C 173.40301 190.959409 163.364891 197.586744 152.333472 202.084869 
C 141.302054 206.582994 129.49187 208.864431 117.57881 208.798616 
C 105.665751 208.7328 93.881495 206.321011 82.90045 201.701275 
C 71.919405 197.081539 61.955124 190.343697 53.577857 181.873354 
C 45.200591 173.40301 38.573256 163.364891 34.075131 152.333472 
C 29.577006 141.302054 27.295569 129.49187 27.361384 117.57881 
C 27.4272 105.665751 29.838989 93.881495 34.458725 82.90045 
C 39.078461 71.919405 45.816303 61.955124 54.286646 53.577857 
C 62.75699 45.200591 72.795109 38.573256 83.826528 34.075131 
C 94.857946 29.577006 106.66813 27.295569 118.58119 27.361384 
C 130.494249 27.4272 142.278505 29.838989 153.25955 34.458725 
C 164.240595 39.078461 174.204876 45.816303 182.582143 54.286646 
C 190.959409 62.75699 197.586744 72.795109 202.084869 83.826528 
C 206.582994 94.857946 208.864431 106.66813 208.798616 118.58119 
C 208.7328 130.494249 206.321011 142.278505 201.701275 153.25955 
C 197.081539 164.240595 190.343697 174.204876 181.873354 182.582143 
C 173.40301 190.959409 163.364891 197.586744 152.333472 202.084869 
C 141.302054 206.582994 129.49187 208.864431 117.57881 208.798616 
C 105.665751 208.7328 93.881495 206.321011 82.90045 201.701275 
C 71.919405 197.081539 61.955124 190.343697 53.577857 181.873354 
C 45.200591 173.40301 38.573256 163.364891 34.075131 152.333472 
C 29.577006 141.302054 27.295569 129.49187 27.361384 117.57881 
C 27.4272 105.665751 29.838989 93.881495 34.458725 82.90045 
C 39.078461 71.919405 45.816303 61.955124 54.286646 53.577857 
C 62.75699 45.200591 72.795109 38.573256 83.826528 34.075131 
C 94.857946 29.577006 106.66813 27.295569 118.58119 27.361384 
C 130.494249 27.4272 142.278505 29.838989 153.25955 34.458725 
C 164.240595 39.078461 174.204876 45.816303 182.582143 54.286646 
C 190.959409 62.75699 197.586744 72.795109 202.084869 83.826528 
C 206.582994 94.857946 208.864431 106.66813 208.798616 118.58119 
C 208.7328 130.494249 206.321011 142.278505 201.701275 153.25955 
C 197.081539 164.240595 190.343697 174.204876 181.873354 182.582143 
C 173.40301 190.959409 163.364891 197.586744 152.333472 202.084869 
C 141.302054 206.582994 129.49187 208.864431 117.57881 208.798616 
C 105.665751 208.7328 93.881495 206.321011 82.90045 201.701275 
C 71.919405 197.081539 61.955124 190.343697 53.577857 181.873354 
C 45.200591 173.40301 38.573256 163.364891 34.075131 152.333472 
C 29.577006 141.302054 27.295569 129.49187 27.361384 117.57881 
C 27.4272 105.665751 29.838989 93.881495 34.458725 82.90045 
C 39.078461 71.919405 45.816303 61.955124 54.286646 53.577857 
C 62.75699 45.200591 72.795109 38.573256 83.826528 34.075131 
C 94.857946 29.577006 106.66813 27.295569 118.58119 27.361384 
C 130.494249 27.4272 142.278505 29.838989 153.25955 34.458725 
C 164.240595 39.078461 174.204876 45.816303 182.582143 54.286646 
C 190.959409 62.75699 197.586744 72.795109 202.084869 83.826528 
C 206.582994 94.857946 208.864431 106.66813 208.798616 118.58119 
C 208.7328 130.494249 206.321011 142.278505 201.701275 153.25955 
C 197.081539 164.240595 190.343697 174.204876 181.873354 182.582143 
C 173.40301 190.959409 163.364891 197.586744 152.333472 202.084869 
C 141.302054 206.582994 129.49187 208.864431 117.57881 208.798616 
C 105.665751 208.7328 93.881495 206.321011 82.90045 201.701275 
C 71.919405 197.081539 61.955124 190.343697 53.577857 181.873354 
C 45.200591 173.40301 38.573256 163.364891 34.075131 152.333472 
C 29.577006 141.302054 27.295569 129.49187 27.361384 117.57881 
C 27.4272 105.665751 29.838989 93.881495 34.458725 82.90045 
C 39.078461 71.919405 45.816303 61.955124 54.286646 53.577857 
C 62.75699 45.200591 72.795109 38.573256 83.826528 34.075131 
C 94.857946 29.577006 106.66813 27.295569 118.58119 27.361384 
C 130.494249 27.4272 142.278505 29.838989 153.25955 34.458725 
C 164.240595 39.078461 174.204876 45.816303 182.582143 54.286646 
C 190.959409 62.75699 197.586744 72.795109 202.084869 83.826528 
C 206.582994 94.857946 208.864431 106.66813 208.798616 118.58119 
C 208.7328 130.494249 206.321011 142.278505 201.701275 153.25955 
C 197.081539 164.240595 190.343697 174.204876 181.873354 182.582143 
C 173.40301 190.959409 163.364891 197.586744 152.333472 202.084869 
C 141.302054 206.582994 129.49187 208.864431 117.57881 208.798616 
C 105.665751 208.7328 93.881495 206.321011 82.90045 201.701275 
C 71.919405 197.081539 61.955124 190.343697 53.577857 181.873354 
C 45.200591 173.40301 38.573256 163.364891 34.075131 152.333472 
C 29.577006 141.302054 27.295569 129.49187 27.361384 117.57881 
C 27.4272 105.665751 29.838989 93.881495 34.458725 82.90045 
C 39.078461 71.919405 45.816303 61.955124 54.286646 53.577857 
C 62.75699 45.200591 72.795109 38.573256 83.826528 34.075131 
C 94.857946 29.577006 106.66813 27.295569 118.58119 27.361384 
C 130.494249 27.4272 142.278505 29.838989 153.25955 34.458725 
C 164.240595 39.078461 174.204876 45.816303 182.582143 54.286646 
C 190.959409 62.75699 197.586744 72.795109 202.084869 83.826528 
C 206.582994 94.857946 208.864431 106.66813 208.798616 118.58119 
C 208.7328 130.494249 206.321011 142.278505 201.701275 153.25955 
C 199.396931 158.736942 196.559979 163.974696 193.231326 168.897286 
C 189.902673 173.819876 186.098397 178.403527 181.873354 182.582143 
C 177.64831 186.760759 173.022906 190.514158 168.063838 193.788218 
C 163.104771 197.062278 157.835991 199.841185 152.333472 202.084869 
C 146.830954 204.328553 141.121274 206.026176 135.286765 207.15326 
C 129.452255 208.280344 123.521095 208.831445 117.57881 208.798616 
C 111.636526 208.765786 105.711817 208.149186 99.890117 206.957706 
C 94.068416 205.766225 88.377842 204.005619 82.90045 201.701275 
C 77.423058 199.396931 72.185304 196.559979 67.262714 193.231326 
C 62.340124 189.902673 57.756473 186.098397 53.577857 181.873354 
C 49.399241 177.64831 45.645842 173.022906 42.371782 168.063838 
C 39.097722 163.104771 36.318815 157.835991 34.075131 152.333472 
C 31.831447 146.830954 30.133824 141.121274 29.00674 135.286765 
C 27.879656 129.452255 27.328555 123.521095 27.361384 117.57881 
C 27.394214 111.636526 28.010814 105.711817 29.202294 99.890117 
C 30.393775 94.068416 32.154381 88.377842 34.458725 82.90045 
C 36.763069 77.423058 39.600021 72.185304 42.928674 67.262714 
C 46.257327 62.340124 50.061603 57.756473 54.286646 53.577857 
C 58.51169 49.399241 63.137094 45.645842 68.096162 42.371782 
C 73.055229 39.097722 78.324009 36.318815 83.826528 34.075131 
C 89.329046 31.831447 95.038726 30.133824 100.873235 29.00674 
C 106.707745 27.879656 112.638905 27.328555 118.58119 27.361384 
C 124.523474 27.394214 130.448183 28.010814 136.269883 29.202294 
C 142.091584 30.393775 147.782158 32.154381 153.25955 34.458725 
C 158.736942 36.763069 163.974696 39.600021 168.897286 42.928674 
C 173.819876 46.257327 178.403527 50.061603 182.582143 54.286646 
C 186.760759 58.51169 190.514158 63.137094 193.788218 68.096162 
C 197.062278 73.055229 199.841185 78.324009 202.084869 83.826528 
C 204.328553 89.329046 206.026176 95.038726 207.15326 100.873235 
C 208.280344 106.707745 208.831445 112.638905 208.798616 118.58119 
C 208.765786 124.523474 208.149186 130.448183 206.957706 136.269883 
C 205.766225 142.091584 204.005619 147.782158 201.701275 153.25955 
C 197.081539 164.240595 190.343697 174.204876 181.873354 182.582143 
C 173.40301 190.959409 163.364891 197.586744 152.333472 202.084869 
C 141.302054 206.582994 129.49187 208.864431 117.57881 208.798616 
C 105.665751 208.7328 93.881495 206.321011 82.90045 201.701275 
C 71.919405 197.081539 61.955124 190.343697 53.577857 181.873354 
C 45.200591 173.40301 38.573256 163.364891 34.075131 152.333472 
C 29.577006 141.302054 27.295569 129.49187 27.361384 117.57881 
C 27.4272 105.665751 29.838989 93.881495 34.458725 82.90045 
C 39.078461 71.919405 45.816303 61.955124 54.286646 53.577857 
C 62.75699 45.200591 72.795109 38.573256 83.826528 34.075131 
C 94.857946 29.577006 106.66813 27.295569 118.58119 27.361384 
C 130.494249 27.4272 142.278505 29.838989 153.25955 34.458725 
C 164.240595 39.078461 174.204876 45.816303 182.582143 54.286646 
C 190.959409 62.75699 197.586744 72.795109 202.084869 83.826528 
C 206.582994 94.857946 208.864431 106.66813 208.798616 118.58119 
C 208.7328 130.494249 206.321011 142.278505 201.701275 153.25955 
C 197.376024 163.540608 191.191577 172.936391 183.458823 180.974578 
C 175.726068 189.012765 166.576787 195.556371 156.470908 200.276451 
C 146.365029 204.996532 135.474777 207.812648 124.347596 208.583236 
C 113.220416 209.353823 102.045937 208.06575 91.385893 204.783766 
C 80.725849 201.501782 70.761909 196.28182 61.994953 189.386282 
C 53.227997 182.490745 45.807432 174.037147 40.106285 164.450444 
C 34.405137 154.863742 30.520566 144.307311 28.647846 133.311818 
C 26.775127 122.316325 26.946173 111.069154 29.152388 100.135693 
C 31.358602 89.202232 35.562386 78.768809 41.552418 69.359906 
C 47.54245 59.951002 55.216648 51.726964 64.189235 45.101209 
C 73.161823 38.475454 83.279888 33.560898 94.034804 30.604592 
C 104.789719 27.648287 115.998199 26.700613 127.096801 27.809209 
C 138.195403 28.917806 148.994984 32.06378 158.952657 37.088986 
C 168.91033 42.114193 177.856396 48.932991 185.341143 57.202606 
C 192.825889 65.472221 198.72176 75.05172 202.732375 85.45955 
C 206.74299 95.867379 208.8 106.926169 208.8 118.08 
z
" clip-path="url(#p962ba6e5d9)" style="fill: #58a6ff"/>
   </g>
   <g id="text_1">
    <!-- C++ -->
    <g style="fill: #c9d1d9" transform="translate(154.24125 113.53675) scale(0.16 -0.16)">
     <defs>
      <path id="DejaVuSans-Bold-43" d="M 4288 256 
Q 3956 84 3597 -3 
Q 3238 -91 2847 -91 
Q 1681 -91 1000 561 
Q 319 1213 319 2328 
Q 319 3447 1000 4098 
Q 1681 4750 2847 4750 
Q 3238 4750 3597 4662 
Q 3956 4575 4288 4403 
L 4288 3438 
Q 3953 3666 3628 3772 
Q 3303 3878 2944 3878 
Q 2300 3878 1931 3465 
Q 1563 3053 1563 2328 
Q 1563 1606 1931 1193 
Q 2300 781 2944 781 
Q 3303 781 3628 887 
Q 3953 994 4288 1222 
L 4288 256 
z
" transform="scale(0.015625)"/>
      <path id="DejaVuSans-Bold-2b" d="M 3053 4013 
L 3053 2375 
L 4684 2375 
L 4684 1638 
L 3053 1638 
L 3053 0 
L 2309 0 
L 2309 1638 
L 678 1638 
L 678 2375 
L 2309 2375 
L 2309 4013 
L 3053 4013 
z
" transform="scale(0.015625)"/>
     </defs>
     <use xlink:href="#DejaVuSans-Bold-43"/>
     <use xlink:href="#DejaVuSans-Bold-2b" transform="translate(73.388672 0)"/>
     <use xlink:href="#DejaVuSans-Bold-2b" transform="translate(157.177734 0)"/>
    </g>
    <!-- 75% -->
    <g style="fill: #c9d1d9" transform="translate(154.37125 131.45325) scale(0.16 -0.16)">
     <defs>
      <path id="DejaVuSans-Bold-37" d="M 428 4666 
L 3944 4666 
L 3944 3988 
L 2125 0 
L 953 0 
L 2675 3781 
L 428 3781 
L 428 4666 
z
" transform="scale(0.015625)"/>
      <path id="DejaVuSans-Bold-35" d="M 678 4666 
L 3669 4666 
L 3669 3781 
L 1638 3781 
L 1638 3059 
Q 1775 3097 1914 3117 
Q 2053 3138 2203 3138 
Q 3056 3138 3531 2711 
Q 4006 2284 4006 1522 
Q 4006 766 3489 337 
Q 2972 -91 2053 -91 
Q 1656 -91 1267 -14 
Q 878 63 494 219 
L 494 1166 
Q 875 947 1217 837 
Q 1559 728 1863 728 
Q 2300 728 2551 942 
Q 2803 1156 2803 1522 
Q 2803 1891 2551 2103 
Q 2300 2316 1863 2316 
Q 1603 2316 1309 2248 
Q 1016 2181 678 2041 
L 678 4666 
z
" transform="scale(0.015625)"/>
      <path id="DejaVuSans-Bold-25" d="M 4959 1925 
Q 4738 1925 4616 1733 
Q 4494 1541 4494 1184 
Q 4494 825 4614 633 
Q 4734 441 4959 441 
Q 5184 441 5303 633 
Q 5422 825 5422 1184 
Q 5422 1541 5301 1733 
Q 5181 1925 4959 1925 
z
M 4959 2450 
Q 5541 2450 5875 2112 
Q 6209 1775 6209 1184 
Q 6209 594 5875 251 
Q 5541 -91 4959 -91 
Q 4378 -91 4042 251 
Q 3706 594 3706 1184 
Q 3706 1772 4042 2111 
Q 4378 2450 4959 2450 
z
M 2094 -91 
L 1403 -91 
L 4319 4750 
L 5013 4750 
L 2094 -91 
z
M 1453 4750 
Q 2034 4750 2367 4411 
Q 2700 4072 2700 3481 
Q 2700 2891 2367 2550 
Q 2034 2209 1453 2209 
Q 872 2209 539 2550 
Q 206 2891 206 3481 
Q 206 4072 539 4411 
Q 872 4750 1453 4750 
z
M 1453 4225 
Q 1228 4225 1106 4031 
Q 984 3838 984 3481 
Q 984 3122 1106 2926 
Q 1228 2731 1453 2731 
Q 1678 2731 1798 2926 
Q 1919 3122 1919 3481 
Q 1919 3838 1797 4031 
Q 1675 4225 1453 4225 
z
" transform="scale(0.015625)"/>
     </defs>
     <use xlink:href="#DejaVuSans-Bold-37"/>
     <use xlink:href="#DejaVuSans-Bold-35" transform="translate(69.580078 0)"/>
     <use xlink:href="#DejaVuSans-Bold-25" transform="translate(139.160156 0)"/>
    </g>
   </g>
  </g>
 </g>
 <defs>
  <clipPath id="p962ba6e5d9">
   <path d="M 228.96 118.08 
C 228.96 103.519372 226.091874 89.100327 220.519763 75.648061 
C 214.947651 62.195795 206.779919 49.971919 196.484 39.676 
C 186.188081 29.380081 173.964205 21.212349 160.511939 15.640237 
C 147.059673 10.068126 132.640628 7.2 118.08 7.2 
C 103.519372 7.2 89.100327 10.068126 75.648061 15.640237 
C 62.195795 21.212349 49.971919 29.380081 39.676 39.676 
C 29.380081 49.971919 21.212349 62.195795 15.640237 75.648061 
C 10.068126 89.100327 7.2 103.519372 7.2 118.08 
C 7.2 132.640628 10.068126 147.059673 15.640237 160.511939 
C 21.212349 173.964205 29.380081 186.188081 39.676 196.484 
C 49.971919 206.779919 62.195795 214.947651 75.648061 220.519763 
C 89.100327 226.091874 103.519372 228.96 118.08 228.96 
C 132.640628 228.96 147.059673 226.091874 160.511939 220.519763 
C 173.964205 214.947651 186.188081 206.779919 196.484 196.484 
C 206.779919 186.188081 214.947651 173.964205 220.519763 160.511939 
C 226.091874 147.059673 228.96 132.640628 228.96 118.08 
M 118.08 118.08 
C 118.08 118.08 118.08 118.08 118.08 118.08 
C 118.08 118.08 118.08 118.08 118.08 118.08 
C 118.08 118.08 118.08 118.08 118.08 118.08 
C 118.08 118.08 118.08 118.08 118.08 118.08 
C 118.08 118.08 118.08 118.08 118.08 118.08 
C 118.08 118.08 118.08 118.08 118.08 118.08 
C 118.08 118.08 118.08 118.08 118.08 118.08 
C 118.08 118.08 118.08 118.08 118.08 118.08 
C 118.08 118.08 118.08 118.08 118.08 118.08 
C 118.08 118.08 118.08 118.08 118.08 118.08 
C 118.08 118.08 118.08 118.08 118.08 118.08 
C 118.08 118.08 118.08 118.08 118.08 118.08 
C 118.08 118.08 118.08 118.08 118.08 118.08 
C 118.08 118.08 118.08 118.08 118.08 118.08 
C 118.08 118.08 118.08 118.08 118.08 118.08 
C 118.08 118.08 118.08 118.08 118.08 118.08 
z
"/>
  </clipPath>
 </defs>
</svg>
