<?xml version="1.0" encoding="utf-8" standalone="no"?>
<!DOCTYPE svg PUBLIC "-//W3C//DTD SVG 1.1//EN"
  "http://www.w3.org/Graphics/SVG/1.1/DTD/svg11.dtd">
<svg xmlns:xlink="http://www.w3.org/1999/xlink" width="260.875pt" height="252.86075pt" viewBox="0 0 260.875 252.86075" xmlns="http://www.w3.org/2000/svg" version="1.1">
 <metadata>
  <rdf:RDF xmlns:dc="http://purl.org/dc/elements/1.1/" xmlns:cc="http://creativecommons.org/ns#" xmlns:rdf="http://www.w3.org/1999/02/22-rdf-syntax-ns#">
   <cc:Work>
    <dc:type rdf:resource="http://purl.org/dc/dcmitype/StillImage"/>
    <dc:date>2025-09-10T15:20:13.682897</dc:date>
    <dc:format>image/svg+xml</dc:format>
    <dc:creator>
     <cc:Agent>
      <dc:title>Matplotlib v3.10.6, https://matplotlib.org/</dc:title>
     </cc:Agent>
    </dc:creator>
   </cc:Work>
  </rdf:RDF>
 </metadata>
 <defs>
  <style type="text/css">*{stroke-linejoin: round; stroke-linecap: butt}</style>
 </defs>
 <g id="figure_1">
  <g id="patch_1">
   <path d="M 0 252.86075 
L 260.875 252.86075 
L 260.875 0 
L 0 0 
z
" style="fill: #0d1117"/>
  </g>
  <g id="axes_1">
   <g id="patch_2">
    <path d="M 223.694571 118.08 
C 223.694571 107.456366 221.601947 96.936033 217.536458 87.121075 
C 213.470969 77.306116 207.511679 68.387409 199.999635 60.875365 
C 192.487591 53.363321 183.568884 47.404031 173.753925 43.338542 
C 163.938967 39.273053 153.418634 37.180429 142.795 37.180429 
C 132.171366 37.180429 121.651033 39.273053 111.836075 43.338542 
C 102.021116 47.404031 93.102409 53.363321 85.590365 60.875365 
C 78.078321 68.387409 72.119031 77.306116 68.053542 87.121075 
C 63.988053 96.936033 61.895429 107.456366 61.895429 118.08 
C 61.895429 128.703634 63.988053 139.223967 68.053542 149.038925 
C 72.119031 158.853884 78.078321 167.772591 85.590365 175.284635 
C 93.102409 182.796679 102.021116 188.755969 111.836075 192.821458 
C 121.651033 196.886947 132.171366 198.979571 142.795 198.979571 
C 153.418634 198.979571 163.938967 196.886947 173.753925 192.821458 
C 183.568884 188.755969 192.487591 182.796679 199.999635 175.284635 
C 207.511679 167.772591 213.470969 158.853884 217.536458 149.038925 
C 221.601947 139.223967 223.694571 128.703634 223.694571 118.08 
C 223.694571 107.456366 221.601947 96.936033 217.536458 87.121075 
C 213.470969 77.306116 207.511679 68.387409 199.999635 60.875365 
C 192.487591 53.363321 183.568884 47.404031 173.753925 43.338542 
C 163.938967 39.273053 153.418634 37.180429 142.795 37.180429 
C 132.171366 37.180429 121.651033 39.273053 111.836075 43.338542 
C 102.021116 47.404031 93.102409 53.363321 85.590365 60.875365 
C 78.078321 68.387409 72.119031 77.306116 68.053542 87.121075 
C 63.988053 96.936033 61.895429 107.456366 61.895429 118.08 
C 61.895429 128.703634 63.988053 139.223967 68.053542 149.038925 
C 72.119031 158.853884 78.078321 167.772591 85.590365 175.284635 
C 93.102409 182.796679 102.021116 188.755969 111.836075 192.821458 
C 121.651033 196.886947 132.171366 198.979571 142.795 198.979571 
C 153.418634 198.979571 163.938967 196.886947 173.753925 192.821458 
C 183.568884 188.755969 192.487591 182.796679 199.999635 175.284635 
C 207.511679 167.772591 213.470969 158.853884 217.536458 149.038925 
C 221.601947 139.223967 223.694571 128.703634 223.694571 118.08 
C 223.694571 107.456366 221.601947 96.936033 217.536458 87.121075 
C 213.470969 77.306116 207.511679 68.387409 199.999635 60.875365 
C 192.487591 53.363321 183.568884 47.404031 173.753925 43.338542 
C 163.938967 39.273053 153.418634 37.180429 142.795 37.180429 
C 132.171366 37.180429 121.651033 39.273053 111.836075 43.338542 
C 102.021116 47.404031 93.102409 53.363321 85.590365 60.875365 
C 78.078321 68.387409 72.119031 77.306116 68.053542 87.121075 
C 63.988053 96.936033 61.895429 107.456366 61.895429 118.08 
C 61.895429 128.703634 63.988053 139.223967 68.053542 149.038925 
C 72.119031 158.853884 78.078321 167.772591 85.590365 175.284635 
C 93.102409 182.796679 102.021116 188.755969 111.836075 192.821458 
C 121.651033 196.886947 132.171366 198.979571 142.795 198.979571 
C 153.418634 198.979571 163.938967 196.886947 173.753925 192.821458 
C 183.568884 188.755969 192.487591 182.796679 199.999635 175.284635 
C 207.511679 167.772591 213.470969 158.853884 217.536458 149.038925 
C 221.601947 139.223967 223.694571 128.703634 223.694571 118.08 
C 223.694571 107.456366 221.601947 96.936033 217.536458 87.121075 
C 213.470969 77.306116 207.511679 68.387409 199.999635 60.875365 
C 192.487591 53.363321 183.568884 47.404031 173.753925 43.338542 
C 163.938967 39.273053 153.418634 37.180429 142.795 37.180429 
C 132.171366 37.180429 121.651033 39.273053 111.836075 43.338542 
C 102.021116 47.404031 93.102409 53.363321 85.590365 60.875365 
C 78.078321 68.387409 72.119031 77.306116 68.053542 87.121075 
C 63.988053 96.936033 61.895429 107.456366 61.895429 118.08 
C 61.895429 128.703634 63.988053 139.223967 68.053542 149.038925 
C 72.119031 158.853884 78.078321 167.772591 85.590365 175.284635 
C 93.102409 182.796679 102.021116 188.755969 111.836075 192.821458 
C 121.651033 196.886947 132.171366 198.979571 142.795 198.979571 
C 153.418634 198.979571 163.938967 196.886947 173.753925 192.821458 
C 183.568884 188.755969 192.487591 182.796679 199.999635 175.284635 
C 207.511679 167.772591 213.470969 158.853884 217.536458 149.038925 
C 221.601947 139.223967 223.694571 128.703634 223.694571 118.08 
C 223.694571 107.456366 221.601947 96.936033 217.536458 87.121075 
C 213.470969 77.306116 207.511679 68.387409 199.999635 60.875365 
C 192.487591 53.363321 183.568884 47.404031 173.753925 43.338542 
C 163.938967 39.273053 153.418634 37.180429 142.795 37.180429 
C 132.171366 37.180429 121.651033 39.273053 111.836075 43.338542 
C 102.021116 47.404031 93.102409 53.363321 85.590365 60.875365 
C 78.078321 68.387409 72.119031 77.306116 68.053542 87.121075 
C 63.988053 96.936033 61.895429 107.456366 61.895429 118.08 
C 61.895429 128.703634 63.988053 139.223967 68.053542 149.038925 
C 72.119031 158.853884 78.078321 167.772591 85.590365 175.284635 
C 93.102409 182.796679 102.021116 188.755969 111.836075 192.821458 
C 121.651033 196.886947 132.171366 198.979571 142.795 198.979571 
C 153.418634 198.979571 163.938967 196.886947 173.753925 192.821458 
C 183.568884 188.755969 192.487591 182.796679 199.999635 175.284635 
C 207.511679 167.772591 213.470969 158.853884 217.536458 149.038925 
C 221.601947 139.223967 223.694571 128.703634 223.694571 118.08 
C 223.694571 107.456366 221.601947 96.936033 217.536458 87.121075 
C 213.470969 77.306116 207.511679 68.387409 199.999635 60.875365 
C 192.487591 53.363321 183.568884 47.404031 173.753925 43.338542 
C 163.938967 39.273053 153.418634 37.180429 142.795 37.180429 
C 132.171366 37.180429 121.651033 39.273053 111.836075 43.338542 
C 102.021116 47.404031 93.102409 53.363321 85.590365 60.875365 
C 78.078321 68.387409 72.119031 77.306116 68.053542 87.121075 
C 63.988053 96.936033 61.895429 107.456366 61.895429 118.08 
C 61.895429 128.703634 63.988053 139.223967 68.053542 149.038925 
C 72.119031 158.853884 78.078321 167.772591 85.590365 175.284635 
C 93.102409 182.796679 102.021116 188.755969 111.836075 192.821458 
C 121.651033 196.886947 132.171366 198.979571 142.795 198.979571 
C 153.418634 198.979571 163.938967 196.886947 173.753925 192.821458 
C 183.568884 188.755969 192.487591 182.796679 199.999635 175.284635 
C 207.511679 167.772591 213.470969 158.853884 217.536458 149.038925 
C 221.601947 139.223967 223.694571 128.703634 223.694571 118.08 
C 223.694571 107.456366 221.601947 96.936033 217.536458 87.121075 
C 213.470969 77.306116 207.511679 68.387409 199.999635 60.875365 
C 192.487591 53.363321 183.568884 47.404031 173.753925 43.338542 
C 163.938967 39.273053 153.418634 37.180429 142.795 37.180429 
C 132.171366 37.180429 121.651033 39.273053 111.836075 43.338542 
C 102.021116 47.404031 93.102409 53.363321 85.590365 60.875365 
C 78.078321 68.387409 72.119031 77.306116 68.053542 87.121075 
C 63.988053 96.936033 61.895429 107.456366 61.895429 118.08 
C 61.895429 128.703634 63.988053 139.223967 68.053542 149.038925 
C 72.119031 158.853884 78.078321 167.772591 85.590365 175.284635 
C 93.102409 182.796679 102.021116 188.755969 111.836075 192.821458 
C 121.651033 196.886947 132.171366 198.979571 142.795 198.979571 
C 153.418634 198.979571 163.938967 196.886947 173.753925 192.821458 
C 183.568884 188.755969 192.487591 182.796679 199.999635 175.284635 
C 207.511679 167.772591 213.470969 158.853884 217.536458 149.038925 
C 221.601947 139.223967 223.694571 128.703634 223.694571 118.08 
C 223.694571 107.456366 221.601947 96.936033 217.536458 87.121075 
C 213.470969 77.306116 207.511679 68.387409 199.999635 60.875365 
C 192.487591 53.363321 183.568884 47.404031 173.753925 43.338542 
C 163.938967 39.273053 153.418634 37.180429 142.795 37.180429 
C 132.171366 37.180429 121.651033 39.273053 111.836075 43.338542 
C 102.021116 47.404031 93.102409 53.363321 85.590365 60.875365 
C 78.078321 68.387409 72.119031 77.306116 68.053542 87.121075 
C 63.988053 96.936033 61.895429 107.456366 61.895429 118.08 
C 61.895429 128.703634 63.988053 139.223967 68.053542 149.038925 
C 72.119031 158.853884 78.078321 167.772591 85.590365 175.284635 
C 93.102409 182.796679 102.021116 188.755969 111.836075 192.821458 
C 121.651033 196.886947 132.171366 198.979571 142.795 198.979571 
C 153.418634 198.979571 163.938967 196.886947 173.753925 192.821458 
C 183.568884 188.755969 192.487591 182.796679 199.999635 175.284635 
C 207.511679 167.772591 213.470969 158.853884 217.536458 149.038925 
C 221.601947 139.223967 223.694571 128.703634 223.694571 118.08 
C 223.694571 107.456366 221.601947 96.936033 217.536458 87.121075 
C 213.470969 77.306116 207.511679 68.387409 199.999635 60.875365 
C 192.487591 53.363321 183.568884 47.404031 173.753925 43.338542 
C 163.938967 39.273053 153.418634 37.180429 142.795 37.180429 
C 132.171366 37.180429 121.651033 39.273053 111.836075 43.338542 
C 102.021116 47.404031 93.102409 53.363321 85.590365 60.875365 
C 78.078321 68.387409 72.119031 77.306116 68.053542 87.121075 
C 63.988053 96.936033 61.895429 107.456366 61.895429 118.08 
C 61.895429 128.703634 63.988053 139.223967 68.053542 149.038925 
C 72.119031 158.853884 78.078321 167.772591 85.590365 175.284635 
C 93.102409 182.796679 102.021116 188.755969 111.836075 192.821458 
C 121.651033 196.886947 132.171366 198.979571 142.795 198.979571 
C 153.418634 198.979571 163.938967 196.886947 173.753925 192.821458 
C 183.568884 188.755969 192.487591 182.796679 199.999635 175.284635 
C 207.511679 167.772591 213.470969 158.853884 217.536458 149.038925 
C 221.601947 139.223967 223.694571 128.703634 223.694571 118.08 
C 223.694571 107.456366 221.601947 96.936033 217.536458 87.121075 
C 213.470969 77.306116 207.511679 68.387409 199.999635 60.875365 
C 192.487591 53.363321 183.568884 47.404031 173.753925 43.338542 
C 163.938967 39.273053 153.418634 37.180429 142.795 37.180429 
C 132.171366 37.180429 121.651033 39.273053 111.836075 43.338542 
C 102.021116 47.404031 93.102409 53.363321 85.590365 60.875365 
C 78.078321 68.387409 72.119031 77.306116 68.053542 87.121075 
C 63.988053 96.936033 61.895429 107.456366 61.895429 118.08 
C 61.895429 128.703634 63.988053 139.223967 68.053542 149.038925 
C 72.119031 158.853884 78.078321 167.772591 85.590365 175.284635 
C 93.102409 182.796679 102.021116 188.755969 111.836075 192.821458 
C 121.651033 196.886947 132.171366 198.979571 142.795 198.979571 
C 153.418634 198.979571 163.938967 196.886947 173.753925 192.821458 
C 183.568884 188.755969 192.487591 182.796679 199.999635 175.284635 
C 207.511679 167.772591 213.470969 158.853884 217.536458 149.038925 
C 221.601947 139.223967 223.694571 128.703634 223.694571 118.08 
C 223.694571 112.780886 223.173914 107.494569 222.140108 102.297277 
C 221.106302 97.099984 219.564341 92.016817 217.536458 87.121075 
C 215.508575 82.225332 213.004565 77.540659 210.060535 73.134607 
C 207.116505 68.728555 203.746674 64.622404 199.999635 60.875365 
C 196.252596 57.128326 192.146445 53.758495 187.740393 50.814465 
C 183.334341 47.870435 178.649668 45.366425 173.753925 43.338542 
C 168.858183 41.310659 163.775016 39.768698 158.577723 38.734892 
C 153.380431 37.701086 148.094114 37.180429 142.795 37.180429 
C 137.495886 37.180429 132.209569 37.701086 127.012277 38.734892 
C 121.814984 39.768698 116.731817 41.310659 111.836075 43.338542 
C 106.940332 45.366425 102.255659 47.870435 97.849607 50.814465 
C 93.443555 53.758495 89.337404 57.128326 85.590365 60.875365 
C 81.843326 64.622404 78.473495 68.728555 75.529465 73.134607 
C 72.585435 77.540659 70.081425 82.225332 68.053542 87.121075 
C 66.025659 92.016817 64.483698 97.099984 63.449892 102.297277 
C 62.416086 107.494569 61.895429 112.780886 61.895429 118.08 
C 61.895429 123.379114 62.416086 128.665431 63.449892 133.862723 
C 64.483698 139.060016 66.025659 144.143183 68.053542 149.038925 
C 70.081425 153.934668 72.585435 158.619341 75.529465 163.025393 
C 78.473495 167.431445 81.843326 171.537596 85.590365 175.284635 
C 89.337404 179.031674 93.443555 182.401505 97.849607 185.345535 
C 102.255659 188.289565 106.940332 190.793575 111.836075 192.821458 
C 116.731817 194.849341 121.814984 196.391302 127.012277 197.425108 
C 132.209569 198.458914 137.495886 198.979571 142.795 198.979571 
C 148.094114 198.979571 153.380431 198.458914 158.577723 197.425108 
C 163.775016 196.391302 168.858183 194.849341 173.753925 192.821458 
C 178.649668 190.793575 183.334341 188.289565 187.740393 185.345535 
C 192.146445 182.401505 196.252596 179.031674 199.999635 175.284635 
C 203.746674 171.537596 207.116505 167.431445 210.060535 163.025393 
C 213.004565 158.619341 215.508575 153.934668 217.536458 149.038925 
C 219.564341 144.143183 221.106302 139.060016 222.140108 133.862723 
C 223.173914 128.665431 223.694571 123.379114 223.694571 118.08 
C 223.694571 107.456366 221.601947 96.936033 217.536458 87.121075 
C 213.470969 77.306116 207.511679 68.387409 199.999635 60.875365 
C 192.487591 53.363321 183.568884 47.404031 173.753925 43.338542 
C 163.938967 39.273053 153.418634 37.180429 142.795 37.180429 
C 132.171366 37.180429 121.651033 39.273053 111.836075 43.338542 
C 102.021116 47.404031 93.102409 53.363321 85.590365 60.875365 
C 78.078321 68.387409 72.119031 77.306116 68.053542 87.121075 
C 63.988053 96.936033 61.895429 107.456366 61.895429 118.08 
C 61.895429 128.703634 63.988053 139.223967 68.053542 149.038925 
C 72.119031 158.853884 78.078321 167.772591 85.590365 175.284635 
C 93.102409 182.796679 102.021116 188.755969 111.836075 192.821458 
C 121.651033 196.886947 132.171366 198.979571 142.795 198.979571 
C 153.418634 198.979571 163.938967 196.886947 173.753925 192.821458 
C 183.568884 188.755969 192.487591 182.796679 199.999635 175.284635 
C 207.511679 167.772591 213.470969 158.853884 217.536458 149.038925 
C 221.601947 139.223967 223.694571 128.703634 223.694571 118.08 
C 223.694571 112.780886 223.173914 107.494569 222.140108 102.297277 
C 221.106302 97.099984 219.564341 92.016817 217.536458 87.121075 
C 215.508575 82.225332 213.004565 77.540659 210.060535 73.134607 
C 207.116505 68.728555 203.746674 64.622404 199.999635 60.875365 
C 196.252596 57.128326 192.146445 53.758495 187.740393 50.814465 
C 183.334341 47.870435 178.649668 45.366425 173.753925 43.338542 
C 168.858183 41.310659 163.775016 39.768698 158.577723 38.734892 
C 153.380431 37.701086 148.094114 37.180429 142.795 37.180429 
C 137.495886 37.180429 132.209569 37.701086 127.012277 38.734892 
C 121.814984 39.768698 116.731817 41.310659 111.836075 43.338542 
C 106.940332 45.366425 102.255659 47.870435 97.849607 50.814465 
C 93.443555 53.758495 89.337404 57.128326 85.590365 60.875365 
C 81.843326 64.622404 78.473495 68.728555 75.529465 73.134607 
C 72.585435 77.540659 70.081425 82.225332 68.053542 87.121075 
C 66.025659 92.016817 64.483698 97.099984 63.449892 102.297277 
C 62.416086 107.494569 61.895429 112.780886 61.895429 118.08 
C 61.895429 123.379114 62.416086 128.665431 63.449892 133.862723 
C 64.483698 139.060016 66.025659 144.143183 68.053542 149.038925 
C 70.081425 153.934668 72.585435 158.619341 75.529465 163.025393 
C 78.473495 167.431445 81.843326 171.537596 85.590365 175.284635 
C 89.337404 179.031674 93.443555 182.401505 97.849607 185.345535 
C 102.255659 188.289565 106.940332 190.793575 111.836075 192.821458 
C 116.731817 194.849341 121.814984 196.391302 127.012277 197.425108 
C 132.209569 198.458914 137.495886 198.979571 142.795 198.979571 
C 148.094114 198.979571 153.380431 198.458914 158.577723 197.425108 
C 163.775016 196.391302 168.858183 194.849341 173.753925 192.821458 
C 178.649668 190.793575 183.334341 188.289565 187.740393 185.345535 
C 192.146445 182.401505 196.252596 179.031674 199.999635 175.284635 
C 203.746674 171.537596 207.116505 167.431445 210.060535 163.025393 
C 213.004565 158.619341 215.508575 153.934668 217.536458 149.038925 
C 219.564341 144.143183 221.106302 139.060016 222.140108 133.862723 
C 223.173914 128.665431 223.694571 123.379114 223.694571 118.08 
C 223.694571 107.456366 221.601947 96.936033 217.536458 87.121075 
C 213.470969 77.306116 207.511679 68.387409 199.999635 60.875365 
C 192.487591 53.363321 183.568884 47.404031 173.753925 43.338542 
C 163.938967 39.273053 153.418634 37.180429 142.795 37.180429 
C 132.171366 37.180429 121.651033 39.273053 111.836075 43.338542 
C 102.021116 47.404031 93.102409 53.363321 85.590365 60.875365 
C 78.078321 68.387409 72.119031 77.306116 68.053542 87.121075 
C 63.988053 96.936033 61.895429 107.456366 61.895429 118.08 
C 61.895429 128.703634 63.988053 139.223967 68.053542 149.038925 
C 72.119031 158.853884 78.078321 167.772591 85.590365 175.284635 
C 93.102409 182.796679 102.021116 188.755969 111.836075 192.821458 
C 121.651033 196.886947 132.171366 198.979571 142.795 198.979571 
C 153.418634 198.979571 163.938967 196.886947 173.753925 192.821458 
C 183.568884 188.755969 192.487591 182.796679 199.999635 175.284635 
C 207.511679 167.772591 213.470969 158.853884 217.536458 149.038925 
C 221.601947 139.223967 223.694571 128.703634 223.694571 118.08 
C 223.694571 112.780886 223.173914 107.494569 222.140108 102.297277 
C 221.106302 97.099984 219.564341 92.016817 217.536458 87.121075 
C 215.508575 82.225332 213.004565 77.540659 210.060535 73.134607 
C 207.116505 68.728555 203.746674 64.622404 199.999635 60.875365 
C 196.252596 57.128326 192.146445 53.758495 187.740393 50.814465 
C 183.334341 47.870435 178.649668 45.366425 173.753925 43.338542 
C 168.858183 41.310659 163.775016 39.768698 158.577723 38.734892 
C 153.380431 37.701086 148.094114 37.180429 142.795 37.180429 
C 137.495886 37.180429 132.209569 37.701086 127.012277 38.734892 
C 121.814984 39.768698 116.731817 41.310659 111.836075 43.338542 
C 106.940332 45.366425 102.255659 47.870435 97.849607 50.814465 
C 93.443555 53.758495 89.337404 57.128326 85.590365 60.875365 
C 81.843326 64.622404 78.473495 68.728555 75.529465 73.134607 
C 72.585435 77.540659 70.081425 82.225332 68.053542 87.121075 
C 66.025659 92.016817 64.483698 97.099984 63.449892 102.297277 
C 62.416086 107.494569 61.895429 112.780886 61.895429 118.08 
C 61.895429 123.379114 62.416086 128.665431 63.449892 133.862723 
C 64.483698 139.060016 66.025659 144.143183 68.053542 149.038925 
C 70.081425 153.934668 72.585435 158.619341 75.529465 163.025393 
C 78.473495 167.431445 81.843326 171.537596 85.590365 175.284635 
C 89.337404 179.031674 93.443555 182.401505 97.849607 185.345535 
C 102.255659 188.289565 106.940332 190.793575 111.836075 192.821458 
C 116.731817 194.849341 121.814984 196.391302 127.012277 197.425108 
C 132.209569 198.458914 137.495886 198.979571 142.795 198.979571 
C 148.094114 198.979571 153.380431 198.458914 158.577723 197.425108 
C 163.775016 196.391302 168.858183 194.849341 173.753925 192.821458 
C 178.649668 190.793575 183.334341 188.289565 187.740393 185.345535 
C 192.146445 182.401505 196.252596 179.031674 199.999635 175.284635 
C 203.746674 171.537596 207.116505 167.431445 210.060535 163.025393 
C 213.004565 158.619341 215.508575 153.934668 217.536458 149.038925 
C 219.564341 144.143183 221.106302 139.060016 222.140108 133.862723 
C 223.173914 128.665431 223.694571 123.379114 223.694571 118.08 
C 223.694571 108.359133 221.942486 98.717376 218.522499 89.617983 
C 215.102512 80.51859 210.070287 72.109667 203.667606 64.795233 
C 197.264926 57.4808 189.596001 51.379909 181.029298 46.785688 
C 172.462596 42.191466 163.137551 39.178692 153.5022 37.892118 
C 143.866849 36.605544 134.078021 37.066112 124.606036 39.251692 
C 115.134051 41.437272 106.133078 45.312292 98.035586 50.690569 
C 89.938093 56.068846 82.875876 62.862843 77.188253 70.746129 
C 71.50063 78.629415 67.280174 87.47368 64.729662 96.853987 
C 62.179151 106.234293 61.340099 115.997965 62.252818 125.675888 
C 63.165538 135.353811 65.815174 144.788466 70.07442 153.526548 
C 74.333666 162.26463 80.133198 170.163916 87.194366 176.844871 
C 94.255535 183.525826 102.463411 188.879708 111.423632 192.649282 
C 120.383854 196.418856 129.950582 198.542766 139.664167 198.918966 
C 149.377752 199.295166 159.080092 197.917532 168.305022 194.852256 
C 177.529953 191.78698 186.127325 187.083952 193.684064 180.969138 
C 201.240803 174.854324 207.633914 167.42725 212.556227 159.044763 
L 237.177836 173.502915 
C 229.899766 185.897155 220.25107 196.737256 208.783939 205.402844 
C 197.316808 214.068432 184.254249 220.390984 170.343825 224.008662 
C 156.4334 227.626341 141.945633 228.468792 127.709651 226.487802 
C 113.473669 224.506812 99.766326 219.740907 87.372085 212.462836 
C 74.977845 205.184766 64.137744 195.53607 55.472156 184.068939 
C 46.806568 172.601808 40.484016 159.539249 36.866338 145.628825 
C 33.248659 131.7184 32.406208 117.230633 34.387198 102.994651 
C 36.368188 88.758669 41.134093 75.051326 48.412164 62.657085 
C 55.690234 50.262845 65.33893 39.422744 76.806061 30.757156 
C 88.273192 22.091568 101.335751 15.769016 115.246175 12.151338 
C 129.1566 8.533659 143.644367 7.691208 157.880349 9.672198 
C 172.116331 11.653188 185.823674 16.419093 198.217915 23.697164 
C 210.612155 30.975234 221.452256 40.62393 230.117844 52.091061 
C 238.783432 63.558192 245.105984 76.620751 248.723662 90.531175 
C 252.341341 104.4416 253.183792 118.929367 251.202802 133.165349 
C 249.221812 147.401331 244.455907 161.108674 237.177836 173.502915 
C 233.547504 179.685214 229.318505 185.495891 224.551822 190.851157 
C 219.785139 196.206423 214.503793 201.080412 208.783939 205.402844 
C 203.064086 209.725276 196.933351 213.475274 190.480138 216.598764 
C 184.026926 219.722253 177.282403 222.204149 170.343825 224.008662 
C 163.405246 225.813176 156.306124 226.931591 149.148825 227.347782 
C 141.991526 227.763972 134.810619 227.475928 127.709651 226.487802 
C 120.608683 225.499676 113.62195 223.81624 106.850199 221.461771 
C 100.078448 219.107301 93.554385 216.093168 87.372085 212.462836 
C 81.189786 208.832504 75.379109 204.603505 70.023843 199.836822 
C 64.668577 195.070139 59.794588 189.788793 55.472156 184.068939 
C 51.149724 178.349086 47.399726 172.218351 44.276236 165.765138 
C 41.152747 159.311926 38.670851 152.567403 36.866338 145.628825 
C 35.061824 138.690246 33.943409 131.591124 33.527218 124.433825 
C 33.111028 117.276526 33.399072 110.095619 34.387198 102.994651 
C 35.375324 95.893683 37.05876 88.90695 39.413229 82.135199 
C 41.767699 75.363448 44.781832 68.839385 48.412164 62.657085 
C 52.042496 56.474786 56.271495 50.664109 61.038178 45.308843 
C 65.804861 39.953577 71.086207 35.079588 76.806061 30.757156 
C 82.525914 26.434724 88.656649 22.684726 95.109862 19.561236 
C 101.563074 16.437747 108.307597 13.955851 115.246175 12.151338 
C 122.184754 10.346824 129.283876 9.228409 136.441175 8.812218 
C 143.598474 8.396028 150.779381 8.684072 157.880349 9.672198 
C 164.981317 10.660324 171.96805 12.34376 178.739801 14.698229 
C 185.511552 17.052699 192.035615 20.066832 198.217915 23.697164 
C 204.400214 27.327496 210.210891 31.556495 215.566157 36.323178 
C 220.921423 41.089861 225.795412 46.371207 230.117844 52.091061 
C 234.440276 57.810914 238.190274 63.941649 241.313764 70.394862 
C 244.437253 76.848074 246.919149 83.592597 248.723662 90.531175 
C 250.528176 97.469754 251.646591 104.568876 252.062782 111.726175 
C 252.478972 118.883474 252.190928 126.064381 251.202802 133.165349 
C 250.214676 140.266317 248.53124 147.25305 246.176771 154.024801 
C 243.822301 160.796552 240.808168 167.320615 237.177836 173.502915 
C 229.899766 185.897155 220.25107 196.737256 208.783939 205.402844 
C 197.316808 214.068432 184.254249 220.390984 170.343825 224.008662 
C 156.4334 227.626341 141.945633 228.468792 127.709651 226.487802 
C 113.473669 224.506812 99.766326 219.740907 87.372085 212.462836 
C 74.977845 205.184766 64.137744 195.53607 55.472156 184.068939 
C 46.806568 172.601808 40.484016 159.539249 36.866338 145.628825 
C 33.248659 131.7184 32.406208 117.230633 34.387198 102.994651 
C 36.368188 88.758669 41.134093 75.051326 48.412164 62.657085 
C 55.690234 50.262845 65.33893 39.422744 76.806061 30.757156 
C 88.273192 22.091568 101.335751 15.769016 115.246175 12.151338 
C 129.1566 8.533659 143.644367 7.691208 157.880349 9.672198 
C 172.116331 11.653188 185.823674 16.419093 198.217915 23.697164 
C 210.612155 30.975234 221.452256 40.62393 230.117844 52.091061 
C 238.783432 63.558192 245.105984 76.620751 248.723662 90.531175 
C 252.341341 104.4416 253.183792 118.929367 251.202802 133.165349 
C 249.221812 147.401331 244.455907 161.108674 237.177836 173.502915 
C 233.547504 179.685214 229.318505 185.495891 224.551822 190.851157 
C 219.785139 196.206423 214.503793 201.080412 208.783939 205.402844 
C 203.064086 209.725276 196.933351 213.475274 190.480138 216.598764 
C 184.026926 219.722253 177.282403 222.204149 170.343825 224.008662 
C 163.405246 225.813176 156.306124 226.931591 149.148825 227.347782 
C 141.991526 227.763972 134.810619 227.475928 127.709651 226.487802 
C 120.608683 225.499676 113.62195 223.81624 106.850199 221.461771 
C 100.078448 219.107301 93.554385 216.093168 87.372085 212.462836 
C 81.189786 208.832504 75.379109 204.603505 70.023843 199.836822 
C 64.668577 195.070139 59.794588 189.788793 55.472156 184.068939 
C 51.149724 178.349086 47.399726 172.218351 44.276236 165.765138 
C 41.152747 159.311926 38.670851 152.567403 36.866338 145.628825 
C 35.061824 138.690246 33.943409 131.591124 33.527218 124.433825 
C 33.111028 117.276526 33.399072 110.095619 34.387198 102.994651 
C 35.375324 95.893683 37.05876 88.90695 39.413229 82.135199 
C 41.767699 75.363448 44.781832 68.839385 48.412164 62.657085 
C 52.042496 56.474786 56.271495 50.664109 61.038178 45.308843 
C 65.804861 39.953577 71.086207 35.079588 76.806061 30.757156 
C 82.525914 26.434724 88.656649 22.684726 95.109862 19.561236 
C 101.563074 16.437747 108.307597 13.955851 115.246175 12.151338 
C 122.184754 10.346824 129.283876 9.228409 136.441175 8.812218 
C 143.598474 8.396028 150.779381 8.684072 157.880349 9.672198 
C 164.981317 10.660324 171.96805 12.34376 178.739801 14.698229 
C 185.511552 17.052699 192.035615 20.066832 198.217915 23.697164 
C 204.400214 27.327496 210.210891 31.556495 215.566157 36.323178 
C 220.921423 41.089861 225.795412 46.371207 230.117844 52.091061 
C 234.440276 57.810914 238.190274 63.941649 241.313764 70.394862 
C 244.437253 76.848074 246.919149 83.592597 248.723662 90.531175 
C 250.528176 97.469754 251.646591 104.568876 252.062782 111.726175 
C 252.478972 118.883474 252.190928 126.064381 251.202802 133.165349 
C 250.214676 140.266317 248.53124 147.25305 246.176771 154.024801 
C 243.822301 160.796552 240.808168 167.320615 237.177836 173.502915 
C 229.899766 185.897155 220.25107 196.737256 208.783939 205.402844 
C 197.316808 214.068432 184.254249 220.390984 170.343825 224.008662 
C 156.4334 227.626341 141.945633 228.468792 127.709651 226.487802 
C 113.473669 224.506812 99.766326 219.740907 87.372085 212.462836 
C 74.977845 205.184766 64.137744 195.53607 55.472156 184.068939 
C 46.806568 172.601808 40.484016 159.539249 36.866338 145.628825 
C 33.248659 131.7184 32.406208 117.230633 34.387198 102.994651 
C 36.368188 88.758669 41.134093 75.051326 48.412164 62.657085 
C 55.690234 50.262845 65.33893 39.422744 76.806061 30.757156 
C 88.273192 22.091568 101.335751 15.769016 115.246175 12.151338 
C 129.1566 8.533659 143.644367 7.691208 157.880349 9.672198 
C 172.116331 11.653188 185.823674 16.419093 198.217915 23.697164 
C 210.612155 30.975234 221.452256 40.62393 230.117844 52.091061 
C 238.783432 63.558192 245.105984 76.620751 248.723662 90.531175 
C 252.341341 104.4416 253.183792 118.929367 251.202802 133.165349 
C 249.221812 147.401331 244.455907 161.108674 237.177836 173.502915 
C 229.899766 185.897155 220.25107 196.737256 208.783939 205.402844 
C 197.316808 214.068432 184.254249 220.390984 170.343825 224.008662 
C 156.4334 227.626341 141.945633 228.468792 127.709651 226.487802 
C 113.473669 224.506812 99.766326 219.740907 87.372085 212.462836 
C 74.977845 205.184766 64.137744 195.53607 55.472156 184.068939 
C 46.806568 172.601808 40.484016 159.539249 36.866338 145.628825 
C 33.248659 131.7184 32.406208 117.230633 34.387198 102.994651 
C 36.368188 88.758669 41.134093 75.051326 48.412164 62.657085 
C 55.690234 50.262845 65.33893 39.422744 76.806061 30.757156 
C 88.273192 22.091568 101.335751 15.769016 115.246175 12.151338 
C 129.1566 8.533659 143.644367 7.691208 157.880349 9.672198 
C 172.116331 11.653188 185.823674 16.419093 198.217915 23.697164 
C 210.612155 30.975234 221.452256 40.62393 230.117844 52.091061 
C 238.783432 63.558192 245.105984 76.620751 248.723662 90.531175 
C 252.341341 104.4416 253.183792 118.929367 251.202802 133.165349 
C 249.221812 147.401331 244.455907 161.108674 237.177836 173.502915 
C 229.899766 185.897155 220.25107 196.737256 208.783939 205.402844 
C 197.316808 214.068432 184.254249 220.390984 170.343825 224.008662 
C 156.4334 227.626341 141.945633 228.468792 127.709651 226.487802 
C 113.473669 224.506812 99.766326 219.740907 87.372085 212.462836 
C 74.977845 205.184766 64.137744 195.53607 55.472156 184.068939 
C 46.806568 172.601808 40.484016 159.539249 36.866338 145.628825 
C 33.248659 131.7184 32.406208 117.230633 34.387198 102.994651 
C 36.368188 88.758669 41.134093 75.051326 48.412164 62.657085 
C 55.690234 50.262845 65.33893 39.422744 76.806061 30.757156 
C 88.273192 22.091568 101.335751 15.769016 115.246175 12.151338 
C 129.1566 8.533659 143.644367 7.691208 157.880349 9.672198 
C 172.116331 11.653188 185.823674 16.419093 198.217915 23.697164 
C 210.612155 30.975234 221.452256 40.62393 230.117844 52.091061 
C 238.783432 63.558192 245.105984 76.620751 248.723662 90.531175 
C 252.341341 104.4416 253.183792 118.929367 251.202802 133.165349 
C 249.221812 147.401331 244.455907 161.108674 237.177836 173.502915 
C 229.899766 185.897155 220.25107 196.737256 208.783939 205.402844 
C 197.316808 214.068432 184.254249 220.390984 170.343825 224.008662 
C 156.4334 227.626341 141.945633 228.468792 127.709651 226.487802 
C 113.473669 224.506812 99.766326 219.740907 87.372085 212.462836 
C 74.977845 205.184766 64.137744 195.53607 55.472156 184.068939 
C 46.806568 172.601808 40.484016 159.539249 36.866338 145.628825 
C 33.248659 131.7184 32.406208 117.230633 34.387198 102.994651 
C 36.368188 88.758669 41.134093 75.051326 48.412164 62.657085 
C 55.690234 50.262845 65.33893 39.422744 76.806061 30.757156 
C 88.273192 22.091568 101.335751 15.769016 115.246175 12.151338 
C 129.1566 8.533659 143.644367 7.691208 157.880349 9.672198 
C 172.116331 11.653188 185.823674 16.419093 198.217915 23.697164 
C 210.612155 30.975234 221.452256 40.62393 230.117844 52.091061 
C 238.783432 63.558192 245.105984 76.620751 248.723662 90.531175 
C 252.341341 104.4416 253.183792 118.929367 251.202802 133.165349 
C 249.221812 147.401331 244.455907 161.108674 237.177836 173.502915 
C 229.899766 185.897155 220.25107 196.737256 208.783939 205.402844 
C 197.316808 214.068432 184.254249 220.390984 170.343825 224.008662 
C 156.4334 227.626341 141.945633 228.468792 127.709651 226.487802 
C 113.473669 224.506812 99.766326 219.740907 87.372085 212.462836 
C 74.977845 205.184766 64.137744 195.53607 55.472156 184.068939 
C 46.806568 172.601808 40.484016 159.539249 36.866338 145.628825 
C 33.248659 131.7184 32.406208 117.230633 34.387198 102.994651 
C 36.368188 88.758669 41.134093 75.051326 48.412164 62.657085 
C 55.690234 50.262845 65.33893 39.422744 76.806061 30.757156 
C 88.273192 22.091568 101.335751 15.769016 115.246175 12.151338 
C 129.1566 8.533659 143.644367 7.691208 157.880349 9.672198 
C 172.116331 11.653188 185.823674 16.419093 198.217915 23.697164 
C 210.612155 30.975234 221.452256 40.62393 230.117844 52.091061 
C 238.783432 63.558192 245.105984 76.620751 248.723662 90.531175 
C 252.341341 104.4416 253.183792 118.929367 251.202802 133.165349 
C 249.221812 147.401331 244.455907 161.108674 237.177836 173.502915 
C 229.899766 185.897155 220.25107 196.737256 208.783939 205.402844 
C 197.316808 214.068432 184.254249 220.390984 170.343825 224.008662 
C 156.4334 227.626341 141.945633 228.468792 127.709651 226.487802 
C 113.473669 224.506812 99.766326 219.740907 87.372085 212.462836 
C 74.977845 205.184766 64.137744 195.53607 55.472156 184.068939 
C 46.806568 172.601808 40.484016 159.539249 36.866338 145.628825 
C 33.248659 131.7184 32.406208 117.230633 34.387198 102.994651 
C 36.368188 88.758669 41.134093 75.051326 48.412164 62.657085 
C 55.690234 50.262845 65.33893 39.422744 76.806061 30.757156 
C 88.273192 22.091568 101.335751 15.769016 115.246175 12.151338 
C 129.1566 8.533659 143.644367 7.691208 157.880349 9.672198 
C 172.116331 11.653188 185.823674 16.419093 198.217915 23.697164 
C 210.612155 30.975234 221.452256 40.62393 230.117844 52.091061 
C 238.783432 63.558192 245.105984 76.620751 248.723662 90.531175 
C 252.341341 104.4416 253.183792 118.929367 251.202802 133.165349 
C 249.221812 147.401331 244.455907 161.108674 237.177836 173.502915 
C 233.547504 179.685214 229.318505 185.495891 224.551822 190.851157 
C 219.785139 196.206423 214.503793 201.080412 208.783939 205.402844 
C 203.064086 209.725276 196.933351 213.475274 190.480138 216.598764 
C 184.026926 219.722253 177.282403 222.204149 170.343825 224.008662 
C 163.405246 225.813176 156.306124 226.931591 149.148825 227.347782 
C 141.991526 227.763972 134.810619 227.475928 127.709651 226.487802 
C 120.608683 225.499676 113.62195 223.81624 106.850199 221.461771 
C 100.078448 219.107301 93.554385 216.093168 87.372085 212.462836 
C 81.189786 208.832504 75.379109 204.603505 70.023843 199.836822 
C 64.668577 195.070139 59.794588 189.788793 55.472156 184.068939 
C 51.149724 178.349086 47.399726 172.218351 44.276236 165.765138 
C 41.152747 159.311926 38.670851 152.567403 36.866338 145.628825 
C 35.061824 138.690246 33.943409 131.591124 33.527218 124.433825 
C 33.111028 117.276526 33.399072 110.095619 34.387198 102.994651 
C 35.375324 95.893683 37.05876 88.90695 39.413229 82.135199 
C 41.767699 75.363448 44.781832 68.839385 48.412164 62.657085 
C 52.042496 56.474786 56.271495 50.664109 61.038178 45.308843 
C 65.804861 39.953577 71.086207 35.079588 76.806061 30.757156 
C 82.525914 26.434724 88.656649 22.684726 95.109862 19.561236 
C 101.563074 16.437747 108.307597 13.955851 115.246175 12.151338 
C 122.184754 10.346824 129.283876 9.228409 136.441175 8.812218 
C 143.598474 8.396028 150.779381 8.684072 157.880349 9.672198 
C 164.981317 10.660324 171.96805 12.34376 178.739801 14.698229 
C 185.511552 17.052699 192.035615 20.066832 198.217915 23.697164 
C 204.400214 27.327496 210.210891 31.556495 215.566157 36.323178 
C 220.921423 41.089861 225.795412 46.371207 230.117844 52.091061 
C 234.440276 57.810914 238.190274 63.941649 241.313764 70.394862 
C 244.437253 76.848074 246.919149 83.592597 248.723662 90.531175 
C 250.528176 97.469754 251.646591 104.568876 252.062782 111.726175 
C 252.478972 118.883474 252.190928 126.064381 251.202802 133.165349 
C 250.214676 140.266317 248.53124 147.25305 246.176771 154.024801 
C 243.822301 160.796552 240.808168 167.320615 237.177836 173.502915 
C 229.899766 185.897155 220.25107 196.737256 208.783939 205.402844 
C 197.316808 214.068432 184.254249 220.390984 170.343825 224.008662 
C 156.4334 227.626341 141.945633 228.468792 127.709651 226.487802 
C 113.473669 224.506812 99.766326 219.740907 87.372085 212.462836 
C 74.977845 205.184766 64.137744 195.53607 55.472156 184.068939 
C 46.806568 172.601808 40.484016 159.539249 36.866338 145.628825 
C 33.248659 131.7184 32.406208 117.230633 34.387198 102.994651 
C 36.368188 88.758669 41.134093 75.051326 48.412164 62.657085 
C 55.690234 50.262845 65.33893 39.422744 76.806061 30.757156 
C 88.273192 22.091568 101.335751 15.769016 115.246175 12.151338 
C 129.1566 8.533659 143.644367 7.691208 157.880349 9.672198 
C 172.116331 11.653188 185.823674 16.419093 198.217915 23.697164 
C 210.612155 30.975234 221.452256 40.62393 230.117844 52.091061 
C 238.783432 63.558192 245.105984 76.620751 248.723662 90.531175 
C 252.341341 104.4416 253.183792 118.929367 251.202802 133.165349 
C 249.221812 147.401331 244.455907 161.108674 237.177836 173.502915 
C 229.899766 185.897155 220.25107 196.737256 208.783939 205.402844 
C 197.316808 214.068432 184.254249 220.390984 170.343825 224.008662 
C 156.4334 227.626341 141.945633 228.468792 127.709651 226.487802 
C 113.473669 224.506812 99.766326 219.740907 87.372085 212.462836 
C 74.977845 205.184766 64.137744 195.53607 55.472156 184.068939 
C 46.806568 172.601808 40.484016 159.539249 36.866338 145.628825 
C 33.248659 131.7184 32.406208 117.230633 34.387198 102.994651 
C 36.368188 88.758669 41.134093 75.051326 48.412164 62.657085 
C 55.690234 50.262845 65.33893 39.422744 76.806061 30.757156 
C 88.273192 22.091568 101.335751 15.769016 115.246175 12.151338 
C 129.1566 8.533659 143.644367 7.691208 157.880349 9.672198 
C 172.116331 11.653188 185.823674 16.419093 198.217915 23.697164 
C 210.612155 30.975234 221.452256 40.62393 230.117844 52.091061 
C 238.783432 63.558192 245.105984 76.620751 248.723662 90.531175 
C 252.341341 104.4416 253.183792 118.929367 251.202802 133.165349 
C 249.221812 147.401331 244.455907 161.108674 237.177836 173.502915 
C 229.899766 185.897155 220.25107 196.737256 208.783939 205.402844 
C 197.316808 214.068432 184.254249 220.390984 170.343825 224.008662 
C 156.4334 227.626341 141.945633 228.468792 127.709651 226.487802 
C 113.473669 224.506812 99.766326 219.740907 87.372085 212.462836 
C 74.977845 205.184766 64.137744 195.53607 55.472156 184.068939 
C 46.806568 172.601808 40.484016 159.539249 36.866338 145.628825 
C 33.248659 131.7184 32.406208 117.230633 34.387198 102.994651 
C 36.368188 88.758669 41.134093 75.051326 48.412164 62.657085 
C 55.690234 50.262845 65.33893 39.422744 76.806061 30.757156 
C 88.273192 22.091568 101.335751 15.769016 115.246175 12.151338 
C 129.1566 8.533659 143.644367 7.691208 157.880349 9.672198 
C 172.116331 11.653188 185.823674 16.419093 198.217915 23.697164 
C 210.612155 30.975234 221.452256 40.62393 230.117844 52.091061 
C 238.783432 63.558192 245.105984 76.620751 248.723662 90.531175 
C 252.341341 104.4416 253.183792 118.929367 251.202802 133.165349 
C 249.221812 147.401331 244.455907 161.108674 237.177836 173.502915 
C 229.899766 185.897155 220.25107 196.737256 208.783939 205.402844 
C 197.316808 214.068432 184.254249 220.390984 170.343825 224.008662 
C 156.4334 227.626341 141.945633 228.468792 127.709651 226.487802 
C 113.473669 224.506812 99.766326 219.740907 87.372085 212.462836 
C 74.977845 205.184766 64.137744 195.53607 55.472156 184.068939 
C 46.806568 172.601808 40.484016 159.539249 36.866338 145.628825 
C 33.248659 131.7184 32.406208 117.230633 34.387198 102.994651 
C 36.368188 88.758669 41.134093 75.051326 48.412164 62.657085 
C 55.690234 50.262845 65.33893 39.422744 76.806061 30.757156 
C 88.273192 22.091568 101.335751 15.769016 115.246175 12.151338 
C 129.1566 8.533659 143.644367 7.691208 157.880349 9.672198 
C 172.116331 11.653188 185.823674 16.419093 198.217915 23.697164 
C 210.612155 30.975234 221.452256 40.62393 230.117844 52.091061 
C 238.783432 63.558192 245.105984 76.620751 248.723662 90.531175 
C 252.341341 104.4416 253.183792 118.929367 251.202802 133.165349 
C 249.221812 147.401331 244.455907 161.108674 237.177836 173.502915 
C 230.518236 184.843927 221.868734 194.892321 211.644911 203.165305 
C 201.421087 211.438288 189.789348 217.801208 177.30856 221.948347 
C 164.827772 226.095485 151.701076 227.959342 138.559167 227.450366 
C 125.417258 226.94139 112.474037 224.067864 100.351385 218.967852 
C 88.228732 213.867841 77.123959 206.624353 67.570613 197.585414 
C 58.017267 188.546475 50.170842 177.859206 44.408333 166.037095 
C 38.645823 154.214984 35.061022 141.450451 33.826166 128.35679 
C 32.59131 115.263129 33.726499 102.053456 37.17719 89.362453 
C 40.627882 76.67145 46.337911 64.705679 54.032931 54.040057 
C 61.72795 43.374434 71.282714 34.182557 82.238145 26.906064 
C 93.193577 19.629572 105.371363 14.386898 118.186401 11.429936 
C 131.00144 8.472975 144.245149 7.849854 157.281211 9.590512 
C 170.317274 11.331171 182.933512 15.407278 194.523757 21.622989 
C 206.114001 27.8387 216.489605 36.092847 225.152056 45.988845 
C 233.814506 55.884843 240.622811 67.261622 245.249852 79.572565 
C 249.876893 91.883508 252.247361 104.928239 252.247361 118.08 
z
" clip-path="url(#pa2aec9f4ea)" style="fill: #30363d"/>
   </g>
   <g id="patch_3">
    <path d="M 223.694571 118.08 
C 223.694571 107.456366 221.601947 96.936033 217.536458 87.121075 
C 213.470969 77.306116 207.511679 68.387409 199.999635 60.875365 
C 192.487591 53.363321 183.568884 47.404031 173.753925 43.338542 
C 163.938967 39.273053 153.418634 37.180429 142.795 37.180429 
C 132.171366 37.180429 121.651033 39.273053 111.836075 43.338542 
C 102.021116 47.404031 93.102409 53.363321 85.590365 60.875365 
C 78.078321 68.387409 72.119031 77.306116 68.053542 87.121075 
C 63.988053 96.936033 61.895429 107.456366 61.895429 118.08 
C 61.895429 128.703634 63.988053 139.223967 68.053542 149.038925 
C 72.119031 158.853884 78.078321 167.772591 85.590365 175.284635 
C 93.102409 182.796679 102.021116 188.755969 111.836075 192.821458 
C 121.651033 196.886947 132.171366 198.979571 142.795 198.979571 
C 153.418634 198.979571 163.938967 196.886947 173.753925 192.821458 
C 183.568884 188.755969 192.487591 182.796679 199.999635 175.284635 
C 207.511679 167.772591 213.470969 158.853884 217.536458 149.038925 
C 221.601947 139.223967 223.694571 128.703634 223.694571 118.08 
C 223.694571 107.456366 221.601947 96.936033 217.536458 87.121075 
C 213.470969 77.306116 207.511679 68.387409 199.999635 60.875365 
C 192.487591 53.363321 183.568884 47.404031 173.753925 43.338542 
C 163.938967 39.273053 153.418634 37.180429 142.795 37.180429 
C 132.171366 37.180429 121.651033 39.273053 111.836075 43.338542 
C 102.021116 47.404031 93.102409 53.363321 85.590365 60.875365 
C 78.078321 68.387409 72.119031 77.306116 68.053542 87.121075 
C 63.988053 96.936033 61.895429 107.456366 61.895429 118.08 
C 61.895429 128.703634 63.988053 139.223967 68.053542 149.038925 
C 72.119031 158.853884 78.078321 167.772591 85.590365 175.284635 
C 93.102409 182.796679 102.021116 188.755969 111.836075 192.821458 
C 121.651033 196.886947 132.171366 198.979571 142.795 198.979571 
C 153.418634 198.979571 163.938967 196.886947 173.753925 192.821458 
C 183.568884 188.755969 192.487591 182.796679 199.999635 175.284635 
C 207.511679 167.772591 213.470969 158.853884 217.536458 149.038925 
C 221.601947 139.223967 223.694571 128.703634 223.694571 118.08 
C 223.694571 107.456366 221.601947 96.936033 217.536458 87.121075 
C 213.470969 77.306116 207.511679 68.387409 199.999635 60.875365 
C 192.487591 53.363321 183.568884 47.404031 173.753925 43.338542 
C 163.938967 39.273053 153.418634 37.180429 142.795 37.180429 
C 132.171366 37.180429 121.651033 39.273053 111.836075 43.338542 
C 102.021116 47.404031 93.102409 53.363321 85.590365 60.875365 
C 78.078321 68.387409 72.119031 77.306116 68.053542 87.121075 
C 63.988053 96.936033 61.895429 107.456366 61.895429 118.08 
C 61.895429 128.703634 63.988053 139.223967 68.053542 149.038925 
C 72.119031 158.853884 78.078321 167.772591 85.590365 175.284635 
C 93.102409 182.796679 102.021116 188.755969 111.836075 192.821458 
C 121.651033 196.886947 132.171366 198.979571 142.795 198.979571 
C 153.418634 198.979571 163.938967 196.886947 173.753925 192.821458 
C 183.568884 188.755969 192.487591 182.796679 199.999635 175.284635 
C 207.511679 167.772591 213.470969 158.853884 217.536458 149.038925 
C 221.601947 139.223967 223.694571 128.703634 223.694571 118.08 
C 223.694571 107.456366 221.601947 96.936033 217.536458 87.121075 
C 213.470969 77.306116 207.511679 68.387409 199.999635 60.875365 
C 192.487591 53.363321 183.568884 47.404031 173.753925 43.338542 
C 163.938967 39.273053 153.418634 37.180429 142.795 37.180429 
C 132.171366 37.180429 121.651033 39.273053 111.836075 43.338542 
C 102.021116 47.404031 93.102409 53.363321 85.590365 60.875365 
C 78.078321 68.387409 72.119031 77.306116 68.053542 87.121075 
C 63.988053 96.936033 61.895429 107.456366 61.895429 118.08 
C 61.895429 128.703634 63.988053 139.223967 68.053542 149.038925 
C 72.119031 158.853884 78.078321 167.772591 85.590365 175.284635 
C 93.102409 182.796679 102.021116 188.755969 111.836075 192.821458 
C 121.651033 196.886947 132.171366 198.979571 142.795 198.979571 
C 153.418634 198.979571 163.938967 196.886947 173.753925 192.821458 
C 183.568884 188.755969 192.487591 182.796679 199.999635 175.284635 
C 207.511679 167.772591 213.470969 158.853884 217.536458 149.038925 
C 221.601947 139.223967 223.694571 128.703634 223.694571 118.08 
C 223.694571 107.456366 221.601947 96.936033 217.536458 87.121075 
C 213.470969 77.306116 207.511679 68.387409 199.999635 60.875365 
C 192.487591 53.363321 183.568884 47.404031 173.753925 43.338542 
C 163.938967 39.273053 153.418634 37.180429 142.795 37.180429 
C 132.171366 37.180429 121.651033 39.273053 111.836075 43.338542 
C 102.021116 47.404031 93.102409 53.363321 85.590365 60.875365 
C 78.078321 68.387409 72.119031 77.306116 68.053542 87.121075 
C 63.988053 96.936033 61.895429 107.456366 61.895429 118.08 
C 61.895429 128.703634 63.988053 139.223967 68.053542 149.038925 
C 72.119031 158.853884 78.078321 167.772591 85.590365 175.284635 
C 93.102409 182.796679 102.021116 188.755969 111.836075 192.821458 
C 121.651033 196.886947 132.171366 198.979571 142.795 198.979571 
C 153.418634 198.979571 163.938967 196.886947 173.753925 192.821458 
C 183.568884 188.755969 192.487591 182.796679 199.999635 175.284635 
C 207.511679 167.772591 213.470969 158.853884 217.536458 149.038925 
C 221.601947 139.223967 223.694571 128.703634 223.694571 118.08 
C 223.694571 107.456366 221.601947 96.936033 217.536458 87.121075 
C 213.470969 77.306116 207.511679 68.387409 199.999635 60.875365 
C 192.487591 53.363321 183.568884 47.404031 173.753925 43.338542 
C 163.938967 39.273053 153.418634 37.180429 142.795 37.180429 
C 132.171366 37.180429 121.651033 39.273053 111.836075 43.338542 
C 102.021116 47.404031 93.102409 53.363321 85.590365 60.875365 
C 78.078321 68.387409 72.119031 77.306116 68.053542 87.121075 
C 63.988053 96.936033 61.895429 107.456366 61.895429 118.08 
C 61.895429 128.703634 63.988053 139.223967 68.053542 149.038925 
C 72.119031 158.853884 78.078321 167.772591 85.590365 175.284635 
C 93.102409 182.796679 102.021116 188.755969 111.836075 192.821458 
C 121.651033 196.886947 132.171366 198.979571 142.795 198.979571 
C 153.418634 198.979571 163.938967 196.886947 173.753925 192.821458 
C 183.568884 188.755969 192.487591 182.796679 199.999635 175.284635 
C 207.511679 167.772591 213.470969 158.853884 217.536458 149.038925 
C 221.601947 139.223967 223.694571 128.703634 223.694571 118.08 
C 223.694571 107.456366 221.601947 96.936033 217.536458 87.121075 
C 213.470969 77.306116 207.511679 68.387409 199.999635 60.875365 
C 192.487591 53.363321 183.568884 47.404031 173.753925 43.338542 
C 163.938967 39.273053 153.418634 37.180429 142.795 37.180429 
C 132.171366 37.180429 121.651033 39.273053 111.836075 43.338542 
C 102.021116 47.404031 93.102409 53.363321 85.590365 60.875365 
C 78.078321 68.387409 72.119031 77.306116 68.053542 87.121075 
C 63.988053 96.936033 61.895429 107.456366 61.895429 118.08 
C 61.895429 128.703634 63.988053 139.223967 68.053542 149.038925 
C 72.119031 158.853884 78.078321 167.772591 85.590365 175.284635 
C 93.102409 182.796679 102.021116 188.755969 111.836075 192.821458 
C 121.651033 196.886947 132.171366 198.979571 142.795 198.979571 
C 153.418634 198.979571 163.938967 196.886947 173.753925 192.821458 
C 183.568884 188.755969 192.487591 182.796679 199.999635 175.284635 
C 207.511679 167.772591 213.470969 158.853884 217.536458 149.038925 
C 221.601947 139.223967 223.694571 128.703634 223.694571 118.08 
C 223.694571 107.456366 221.601947 96.936033 217.536458 87.121075 
C 213.470969 77.306116 207.511679 68.387409 199.999635 60.875365 
C 192.487591 53.363321 183.568884 47.404031 173.753925 43.338542 
C 163.938967 39.273053 153.418634 37.180429 142.795 37.180429 
C 132.171366 37.180429 121.651033 39.273053 111.836075 43.338542 
C 102.021116 47.404031 93.102409 53.363321 85.590365 60.875365 
C 78.078321 68.387409 72.119031 77.306116 68.053542 87.121075 
C 63.988053 96.936033 61.895429 107.456366 61.895429 118.08 
C 61.895429 128.703634 63.988053 139.223967 68.053542 149.038925 
C 72.119031 158.853884 78.078321 167.772591 85.590365 175.284635 
C 93.102409 182.796679 102.021116 188.755969 111.836075 192.821458 
C 121.651033 196.886947 132.171366 198.979571 142.795 198.979571 
C 153.418634 198.979571 163.938967 196.886947 173.753925 192.821458 
C 183.568884 188.755969 192.487591 182.796679 199.999635 175.284635 
C 207.511679 167.772591 213.470969 158.853884 217.536458 149.038925 
C 221.601947 139.223967 223.694571 128.703634 223.694571 118.08 
C 223.694571 107.456366 221.601947 96.936033 217.536458 87.121075 
C 213.470969 77.306116 207.511679 68.387409 199.999635 60.875365 
C 192.487591 53.363321 183.568884 47.404031 173.753925 43.338542 
C 163.938967 39.273053 153.418634 37.180429 142.795 37.180429 
C 132.171366 37.180429 121.651033 39.273053 111.836075 43.338542 
C 102.021116 47.404031 93.102409 53.363321 85.590365 60.875365 
C 78.078321 68.387409 72.119031 77.306116 68.053542 87.121075 
C 63.988053 96.936033 61.895429 107.456366 61.895429 118.08 
C 61.895429 128.703634 63.988053 139.223967 68.053542 149.038925 
C 72.119031 158.853884 78.078321 167.772591 85.590365 175.284635 
C 93.102409 182.796679 102.021116 188.755969 111.836075 192.821458 
C 121.651033 196.886947 132.171366 198.979571 142.795 198.979571 
C 153.418634 198.979571 163.938967 196.886947 173.753925 192.821458 
C 183.568884 188.755969 192.487591 182.796679 199.999635 175.284635 
C 207.511679 167.772591 213.470969 158.853884 217.536458 149.038925 
C 221.601947 139.223967 223.694571 128.703634 223.694571 118.08 
C 223.694571 107.456366 221.601947 96.936033 217.536458 87.121075 
C 213.470969 77.306116 207.511679 68.387409 199.999635 60.875365 
C 192.487591 53.363321 183.568884 47.404031 173.753925 43.338542 
C 163.938967 39.273053 153.418634 37.180429 142.795 37.180429 
C 132.171366 37.180429 121.651033 39.273053 111.836075 43.338542 
C 102.021116 47.404031 93.102409 53.363321 85.590365 60.875365 
C 78.078321 68.387409 72.119031 77.306116 68.053542 87.121075 
C 63.988053 96.936033 61.895429 107.456366 61.895429 118.08 
C 61.895429 128.703634 63.988053 139.223967 68.053542 149.038925 
C 72.119031 158.853884 78.078321 167.772591 85.590365 175.284635 
C 93.102409 182.796679 102.021116 188.755969 111.836075 192.821458 
C 121.651033 196.886947 132.171366 198.979571 142.795 198.979571 
C 153.418634 198.979571 163.938967 196.886947 173.753925 192.821458 
C 183.568884 188.755969 192.487591 182.796679 199.999635 175.284635 
C 207.511679 167.772591 213.470969 158.853884 217.536458 149.038925 
C 221.601947 139.223967 223.694571 128.703634 223.694571 118.08 
C 223.694571 112.780886 223.173914 107.494569 222.140108 102.297277 
C 221.106302 97.099984 219.564341 92.016817 217.536458 87.121075 
C 215.508575 82.225332 213.004565 77.540659 210.060535 73.134607 
C 207.116505 68.728555 203.746674 64.622404 199.999635 60.875365 
C 196.252596 57.128326 192.146445 53.758495 187.740393 50.814465 
C 183.334341 47.870435 178.649668 45.366425 173.753925 43.338542 
C 168.858183 41.310659 163.775016 39.768698 158.577723 38.734892 
C 153.380431 37.701086 148.094114 37.180429 142.795 37.180429 
C 137.495886 37.180429 132.209569 37.701086 127.012277 38.734892 
C 121.814984 39.768698 116.731817 41.310659 111.836075 43.338542 
C 106.940332 45.366425 102.255659 47.870435 97.849607 50.814465 
C 93.443555 53.758495 89.337404 57.128326 85.590365 60.875365 
C 81.843326 64.622404 78.473495 68.728555 75.529465 73.134607 
C 72.585435 77.540659 70.081425 82.225332 68.053542 87.121075 
C 66.025659 92.016817 64.483698 97.099984 63.449892 102.297277 
C 62.416086 107.494569 61.895429 112.780886 61.895429 118.08 
C 61.895429 123.379114 62.416086 128.665431 63.449892 133.862723 
C 64.483698 139.060016 66.025659 144.143183 68.053542 149.038925 
C 70.081425 153.934668 72.585435 158.619341 75.529465 163.025393 
C 78.473495 167.431445 81.843326 171.537596 85.590365 175.284635 
C 89.337404 179.031674 93.443555 182.401505 97.849607 185.345535 
C 102.255659 188.289565 106.940332 190.793575 111.836075 192.821458 
C 116.731817 194.849341 121.814984 196.391302 127.012277 197.425108 
C 132.209569 198.458914 137.495886 198.979571 142.795 198.979571 
C 148.094114 198.979571 153.380431 198.458914 158.577723 197.425108 
C 163.775016 196.391302 168.858183 194.849341 173.753925 192.821458 
C 178.649668 190.793575 183.334341 188.289565 187.740393 185.345535 
C 192.146445 182.401505 196.252596 179.031674 199.999635 175.284635 
C 203.746674 171.537596 207.116505 167.431445 210.060535 163.025393 
C 213.004565 158.619341 215.508575 153.934668 217.536458 149.038925 
C 219.564341 144.143183 221.106302 139.060016 222.140108 133.862723 
C 223.173914 128.665431 223.694571 123.379114 223.694571 118.08 
C 223.694571 107.456366 221.601947 96.936033 217.536458 87.121075 
C 213.470969 77.306116 207.511679 68.387409 199.999635 60.875365 
C 192.487591 53.363321 183.568884 47.404031 173.753925 43.338542 
C 163.938967 39.273053 153.418634 37.180429 142.795 37.180429 
C 132.171366 37.180429 121.651033 39.273053 111.836075 43.338542 
C 102.021116 47.404031 93.102409 53.363321 85.590365 60.875365 
C 78.078321 68.387409 72.119031 77.306116 68.053542 87.121075 
C 63.988053 96.936033 61.895429 107.456366 61.895429 118.08 
C 61.895429 128.703634 63.988053 139.223967 68.053542 149.038925 
C 72.119031 158.853884 78.078321 167.772591 85.590365 175.284635 
C 93.102409 182.796679 102.021116 188.755969 111.836075 192.821458 
C 121.651033 196.886947 132.171366 198.979571 142.795 198.979571 
C 153.418634 198.979571 163.938967 196.886947 173.753925 192.821458 
C 183.568884 188.755969 192.487591 182.796679 199.999635 175.284635 
C 207.511679 167.772591 213.470969 158.853884 217.536458 149.038925 
C 221.601947 139.223967 223.694571 128.703634 223.694571 118.08 
C 223.694571 112.780886 223.173914 107.494569 222.140108 102.297277 
C 221.106302 97.099984 219.564341 92.016817 217.536458 87.121075 
C 215.508575 82.225332 213.004565 77.540659 210.060535 73.134607 
C 207.116505 68.728555 203.746674 64.622404 199.999635 60.875365 
C 196.252596 57.128326 192.146445 53.758495 187.740393 50.814465 
C 183.334341 47.870435 178.649668 45.366425 173.753925 43.338542 
C 168.858183 41.310659 163.775016 39.768698 158.577723 38.734892 
C 153.380431 37.701086 148.094114 37.180429 142.795 37.180429 
C 137.495886 37.180429 132.209569 37.701086 127.012277 38.734892 
C 121.814984 39.768698 116.731817 41.310659 111.836075 43.338542 
C 106.940332 45.366425 102.255659 47.870435 97.849607 50.814465 
C 93.443555 53.758495 89.337404 57.128326 85.590365 60.875365 
C 81.843326 64.622404 78.473495 68.728555 75.529465 73.134607 
C 72.585435 77.540659 70.081425 82.225332 68.053542 87.121075 
C 66.025659 92.016817 64.483698 97.099984 63.449892 102.297277 
C 62.416086 107.494569 61.895429 112.780886 61.895429 118.08 
C 61.895429 123.379114 62.416086 128.665431 63.449892 133.862723 
C 64.483698 139.060016 66.025659 144.143183 68.053542 149.038925 
C 70.081425 153.934668 72.585435 158.619341 75.529465 163.025393 
C 78.473495 167.431445 81.843326 171.537596 85.590365 175.284635 
C 89.337404 179.031674 93.443555 182.401505 97.849607 185.345535 
C 102.255659 188.289565 106.940332 190.793575 111.836075 192.821458 
C 116.731817 194.849341 121.814984 196.391302 127.012277 197.425108 
C 132.209569 198.458914 137.495886 198.979571 142.795 198.979571 
C 148.094114 198.979571 153.380431 198.458914 158.577723 197.425108 
C 163.775016 196.391302 168.858183 194.849341 173.753925 192.821458 
C 178.649668 190.793575 183.334341 188.289565 187.740393 185.345535 
C 192.146445 182.401505 196.252596 179.031674 199.999635 175.284635 
C 203.746674 171.537596 207.116505 167.431445 210.060535 163.025393 
C 213.004565 158.619341 215.508575 153.934668 217.536458 149.038925 
C 219.564341 144.143183 221.106302 139.060016 222.140108 133.862723 
C 223.173914 128.665431 223.694571 123.379114 223.694571 118.08 
C 223.694571 107.456366 221.601947 96.936033 217.536458 87.121075 
C 213.470969 77.306116 207.511679 68.387409 199.999635 60.875365 
C 192.487591 53.363321 183.568884 47.404031 173.753925 43.338542 
C 163.938967 39.273053 153.418634 37.180429 142.795 37.180429 
C 132.171366 37.180429 121.651033 39.273053 111.836075 43.338542 
C 102.021116 47.404031 93.102409 53.363321 85.590365 60.875365 
C 78.078321 68.387409 72.119031 77.306116 68.053542 87.121075 
C 63.988053 96.936033 61.895429 107.456366 61.895429 118.08 
C 61.895429 128.703634 63.988053 139.223967 68.053542 149.038925 
C 72.119031 158.853884 78.078321 167.772591 85.590365 175.284635 
C 93.102409 182.796679 102.021116 188.755969 111.836075 192.821458 
C 121.651033 196.886947 132.171366 198.979571 142.795 198.979571 
C 153.418634 198.979571 163.938967 196.886947 173.753925 192.821458 
C 183.568884 188.755969 192.487591 182.796679 199.999635 175.284635 
C 207.511679 167.772591 213.470969 158.853884 217.536458 149.038925 
C 221.601947 139.223967 223.694571 128.703634 223.694571 118.08 
C 223.694571 112.780886 223.173914 107.494569 222.140108 102.297277 
C 221.106302 97.099984 219.564341 92.016817 217.536458 87.121075 
C 215.508575 82.225332 213.004565 77.540659 210.060535 73.134607 
C 207.116505 68.728555 203.746674 64.622404 199.999635 60.875365 
C 196.252596 57.128326 192.146445 53.758495 187.740393 50.814465 
C 183.334341 47.870435 178.649668 45.366425 173.753925 43.338542 
C 168.858183 41.310659 163.775016 39.768698 158.577723 38.734892 
C 153.380431 37.701086 148.094114 37.180429 142.795 37.180429 
C 137.495886 37.180429 132.209569 37.701086 127.012277 38.734892 
C 121.814984 39.768698 116.731817 41.310659 111.836075 43.338542 
C 106.940332 45.366425 102.255659 47.870435 97.849607 50.814465 
C 93.443555 53.758495 89.337404 57.128326 85.590365 60.875365 
C 81.843326 64.622404 78.473495 68.728555 75.529465 73.134607 
C 72.585435 77.540659 70.081425 82.225332 68.053542 87.121075 
C 66.025659 92.016817 64.483698 97.099984 63.449892 102.297277 
C 62.416086 107.494569 61.895429 112.780886 61.895429 118.08 
C 61.895429 123.379114 62.416086 128.665431 63.449892 133.862723 
C 64.483698 139.060016 66.025659 144.143183 68.053542 149.038925 
C 70.081425 153.934668 72.585435 158.619341 75.529465 163.025393 
C 78.473495 167.431445 81.843326 171.537596 85.590365 175.284635 
C 89.337404 179.031674 93.443555 182.401505 97.849607 185.345535 
C 102.255659 188.289565 106.940332 190.793575 111.836075 192.821458 
C 116.731817 194.849341 121.814984 196.391302 127.012277 197.425108 
C 132.209569 198.458914 137.495886 198.979571 142.795 198.979571 
C 148.094114 198.979571 153.380431 198.458914 158.577723 197.425108 
C 163.775016 196.391302 168.858183 194.849341 173.753925 192.821458 
C 178.649668 190.793575 183.334341 188.289565 187.740393 185.345535 
C 192.146445 182.401505 196.252596 179.031674 199.999635 175.284635 
C 203.746674 171.537596 207.116505 167.431445 210.060535 163.025393 
C 213.004565 158.619341 215.508575 153.934668 217.536458 149.038925 
C 219.564341 144.143183 221.106302 139.060016 222.140108 133.862723 
C 223.173914 128.665431 223.694571 123.379114 223.694571 118.08 
C 223.694571 108.359133 221.942486 98.717376 218.522499 89.617983 
C 215.102512 80.51859 210.070287 72.109667 203.667606 64.795233 
C 197.264926 57.4808 189.596001 51.379909 181.029298 46.785688 
C 172.462596 42.191466 163.137551 39.178692 153.5022 37.892118 
C 143.866849 36.605544 134.078021 37.066112 124.606036 39.251692 
C 115.134051 41.437272 106.133078 45.312292 98.035586 50.690569 
C 89.938093 56.068846 82.875876 62.862843 77.188253 70.746129 
C 71.50063 78.629415 67.280174 87.47368 64.729662 96.853987 
C 62.179151 106.234293 61.340099 115.997965 62.252818 125.675888 
C 63.165538 135.353811 65.815174 144.788466 70.07442 153.526548 
C 74.333666 162.26463 80.133198 170.163916 87.194366 176.844871 
C 94.255535 183.525826 102.463411 188.879708 111.423632 192.649282 
C 120.383854 196.418856 129.950582 198.542766 139.664167 198.918966 
C 149.377752 199.295166 159.080092 197.917532 168.305022 194.852256 
C 177.529953 191.78698 186.127325 187.083952 193.684064 180.969138 
C 201.240803 174.854324 207.633914 167.42725 212.556227 159.044763 
L 237.177836 173.502915 
C 229.899766 185.897155 220.25107 196.737256 208.783939 205.402844 
C 197.316808 214.068432 184.254249 220.390984 170.343825 224.008662 
C 156.4334 227.626341 141.945633 228.468792 127.709651 226.487802 
C 113.473669 224.506812 99.766326 219.740907 87.372085 212.462836 
C 74.977845 205.184766 64.137744 195.53607 55.472156 184.068939 
C 46.806568 172.601808 40.484016 159.539249 36.866338 145.628825 
C 33.248659 131.7184 32.406208 117.230633 34.387198 102.994651 
C 36.368188 88.758669 41.134093 75.051326 48.412164 62.657085 
C 55.690234 50.262845 65.33893 39.422744 76.806061 30.757156 
C 88.273192 22.091568 101.335751 15.769016 115.246175 12.151338 
C 129.1566 8.533659 143.644367 7.691208 157.880349 9.672198 
C 172.116331 11.653188 185.823674 16.419093 198.217915 23.697164 
C 210.612155 30.975234 221.452256 40.62393 230.117844 52.091061 
C 238.783432 63.558192 245.105984 76.620751 248.723662 90.531175 
C 252.341341 104.4416 253.183792 118.929367 251.202802 133.165349 
C 249.221812 147.401331 244.455907 161.108674 237.177836 173.502915 
C 233.547504 179.685214 229.318505 185.495891 224.551822 190.851157 
C 219.785139 196.206423 214.503793 201.080412 208.783939 205.402844 
C 203.064086 209.725276 196.933351 213.475274 190.480138 216.598764 
C 184.026926 219.722253 177.282403 222.204149 170.343825 224.008662 
C 163.405246 225.813176 156.306124 226.931591 149.148825 227.347782 
C 141.991526 227.763972 134.810619 227.475928 127.709651 226.487802 
C 120.608683 225.499676 113.62195 223.81624 106.850199 221.461771 
C 100.078448 219.107301 93.554385 216.093168 87.372085 212.462836 
C 81.189786 208.832504 75.379109 204.603505 70.023843 199.836822 
C 64.668577 195.070139 59.794588 189.788793 55.472156 184.068939 
C 51.149724 178.349086 47.399726 172.218351 44.276236 165.765138 
C 41.152747 159.311926 38.670851 152.567403 36.866338 145.628825 
C 35.061824 138.690246 33.943409 131.591124 33.527218 124.433825 
C 33.111028 117.276526 33.399072 110.095619 34.387198 102.994651 
C 35.375324 95.893683 37.05876 88.90695 39.413229 82.135199 
C 41.767699 75.363448 44.781832 68.839385 48.412164 62.657085 
C 52.042496 56.474786 56.271495 50.664109 61.038178 45.308843 
C 65.804861 39.953577 71.086207 35.079588 76.806061 30.757156 
C 82.525914 26.434724 88.656649 22.684726 95.109862 19.561236 
C 101.563074 16.437747 108.307597 13.955851 115.246175 12.151338 
C 122.184754 10.346824 129.283876 9.228409 136.441175 8.812218 
C 143.598474 8.396028 150.779381 8.684072 157.880349 9.672198 
C 164.981317 10.660324 171.96805 12.34376 178.739801 14.698229 
C 185.511552 17.052699 192.035615 20.066832 198.217915 23.697164 
C 204.400214 27.327496 210.210891 31.556495 215.566157 36.323178 
C 220.921423 41.089861 225.795412 46.371207 230.117844 52.091061 
C 234.440276 57.810914 238.190274 63.941649 241.313764 70.394862 
C 244.437253 76.848074 246.919149 83.592597 248.723662 90.531175 
C 250.528176 97.469754 251.646591 104.568876 252.062782 111.726175 
C 252.478972 118.883474 252.190928 126.064381 251.202802 133.165349 
C 250.214676 140.266317 248.53124 147.25305 246.176771 154.024801 
C 243.822301 160.796552 240.808168 167.320615 237.177836 173.502915 
C 229.899766 185.897155 220.25107 196.737256 208.783939 205.402844 
C 197.316808 214.068432 184.254249 220.390984 170.343825 224.008662 
C 156.4334 227.626341 141.945633 228.468792 127.709651 226.487802 
C 113.473669 224.506812 99.766326 219.740907 87.372085 212.462836 
C 74.977845 205.184766 64.137744 195.53607 55.472156 184.068939 
C 46.806568 172.601808 40.484016 159.539249 36.866338 145.628825 
C 33.248659 131.7184 32.406208 117.230633 34.387198 102.994651 
C 36.368188 88.758669 41.134093 75.051326 48.412164 62.657085 
C 55.690234 50.262845 65.33893 39.422744 76.806061 30.757156 
C 88.273192 22.091568 101.335751 15.769016 115.246175 12.151338 
C 129.1566 8.533659 143.644367 7.691208 157.880349 9.672198 
C 172.116331 11.653188 185.823674 16.419093 198.217915 23.697164 
C 210.612155 30.975234 221.452256 40.62393 230.117844 52.091061 
C 238.783432 63.558192 245.105984 76.620751 248.723662 90.531175 
C 252.341341 104.4416 253.183792 118.929367 251.202802 133.165349 
C 249.221812 147.401331 244.455907 161.108674 237.177836 173.502915 
C 233.547504 179.685214 229.318505 185.495891 224.551822 190.851157 
C 219.785139 196.206423 214.503793 201.080412 208.783939 205.402844 
C 203.064086 209.725276 196.933351 213.475274 190.480138 216.598764 
C 184.026926 219.722253 177.282403 222.204149 170.343825 224.008662 
C 163.405246 225.813176 156.306124 226.931591 149.148825 227.347782 
C 141.991526 227.763972 134.810619 227.475928 127.709651 226.487802 
C 120.608683 225.499676 113.62195 223.81624 106.850199 221.461771 
C 100.078448 219.107301 93.554385 216.093168 87.372085 212.462836 
C 81.189786 208.832504 75.379109 204.603505 70.023843 199.836822 
C 64.668577 195.070139 59.794588 189.788793 55.472156 184.068939 
C 51.149724 178.349086 47.399726 172.218351 44.276236 165.765138 
C 41.152747 159.311926 38.670851 152.567403 36.866338 145.628825 
C 35.061824 138.690246 33.943409 131.591124 33.527218 124.433825 
C 33.111028 117.276526 33.399072 110.095619 34.387198 102.994651 
C 35.375324 95.893683 37.05876 88.90695 39.413229 82.135199 
C 41.767699 75.363448 44.781832 68.839385 48.412164 62.657085 
C 52.042496 56.474786 56.271495 50.664109 61.038178 45.308843 
C 65.804861 39.953577 71.086207 35.079588 76.806061 30.757156 
C 82.525914 26.434724 88.656649 22.684726 95.109862 19.561236 
C 101.563074 16.437747 108.307597 13.955851 115.246175 12.151338 
C 122.184754 10.346824 129.283876 9.228409 136.441175 8.812218 
C 143.598474 8.396028 150.779381 8.684072 157.880349 9.672198 
C 164.981317 10.660324 171.96805 12.34376 178.739801 14.698229 
C 185.511552 17.052699 192.035615 20.066832 198.217915 23.697164 
C 204.400214 27.327496 210.210891 31.556495 215.566157 36.323178 
C 220.921423 41.089861 225.795412 46.371207 230.117844 52.091061 
C 234.440276 57.810914 238.190274 63.941649 241.313764 70.394862 
C 244.437253 76.848074 246.919149 83.592597 248.723662 90.531175 
C 250.528176 97.469754 251.646591 104.568876 252.062782 111.726175 
C 252.478972 118.883474 252.190928 126.064381 251.202802 133.165349 
C 250.214676 140.266317 248.53124 147.25305 246.176771 154.024801 
C 243.822301 160.796552 240.808168 167.320615 237.177836 173.502915 
C 229.899766 185.897155 220.25107 196.737256 208.783939 205.402844 
C 197.316808 214.068432 184.254249 220.390984 170.343825 224.008662 
C 156.4334 227.626341 141.945633 228.468792 127.709651 226.487802 
C 113.473669 224.506812 99.766326 219.740907 87.372085 212.462836 
C 74.977845 205.184766 64.137744 195.53607 55.472156 184.068939 
C 46.806568 172.601808 40.484016 159.539249 36.866338 145.628825 
C 33.248659 131.7184 32.406208 117.230633 34.387198 102.994651 
C 36.368188 88.758669 41.134093 75.051326 48.412164 62.657085 
C 55.690234 50.262845 65.33893 39.422744 76.806061 30.757156 
C 88.273192 22.091568 101.335751 15.769016 115.246175 12.151338 
C 129.1566 8.533659 143.644367 7.691208 157.880349 9.672198 
C 172.116331 11.653188 185.823674 16.419093 198.217915 23.697164 
C 210.612155 30.975234 221.452256 40.62393 230.117844 52.091061 
C 238.783432 63.558192 245.105984 76.620751 248.723662 90.531175 
C 252.341341 104.4416 253.183792 118.929367 251.202802 133.165349 
C 249.221812 147.401331 244.455907 161.108674 237.177836 173.502915 
C 229.899766 185.897155 220.25107 196.737256 208.783939 205.402844 
C 197.316808 214.068432 184.254249 220.390984 170.343825 224.008662 
C 156.4334 227.626341 141.945633 228.468792 127.709651 226.487802 
C 113.473669 224.506812 99.766326 219.740907 87.372085 212.462836 
C 74.977845 205.184766 64.137744 195.53607 55.472156 184.068939 
C 46.806568 172.601808 40.484016 159.539249 36.866338 145.628825 
C 33.248659 131.7184 32.406208 117.230633 34.387198 102.994651 
C 36.368188 88.758669 41.134093 75.051326 48.412164 62.657085 
C 55.690234 50.262845 65.33893 39.422744 76.806061 30.757156 
C 88.273192 22.091568 101.335751 15.769016 115.246175 12.151338 
C 129.1566 8.533659 143.644367 7.691208 157.880349 9.672198 
C 172.116331 11.653188 185.823674 16.419093 198.217915 23.697164 
C 210.612155 30.975234 221.452256 40.62393 230.117844 52.091061 
C 238.783432 63.558192 245.105984 76.620751 248.723662 90.531175 
C 252.341341 104.4416 253.183792 118.929367 251.202802 133.165349 
C 249.221812 147.401331 244.455907 161.108674 237.177836 173.502915 
C 229.899766 185.897155 220.25107 196.737256 208.783939 205.402844 
C 197.316808 214.068432 184.254249 220.390984 170.343825 224.008662 
C 156.4334 227.626341 141.945633 228.468792 127.709651 226.487802 
C 113.473669 224.506812 99.766326 219.740907 87.372085 212.462836 
C 74.977845 205.184766 64.137744 195.53607 55.472156 184.068939 
C 46.806568 172.601808 40.484016 159.539249 36.866338 145.628825 
C 33.248659 131.7184 32.406208 117.230633 34.387198 102.994651 
C 36.368188 88.758669 41.134093 75.051326 48.412164 62.657085 
C 55.690234 50.262845 65.33893 39.422744 76.806061 30.757156 
C 88.273192 22.091568 101.335751 15.769016 115.246175 12.151338 
C 129.1566 8.533659 143.644367 7.691208 157.880349 9.672198 
C 172.116331 11.653188 185.823674 16.419093 198.217915 23.697164 
C 210.612155 30.975234 221.452256 40.62393 230.117844 52.091061 
C 238.783432 63.558192 245.105984 76.620751 248.723662 90.531175 
C 252.341341 104.4416 253.183792 118.929367 251.202802 133.165349 
C 249.221812 147.401331 244.455907 161.108674 237.177836 173.502915 
C 229.899766 185.897155 220.25107 196.737256 208.783939 205.402844 
C 197.316808 214.068432 184.254249 220.390984 170.343825 224.008662 
C 156.4334 227.626341 141.945633 228.468792 127.709651 226.487802 
C 113.473669 224.506812 99.766326 219.740907 87.372085 212.462836 
C 74.977845 205.184766 64.137744 195.53607 55.472156 184.068939 
C 46.806568 172.601808 40.484016 159.539249 36.866338 145.628825 
C 33.248659 131.7184 32.406208 117.230633 34.387198 102.994651 
C 36.368188 88.758669 41.134093 75.051326 48.412164 62.657085 
C 55.690234 50.262845 65.33893 39.422744 76.806061 30.757156 
C 88.273192 22.091568 101.335751 15.769016 115.246175 12.151338 
C 129.1566 8.533659 143.644367 7.691208 157.880349 9.672198 
C 172.116331 11.653188 185.823674 16.419093 198.217915 23.697164 
C 210.612155 30.975234 221.452256 40.62393 230.117844 52.091061 
C 238.783432 63.558192 245.105984 76.620751 248.723662 90.531175 
C 252.341341 104.4416 253.183792 118.929367 251.202802 133.165349 
C 249.221812 147.401331 244.455907 161.108674 237.177836 173.502915 
C 229.899766 185.897155 220.25107 196.737256 208.783939 205.402844 
C 197.316808 214.068432 184.254249 220.390984 170.343825 224.008662 
C 156.4334 227.626341 141.945633 228.468792 127.709651 226.487802 
C 113.473669 224.506812 99.766326 219.740907 87.372085 212.462836 
C 74.977845 205.184766 64.137744 195.53607 55.472156 184.068939 
C 46.806568 172.601808 40.484016 159.539249 36.866338 145.628825 
C 33.248659 131.7184 32.406208 117.230633 34.387198 102.994651 
C 36.368188 88.758669 41.134093 75.051326 48.412164 62.657085 
C 55.690234 50.262845 65.33893 39.422744 76.806061 30.757156 
C 88.273192 22.091568 101.335751 15.769016 115.246175 12.151338 
C 129.1566 8.533659 143.644367 7.691208 157.880349 9.672198 
C 172.116331 11.653188 185.823674 16.419093 198.217915 23.697164 
C 210.612155 30.975234 221.452256 40.62393 230.117844 52.091061 
C 238.783432 63.558192 245.105984 76.620751 248.723662 90.531175 
C 252.341341 104.4416 253.183792 118.929367 251.202802 133.165349 
C 249.221812 147.401331 244.455907 161.108674 237.177836 173.502915 
C 229.899766 185.897155 220.25107 196.737256 208.783939 205.402844 
C 197.316808 214.068432 184.254249 220.390984 170.343825 224.008662 
C 156.4334 227.626341 141.945633 228.468792 127.709651 226.487802 
C 113.473669 224.506812 99.766326 219.740907 87.372085 212.462836 
C 74.977845 205.184766 64.137744 195.53607 55.472156 184.068939 
C 46.806568 172.601808 40.484016 159.539249 36.866338 145.628825 
C 33.248659 131.7184 32.406208 117.230633 34.387198 102.994651 
C 36.368188 88.758669 41.134093 75.051326 48.412164 62.657085 
C 55.690234 50.262845 65.33893 39.422744 76.806061 30.757156 
C 88.273192 22.091568 101.335751 15.769016 115.246175 12.151338 
C 129.1566 8.533659 143.644367 7.691208 157.880349 9.672198 
C 172.116331 11.653188 185.823674 16.419093 198.217915 23.697164 
C 210.612155 30.975234 221.452256 40.62393 230.117844 52.091061 
C 238.783432 63.558192 245.105984 76.620751 248.723662 90.531175 
C 252.341341 104.4416 253.183792 118.929367 251.202802 133.165349 
C 249.221812 147.401331 244.455907 161.108674 237.177836 173.502915 
C 233.547504 179.685214 229.318505 185.495891 224.551822 190.851157 
C 219.785139 196.206423 214.503793 201.080412 208.783939 205.402844 
C 203.064086 209.725276 196.933351 213.475274 190.480138 216.598764 
C 184.026926 219.722253 177.282403 222.204149 170.343825 224.008662 
C 163.405246 225.813176 156.306124 226.931591 149.148825 227.347782 
C 141.991526 227.763972 134.810619 227.475928 127.709651 226.487802 
C 120.608683 225.499676 113.62195 223.81624 106.850199 221.461771 
C 100.078448 219.107301 93.554385 216.093168 87.372085 212.462836 
C 81.189786 208.832504 75.379109 204.603505 70.023843 199.836822 
C 64.668577 195.070139 59.794588 189.788793 55.472156 184.068939 
C 51.149724 178.349086 47.399726 172.218351 44.276236 165.765138 
C 41.152747 159.311926 38.670851 152.567403 36.866338 145.628825 
C 35.061824 138.690246 33.943409 131.591124 33.527218 124.433825 
C 33.111028 117.276526 33.399072 110.095619 34.387198 102.994651 
C 35.375324 95.893683 37.05876 88.90695 39.413229 82.135199 
C 41.767699 75.363448 44.781832 68.839385 48.412164 62.657085 
C 52.042496 56.474786 56.271495 50.664109 61.038178 45.308843 
C 65.804861 39.953577 71.086207 35.079588 76.806061 30.757156 
C 82.525914 26.434724 88.656649 22.684726 95.109862 19.561236 
C 101.563074 16.437747 108.307597 13.955851 115.246175 12.151338 
C 122.184754 10.346824 129.283876 9.228409 136.441175 8.812218 
C 143.598474 8.396028 150.779381 8.684072 157.880349 9.672198 
C 164.981317 10.660324 171.96805 12.34376 178.739801 14.698229 
C 185.511552 17.052699 192.035615 20.066832 198.217915 23.697164 
C 204.400214 27.327496 210.210891 31.556495 215.566157 36.323178 
C 220.921423 41.089861 225.795412 46.371207 230.117844 52.091061 
C 234.440276 57.810914 238.190274 63.941649 241.313764 70.394862 
C 244.437253 76.848074 246.919149 83.592597 248.723662 90.531175 
C 250.528176 97.469754 251.646591 104.568876 252.062782 111.726175 
C 252.478972 118.883474 252.190928 126.064381 251.202802 133.165349 
C 250.214676 140.266317 248.53124 147.25305 246.176771 154.024801 
C 243.822301 160.796552 240.808168 167.320615 237.177836 173.502915 
C 229.899766 185.897155 220.25107 196.737256 208.783939 205.402844 
C 197.316808 214.068432 184.254249 220.390984 170.343825 224.008662 
C 156.4334 227.626341 141.945633 228.468792 127.709651 226.487802 
C 113.473669 224.506812 99.766326 219.740907 87.372085 212.462836 
C 74.977845 205.184766 64.137744 195.53607 55.472156 184.068939 
C 46.806568 172.601808 40.484016 159.539249 36.866338 145.628825 
C 33.248659 131.7184 32.406208 117.230633 34.387198 102.994651 
C 36.368188 88.758669 41.134093 75.051326 48.412164 62.657085 
C 55.690234 50.262845 65.33893 39.422744 76.806061 30.757156 
C 88.273192 22.091568 101.335751 15.769016 115.246175 12.151338 
C 129.1566 8.533659 143.644367 7.691208 157.880349 9.672198 
C 172.116331 11.653188 185.823674 16.419093 198.217915 23.697164 
C 210.612155 30.975234 221.452256 40.62393 230.117844 52.091061 
C 238.783432 63.558192 245.105984 76.620751 248.723662 90.531175 
C 252.341341 104.4416 253.183792 118.929367 251.202802 133.165349 
C 249.221812 147.401331 244.455907 161.108674 237.177836 173.502915 
C 229.899766 185.897155 220.25107 196.737256 208.783939 205.402844 
C 197.316808 214.068432 184.254249 220.390984 170.343825 224.008662 
C 156.4334 227.626341 141.945633 228.468792 127.709651 226.487802 
C 113.473669 224.506812 99.766326 219.740907 87.372085 212.462836 
C 74.977845 205.184766 64.137744 195.53607 55.472156 184.068939 
C 46.806568 172.601808 40.484016 159.539249 36.866338 145.628825 
C 33.248659 131.7184 32.406208 117.230633 34.387198 102.994651 
C 36.368188 88.758669 41.134093 75.051326 48.412164 62.657085 
C 55.690234 50.262845 65.33893 39.422744 76.806061 30.757156 
C 88.273192 22.091568 101.335751 15.769016 115.246175 12.151338 
C 129.1566 8.533659 143.644367 7.691208 157.880349 9.672198 
C 172.116331 11.653188 185.823674 16.419093 198.217915 23.697164 
C 210.612155 30.975234 221.452256 40.62393 230.117844 52.091061 
C 238.783432 63.558192 245.105984 76.620751 248.723662 90.531175 
C 252.341341 104.4416 253.183792 118.929367 251.202802 133.165349 
C 249.221812 147.401331 244.455907 161.108674 237.177836 173.502915 
C 229.899766 185.897155 220.25107 196.737256 208.783939 205.402844 
C 197.316808 214.068432 184.254249 220.390984 170.343825 224.008662 
C 156.4334 227.626341 141.945633 228.468792 127.709651 226.487802 
C 113.473669 224.506812 99.766326 219.740907 87.372085 212.462836 
C 74.977845 205.184766 64.137744 195.53607 55.472156 184.068939 
C 46.806568 172.601808 40.484016 159.539249 36.866338 145.628825 
C 33.248659 131.7184 32.406208 117.230633 34.387198 102.994651 
C 36.368188 88.758669 41.134093 75.051326 48.412164 62.657085 
C 55.690234 50.262845 65.33893 39.422744 76.806061 30.757156 
C 88.273192 22.091568 101.335751 15.769016 115.246175 12.151338 
C 129.1566 8.533659 143.644367 7.691208 157.880349 9.672198 
C 172.116331 11.653188 185.823674 16.419093 198.217915 23.697164 
C 210.612155 30.975234 221.452256 40.62393 230.117844 52.091061 
C 238.783432 63.558192 245.105984 76.620751 248.723662 90.531175 
C 252.341341 104.4416 253.183792 118.929367 251.202802 133.165349 
C 249.221812 147.401331 244.455907 161.108674 237.177836 173.502915 
C 229.899766 185.897155 220.25107 196.737256 208.783939 205.402844 
C 197.316808 214.068432 184.254249 220.390984 170.343825 224.008662 
C 156.4334 227.626341 141.945633 228.468792 127.709651 226.487802 
C 113.473669 224.506812 99.766326 219.740907 87.372085 212.462836 
C 74.977845 205.184766 64.137744 195.53607 55.472156 184.068939 
C 46.806568 172.601808 40.484016 159.539249 36.866338 145.628825 
C 33.248659 131.7184 32.406208 117.230633 34.387198 102.994651 
C 36.368188 88.758669 41.134093 75.051326 48.412164 62.657085 
C 55.690234 50.262845 65.33893 39.422744 76.806061 30.757156 
C 88.273192 22.091568 101.335751 15.769016 115.246175 12.151338 
C 129.1566 8.533659 143.644367 7.691208 157.880349 9.672198 
C 172.116331 11.653188 185.823674 16.419093 198.217915 23.697164 
C 210.612155 30.975234 221.452256 40.62393 230.117844 52.091061 
C 238.783432 63.558192 245.105984 76.620751 248.723662 90.531175 
C 252.341341 104.4416 253.183792 118.929367 251.202802 133.165349 
C 249.221812 147.401331 244.455907 161.108674 237.177836 173.502915 
C 230.518236 184.843927 221.868734 194.892321 211.644911 203.165305 
C 201.421087 211.438288 189.789348 217.801208 177.30856 221.948347 
C 164.827772 226.095485 151.701076 227.959342 138.559167 227.450366 
C 125.417258 226.94139 112.474037 224.067864 100.351385 218.967852 
C 88.228732 213.867841 77.123959 206.624353 67.570613 197.585414 
C 58.017267 188.546475 50.170842 177.859206 44.408333 166.037095 
C 38.645823 154.214984 35.061022 141.450451 33.826166 128.35679 
C 32.59131 115.263129 33.726499 102.053456 37.17719 89.362453 
C 40.627882 76.67145 46.337911 64.705679 54.032931 54.040057 
C 61.72795 43.374434 71.282714 34.182557 82.238145 26.906064 
C 93.193577 19.629572 105.371363 14.386898 118.186401 11.429936 
C 131.00144 8.472975 144.245149 7.849854 157.281211 9.590512 
C 170.317274 11.331171 182.933512 15.407278 194.523757 21.622989 
C 206.114001 27.8387 216.489605 36.092847 225.152056 45.988845 
C 233.814506 55.884843 240.622811 67.261622 245.249852 79.572565 
C 249.876893 91.883508 252.247361 104.928239 252.247361 118.08 
z
" clip-path="url(#pa2aec9f4ea)" style="fill: #58a6ff"/>
   </g>
   <g id="text_1">
    <!-- C++ -->
    <g style="fill: #c9d1d9" transform="translate(12.63625 224.41675) scale(0.16 -0.16)">
     <defs>
      <path id="DejaVuSans-Bold-43" d="M 4288 256 
Q 3956 84 3597 -3 
Q 3238 -91 2847 -91 
Q 1681 -91 1000 561 
Q 319 1213 319 2328 
Q 319 3447 1000 4098 
Q 1681 4750 2847 4750 
Q 3238 4750 3597 4662 
Q 3956 4575 4288 4403 
L 4288 3438 
Q 3953 3666 3628 3772 
Q 3303 3878 2944 3878 
Q 2300 3878 1931 3465 
Q 1563 3053 1563 2328 
Q 1563 1606 1931 1193 
Q 2300 781 2944 781 
Q 3303 781 3628 887 
Q 3953 994 4288 1222 
L 4288 256 
z
" transform="scale(0.015625)"/>
      <path id="DejaVuSans-Bold-2b" d="M 3053 4013 
L 3053 2375 
L 4684 2375 
L 4684 1638 
L 3053 1638 
L 3053 0 
L 2309 0 
L 2309 1638 
L 678 1638 
L 678 2375 
L 2309 2375 
L 2309 4013 
L 3053 4013 
z
" transform="scale(0.015625)"/>
     </defs>
     <use xlink:href="#DejaVuSans-Bold-43"/>
     <use xlink:href="#DejaVuSans-Bold-2b" transform="translate(73.388672 0)"/>
     <use xlink:href="#DejaVuSans-Bold-2b" transform="translate(157.177734 0)"/>
    </g>
    <!-- 100% -->
    <g style="fill: #c9d1d9" transform="translate(7.2 242.33325) scale(0.16 -0.16)">
     <defs>
      <path id="DejaVuSans-Bold-31" d="M 750 831 
L 1813 831 
L 1813 3847 
L 722 3622 
L 722 4441 
L 1806 4666 
L 2950 4666 
L 2950 831 
L 4013 831 
L 4013 0 
L 750 0 
L 750 831 
z
" transform="scale(0.015625)"/>
      <path id="DejaVuSans-Bold-30" d="M 2944 2338 
Q 2944 3213 2780 3570 
Q 2616 3928 2228 3928 
Q 1841 3928 1675 3570 
Q 1509 3213 1509 2338 
Q 1509 1453 1675 1090 
Q 1841 728 2228 728 
Q 2613 728 2778 1090 
Q 2944 1453 2944 2338 
z
M 4147 2328 
Q 4147 1169 3647 539 
Q 3147 -91 2228 -91 
Q 1306 -91 806 539 
Q 306 1169 306 2328 
Q 306 3491 806 4120 
Q 1306 4750 2228 4750 
Q 3147 4750 3647 4120 
Q 4147 3491 4147 2328 
z
" transform="scale(0.015625)"/>
      <path id="DejaVuSans-Bold-25" d="M 4959 1925 
Q 4738 1925 4616 1733 
Q 4494 1541 4494 1184 
Q 4494 825 4614 633 
Q 4734 441 4959 441 
Q 5184 441 5303 633 
Q 5422 825 5422 1184 
Q 5422 1541 5301 1733 
Q 5181 1925 4959 1925 
z
M 4959 2450 
Q 5541 2450 5875 2112 
Q 6209 1775 6209 1184 
Q 6209 594 5875 251 
Q 5541 -91 4959 -91 
Q 4378 -91 4042 251 
Q 3706 594 3706 1184 
Q 3706 1772 4042 2111 
Q 4378 2450 4959 2450 
z
M 2094 -91 
L 1403 -91 
L 4319 4750 
L 5013 4750 
L 2094 -91 
z
M 1453 4750 
Q 2034 4750 2367 4411 
Q 2700 4072 2700 3481 
Q 2700 2891 2367 2550 
Q 2034 2209 1453 2209 
Q 872 2209 539 2550 
Q 206 2891 206 3481 
Q 206 4072 539 4411 
Q 872 4750 1453 4750 
z
M 1453 4225 
Q 1228 4225 1106 4031 
Q 984 3838 984 3481 
Q 984 3122 1106 2926 
Q 1228 2731 1453 2731 
Q 1678 2731 1798 2926 
Q 1919 3122 1919 3481 
Q 1919 3838 1797 4031 
Q 1675 4225 1453 4225 
z
" transform="scale(0.015625)"/>
     </defs>
     <use xlink:href="#DejaVuSans-Bold-31"/>
     <use xlink:href="#DejaVuSans-Bold-30" transform="translate(69.580078 0)"/>
     <use xlink:href="#DejaVuSans-Bold-30" transform="translate(139.160156 0)"/>
     <use xlink:href="#DejaVuSans-Bold-25" transform="translate(208.740234 0)"/>
    </g>
   </g>
  </g>
 </g>
 <defs>
  <clipPath id="pa2aec9f4ea">
   <path d="M 253.675 118.08 
C 253.675 103.519372 250.806874 89.100327 245.234763 75.648061 
C 239.662651 62.195795 231.494919 49.971919 221.199 39.676 
C 210.903081 29.380081 198.679205 21.212349 185.226939 15.640237 
C 171.774673 10.068126 157.355628 7.2 142.795 7.2 
C 128.234372 7.2 113.815327 10.068126 100.363061 15.640237 
C 86.910795 21.212349 74.686919 29.380081 64.391 39.676 
C 54.095081 49.971919 45.927349 62.195795 40.355237 75.648061 
C 34.783126 89.100327 31.915 103.519372 31.915 118.08 
C 31.915 132.640628 34.783126 147.059673 40.355237 160.511939 
C 45.927349 173.964205 54.095081 186.188081 64.391 196.484 
C 74.686919 206.779919 86.910795 214.947651 100.363061 220.519763 
C 113.815327 226.091874 128.234372 228.96 142.795 228.96 
C 157.355628 228.96 171.774673 226.091874 185.226939 220.519763 
C 198.679205 214.947651 210.903081 206.779919 221.199 196.484 
C 231.494919 186.188081 239.662651 173.964205 245.234763 160.511939 
C 250.806874 147.059673 253.675 132.640628 253.675 118.08 
M 142.795 118.08 
C 142.795 118.08 142.795 118.08 142.795 118.08 
C 142.795 118.08 142.795 118.08 142.795 118.08 
C 142.795 118.08 142.795 118.08 142.795 118.08 
C 142.795 118.08 142.795 118.08 142.795 118.08 
C 142.795 118.08 142.795 118.08 142.795 118.08 
C 142.795 118.08 142.795 118.08 142.795 118.08 
C 142.795 118.08 142.795 118.08 142.795 118.08 
C 142.795 118.08 142.795 118.08 142.795 118.08 
C 142.795 118.08 142.795 118.08 142.795 118.08 
C 142.795 118.08 142.795 118.08 142.795 118.08 
C 142.795 118.08 142.795 118.08 142.795 118.08 
C 142.795 118.08 142.795 118.08 142.795 118.08 
C 142.795 118.08 142.795 118.08 142.795 118.08 
C 142.795 118.08 142.795 118.08 142.795 118.08 
C 142.795 118.08 142.795 118.08 142.795 118.08 
C 142.795 118.08 142.795 118.08 142.795 118.08 
z
"/>
  </clipPath>
 </defs>
</svg>
