<?xml version="1.0" encoding="utf-8" standalone="no"?>
<!DOCTYPE svg PUBLIC "-//W3C//DTD SVG 1.1//EN"
  "http://www.w3.org/Graphics/SVG/1.1/DTD/svg11.dtd">
<svg xmlns:xlink="http://www.w3.org/1999/xlink" width="236.16pt" height="236.16pt" viewBox="0 0 236.16 236.16" xmlns="http://www.w3.org/2000/svg" version="1.1">
 <metadata>
  <rdf:RDF xmlns:dc="http://purl.org/dc/elements/1.1/" xmlns:cc="http://creativecommons.org/ns#" xmlns:rdf="http://www.w3.org/1999/02/22-rdf-syntax-ns#">
   <cc:Work>
    <dc:type rdf:resource="http://purl.org/dc/dcmitype/StillImage"/>
    <dc:date>2025-09-10T14:55:36.676825</dc:date>
    <dc:format>image/svg+xml</dc:format>
    <dc:creator>
     <cc:Agent>
      <dc:title>Matplotlib v3.10.6, https://matplotlib.org/</dc:title>
     </cc:Agent>
    </dc:creator>
   </cc:Work>
  </rdf:RDF>
 </metadata>
 <defs>
  <style type="text/css">*{stroke-linejoin: round; stroke-linecap: butt}</style>
 </defs>
 <g id="figure_1">
  <g id="patch_1">
   <path d="M 0 236.16 
L 236.16 236.16 
L 236.16 0 
L 0 0 
z
" style="fill: #0d1117"/>
  </g>
  <g id="axes_1">
   <g id="patch_2">
    <path d="M 198.979571 118.08 
C 198.979571 107.456366 196.886947 96.936033 192.821458 87.121075 
C 188.755969 77.306116 182.796679 68.387409 175.284635 60.875365 
C 167.772591 53.363321 158.853884 47.404031 149.038925 43.338542 
C 139.223967 39.273053 128.703634 37.180429 118.08 37.180429 
C 107.456366 37.180429 96.936033 39.273053 87.121075 43.338542 
C 77.306116 47.404031 68.387409 53.363321 60.875365 60.875365 
C 53.363321 68.387409 47.404031 77.306116 43.338542 87.121075 
C 39.273053 96.936033 37.180429 107.456366 37.180429 118.08 
C 37.180429 128.703634 39.273053 139.223967 43.338542 149.038925 
C 47.404031 158.853884 53.363321 167.772591 60.875365 175.284635 
C 68.387409 182.796679 77.306116 188.755969 87.121075 192.821458 
C 96.936033 196.886947 107.456366 198.979571 118.08 198.979571 
C 128.703634 198.979571 139.223967 196.886947 149.038925 192.821458 
C 158.853884 188.755969 167.772591 182.796679 175.284635 175.284635 
C 182.796679 167.772591 188.755969 158.853884 192.821458 149.038925 
C 196.886947 139.223967 198.979571 128.703634 198.979571 118.08 
C 198.979571 107.456366 196.886947 96.936033 192.821458 87.121075 
C 188.755969 77.306116 182.796679 68.387409 175.284635 60.875365 
C 167.772591 53.363321 158.853884 47.404031 149.038925 43.338542 
C 139.223967 39.273053 128.703634 37.180429 118.08 37.180429 
C 107.456366 37.180429 96.936033 39.273053 87.121075 43.338542 
C 77.306116 47.404031 68.387409 53.363321 60.875365 60.875365 
C 53.363321 68.387409 47.404031 77.306116 43.338542 87.121075 
C 39.273053 96.936033 37.180429 107.456366 37.180429 118.08 
C 37.180429 128.703634 39.273053 139.223967 43.338542 149.038925 
C 47.404031 158.853884 53.363321 167.772591 60.875365 175.284635 
C 68.387409 182.796679 77.306116 188.755969 87.121075 192.821458 
C 96.936033 196.886947 107.456366 198.979571 118.08 198.979571 
C 128.703634 198.979571 139.223967 196.886947 149.038925 192.821458 
C 158.853884 188.755969 167.772591 182.796679 175.284635 175.284635 
C 182.796679 167.772591 188.755969 158.853884 192.821458 149.038925 
C 196.886947 139.223967 198.979571 128.703634 198.979571 118.08 
C 198.979571 107.456366 196.886947 96.936033 192.821458 87.121075 
C 188.755969 77.306116 182.796679 68.387409 175.284635 60.875365 
C 167.772591 53.363321 158.853884 47.404031 149.038925 43.338542 
C 139.223967 39.273053 128.703634 37.180429 118.08 37.180429 
C 107.456366 37.180429 96.936033 39.273053 87.121075 43.338542 
C 77.306116 47.404031 68.387409 53.363321 60.875365 60.875365 
C 53.363321 68.387409 47.404031 77.306116 43.338542 87.121075 
C 39.273053 96.936033 37.180429 107.456366 37.180429 118.08 
C 37.180429 128.703634 39.273053 139.223967 43.338542 149.038925 
C 47.404031 158.853884 53.363321 167.772591 60.875365 175.284635 
C 68.387409 182.796679 77.306116 188.755969 87.121075 192.821458 
C 96.936033 196.886947 107.456366 198.979571 118.08 198.979571 
C 128.703634 198.979571 139.223967 196.886947 149.038925 192.821458 
C 158.853884 188.755969 167.772591 182.796679 175.284635 175.284635 
C 182.796679 167.772591 188.755969 158.853884 192.821458 149.038925 
C 196.886947 139.223967 198.979571 128.703634 198.979571 118.08 
C 198.979571 107.456366 196.886947 96.936033 192.821458 87.121075 
C 188.755969 77.306116 182.796679 68.387409 175.284635 60.875365 
C 167.772591 53.363321 158.853884 47.404031 149.038925 43.338542 
C 139.223967 39.273053 128.703634 37.180429 118.08 37.180429 
C 107.456366 37.180429 96.936033 39.273053 87.121075 43.338542 
C 77.306116 47.404031 68.387409 53.363321 60.875365 60.875365 
C 53.363321 68.387409 47.404031 77.306116 43.338542 87.121075 
C 39.273053 96.936033 37.180429 107.456366 37.180429 118.08 
C 37.180429 128.703634 39.273053 139.223967 43.338542 149.038925 
C 47.404031 158.853884 53.363321 167.772591 60.875365 175.284635 
C 68.387409 182.796679 77.306116 188.755969 87.121075 192.821458 
C 96.936033 196.886947 107.456366 198.979571 118.08 198.979571 
C 128.703634 198.979571 139.223967 196.886947 149.038925 192.821458 
C 158.853884 188.755969 167.772591 182.796679 175.284635 175.284635 
C 182.796679 167.772591 188.755969 158.853884 192.821458 149.038925 
C 196.886947 139.223967 198.979571 128.703634 198.979571 118.08 
C 198.979571 107.456366 196.886947 96.936033 192.821458 87.121075 
C 188.755969 77.306116 182.796679 68.387409 175.284635 60.875365 
C 167.772591 53.363321 158.853884 47.404031 149.038925 43.338542 
C 139.223967 39.273053 128.703634 37.180429 118.08 37.180429 
C 107.456366 37.180429 96.936033 39.273053 87.121075 43.338542 
C 77.306116 47.404031 68.387409 53.363321 60.875365 60.875365 
C 53.363321 68.387409 47.404031 77.306116 43.338542 87.121075 
C 39.273053 96.936033 37.180429 107.456366 37.180429 118.08 
C 37.180429 128.703634 39.273053 139.223967 43.338542 149.038925 
C 47.404031 158.853884 53.363321 167.772591 60.875365 175.284635 
C 68.387409 182.796679 77.306116 188.755969 87.121075 192.821458 
C 96.936033 196.886947 107.456366 198.979571 118.08 198.979571 
C 128.703634 198.979571 139.223967 196.886947 149.038925 192.821458 
C 158.853884 188.755969 167.772591 182.796679 175.284635 175.284635 
C 182.796679 167.772591 188.755969 158.853884 192.821458 149.038925 
C 196.886947 139.223967 198.979571 128.703634 198.979571 118.08 
C 198.979571 107.456366 196.886947 96.936033 192.821458 87.121075 
C 188.755969 77.306116 182.796679 68.387409 175.284635 60.875365 
C 167.772591 53.363321 158.853884 47.404031 149.038925 43.338542 
C 139.223967 39.273053 128.703634 37.180429 118.08 37.180429 
C 107.456366 37.180429 96.936033 39.273053 87.121075 43.338542 
C 77.306116 47.404031 68.387409 53.363321 60.875365 60.875365 
C 53.363321 68.387409 47.404031 77.306116 43.338542 87.121075 
C 39.273053 96.936033 37.180429 107.456366 37.180429 118.08 
C 37.180429 128.703634 39.273053 139.223967 43.338542 149.038925 
C 47.404031 158.853884 53.363321 167.772591 60.875365 175.284635 
C 68.387409 182.796679 77.306116 188.755969 87.121075 192.821458 
C 96.936033 196.886947 107.456366 198.979571 118.08 198.979571 
C 128.703634 198.979571 139.223967 196.886947 149.038925 192.821458 
C 158.853884 188.755969 167.772591 182.796679 175.284635 175.284635 
C 182.796679 167.772591 188.755969 158.853884 192.821458 149.038925 
C 196.886947 139.223967 198.979571 128.703634 198.979571 118.08 
C 198.979571 107.456366 196.886947 96.936033 192.821458 87.121075 
C 188.755969 77.306116 182.796679 68.387409 175.284635 60.875365 
C 167.772591 53.363321 158.853884 47.404031 149.038925 43.338542 
C 139.223967 39.273053 128.703634 37.180429 118.08 37.180429 
C 107.456366 37.180429 96.936033 39.273053 87.121075 43.338542 
C 77.306116 47.404031 68.387409 53.363321 60.875365 60.875365 
C 53.363321 68.387409 47.404031 77.306116 43.338542 87.121075 
C 39.273053 96.936033 37.180429 107.456366 37.180429 118.08 
C 37.180429 128.703634 39.273053 139.223967 43.338542 149.038925 
C 47.404031 158.853884 53.363321 167.772591 60.875365 175.284635 
C 68.387409 182.796679 77.306116 188.755969 87.121075 192.821458 
C 96.936033 196.886947 107.456366 198.979571 118.08 198.979571 
C 128.703634 198.979571 139.223967 196.886947 149.038925 192.821458 
C 158.853884 188.755969 167.772591 182.796679 175.284635 175.284635 
C 182.796679 167.772591 188.755969 158.853884 192.821458 149.038925 
C 196.886947 139.223967 198.979571 128.703634 198.979571 118.08 
C 198.979571 107.456366 196.886947 96.936033 192.821458 87.121075 
C 188.755969 77.306116 182.796679 68.387409 175.284635 60.875365 
C 167.772591 53.363321 158.853884 47.404031 149.038925 43.338542 
C 139.223967 39.273053 128.703634 37.180429 118.08 37.180429 
C 107.456366 37.180429 96.936033 39.273053 87.121075 43.338542 
C 77.306116 47.404031 68.387409 53.363321 60.875365 60.875365 
C 53.363321 68.387409 47.404031 77.306116 43.338542 87.121075 
C 39.273053 96.936033 37.180429 107.456366 37.180429 118.08 
C 37.180429 128.703634 39.273053 139.223967 43.338542 149.038925 
C 47.404031 158.853884 53.363321 167.772591 60.875365 175.284635 
C 68.387409 182.796679 77.306116 188.755969 87.121075 192.821458 
C 96.936033 196.886947 107.456366 198.979571 118.08 198.979571 
C 128.703634 198.979571 139.223967 196.886947 149.038925 192.821458 
C 158.853884 188.755969 167.772591 182.796679 175.284635 175.284635 
C 182.796679 167.772591 188.755969 158.853884 192.821458 149.038925 
C 196.886947 139.223967 198.979571 128.703634 198.979571 118.08 
C 198.979571 107.456366 196.886947 96.936033 192.821458 87.121075 
C 188.755969 77.306116 182.796679 68.387409 175.284635 60.875365 
C 167.772591 53.363321 158.853884 47.404031 149.038925 43.338542 
C 139.223967 39.273053 128.703634 37.180429 118.08 37.180429 
C 107.456366 37.180429 96.936033 39.273053 87.121075 43.338542 
C 77.306116 47.404031 68.387409 53.363321 60.875365 60.875365 
C 53.363321 68.387409 47.404031 77.306116 43.338542 87.121075 
C 39.273053 96.936033 37.180429 107.456366 37.180429 118.08 
C 37.180429 128.703634 39.273053 139.223967 43.338542 149.038925 
C 47.404031 158.853884 53.363321 167.772591 60.875365 175.284635 
C 68.387409 182.796679 77.306116 188.755969 87.121075 192.821458 
C 96.936033 196.886947 107.456366 198.979571 118.08 198.979571 
C 128.703634 198.979571 139.223967 196.886947 149.038925 192.821458 
C 158.853884 188.755969 167.772591 182.796679 175.284635 175.284635 
C 182.796679 167.772591 188.755969 158.853884 192.821458 149.038925 
C 196.886947 139.223967 198.979571 128.703634 198.979571 118.08 
C 198.979571 107.456366 196.886947 96.936033 192.821458 87.121075 
C 188.755969 77.306116 182.796679 68.387409 175.284635 60.875365 
C 167.772591 53.363321 158.853884 47.404031 149.038925 43.338542 
C 139.223967 39.273053 128.703634 37.180429 118.08 37.180429 
C 107.456366 37.180429 96.936033 39.273053 87.121075 43.338542 
C 77.306116 47.404031 68.387409 53.363321 60.875365 60.875365 
C 53.363321 68.387409 47.404031 77.306116 43.338542 87.121075 
C 39.273053 96.936033 37.180429 107.456366 37.180429 118.08 
C 37.180429 128.703634 39.273053 139.223967 43.338542 149.038925 
C 47.404031 158.853884 53.363321 167.772591 60.875365 175.284635 
C 68.387409 182.796679 77.306116 188.755969 87.121075 192.821458 
C 96.936033 196.886947 107.456366 198.979571 118.08 198.979571 
C 128.703634 198.979571 139.223967 196.886947 149.038925 192.821458 
C 158.853884 188.755969 167.772591 182.796679 175.284635 175.284635 
C 182.796679 167.772591 188.755969 158.853884 192.821458 149.038925 
C 196.886947 139.223967 198.979571 128.703634 198.979571 118.08 
C 198.979571 112.780886 198.458914 107.494569 197.425108 102.297277 
C 196.391302 97.099984 194.849341 92.016817 192.821458 87.121075 
C 190.793575 82.225332 188.289565 77.540659 185.345535 73.134607 
C 182.401505 68.728555 179.031674 64.622404 175.284635 60.875365 
C 171.537596 57.128326 167.431445 53.758495 163.025393 50.814465 
C 158.619341 47.870435 153.934668 45.366425 149.038925 43.338542 
C 144.143183 41.310659 139.060016 39.768698 133.862723 38.734892 
C 128.665431 37.701086 123.379114 37.180429 118.08 37.180429 
C 112.780886 37.180429 107.494569 37.701086 102.297277 38.734892 
C 97.099984 39.768698 92.016817 41.310659 87.121075 43.338542 
C 82.225332 45.366425 77.540659 47.870435 73.134607 50.814465 
C 68.728555 53.758495 64.622404 57.128326 60.875365 60.875365 
C 57.128326 64.622404 53.758495 68.728555 50.814465 73.134607 
C 47.870435 77.540659 45.366425 82.225332 43.338542 87.121075 
C 41.310659 92.016817 39.768698 97.099984 38.734892 102.297277 
C 37.701086 107.494569 37.180429 112.780886 37.180429 118.08 
C 37.180429 123.379114 37.701086 128.665431 38.734892 133.862723 
C 39.768698 139.060016 41.310659 144.143183 43.338542 149.038925 
C 45.366425 153.934668 47.870435 158.619341 50.814465 163.025393 
C 53.758495 167.431445 57.128326 171.537596 60.875365 175.284635 
C 64.622404 179.031674 68.728555 182.401505 73.134607 185.345535 
C 77.540659 188.289565 82.225332 190.793575 87.121075 192.821458 
C 92.016817 194.849341 97.099984 196.391302 102.297277 197.425108 
C 107.494569 198.458914 112.780886 198.979571 118.08 198.979571 
C 123.379114 198.979571 128.665431 198.458914 133.862723 197.425108 
C 139.060016 196.391302 144.143183 194.849341 149.038925 192.821458 
C 153.934668 190.793575 158.619341 188.289565 163.025393 185.345535 
C 167.431445 182.401505 171.537596 179.031674 175.284635 175.284635 
C 179.031674 171.537596 182.401505 167.431445 185.345535 163.025393 
C 188.289565 158.619341 190.793575 153.934668 192.821458 149.038925 
C 194.849341 144.143183 196.391302 139.060016 197.425108 133.862723 
C 198.458914 128.665431 198.979571 123.379114 198.979571 118.08 
C 198.979571 107.456366 196.886947 96.936033 192.821458 87.121075 
C 188.755969 77.306116 182.796679 68.387409 175.284635 60.875365 
C 167.772591 53.363321 158.853884 47.404031 149.038925 43.338542 
C 139.223967 39.273053 128.703634 37.180429 118.08 37.180429 
C 107.456366 37.180429 96.936033 39.273053 87.121075 43.338542 
C 77.306116 47.404031 68.387409 53.363321 60.875365 60.875365 
C 53.363321 68.387409 47.404031 77.306116 43.338542 87.121075 
C 39.273053 96.936033 37.180429 107.456366 37.180429 118.08 
C 37.180429 128.703634 39.273053 139.223967 43.338542 149.038925 
C 47.404031 158.853884 53.363321 167.772591 60.875365 175.284635 
C 68.387409 182.796679 77.306116 188.755969 87.121075 192.821458 
C 96.936033 196.886947 107.456366 198.979571 118.08 198.979571 
C 128.703634 198.979571 139.223967 196.886947 149.038925 192.821458 
C 158.853884 188.755969 167.772591 182.796679 175.284635 175.284635 
C 182.796679 167.772591 188.755969 158.853884 192.821458 149.038925 
C 196.886947 139.223967 198.979571 128.703634 198.979571 118.08 
C 198.979571 112.780886 198.458914 107.494569 197.425108 102.297277 
C 196.391302 97.099984 194.849341 92.016817 192.821458 87.121075 
C 190.793575 82.225332 188.289565 77.540659 185.345535 73.134607 
C 182.401505 68.728555 179.031674 64.622404 175.284635 60.875365 
C 171.537596 57.128326 167.431445 53.758495 163.025393 50.814465 
C 158.619341 47.870435 153.934668 45.366425 149.038925 43.338542 
C 144.143183 41.310659 139.060016 39.768698 133.862723 38.734892 
C 128.665431 37.701086 123.379114 37.180429 118.08 37.180429 
C 112.780886 37.180429 107.494569 37.701086 102.297277 38.734892 
C 97.099984 39.768698 92.016817 41.310659 87.121075 43.338542 
C 82.225332 45.366425 77.540659 47.870435 73.134607 50.814465 
C 68.728555 53.758495 64.622404 57.128326 60.875365 60.875365 
C 57.128326 64.622404 53.758495 68.728555 50.814465 73.134607 
C 47.870435 77.540659 45.366425 82.225332 43.338542 87.121075 
C 41.310659 92.016817 39.768698 97.099984 38.734892 102.297277 
C 37.701086 107.494569 37.180429 112.780886 37.180429 118.08 
C 37.180429 123.379114 37.701086 128.665431 38.734892 133.862723 
C 39.768698 139.060016 41.310659 144.143183 43.338542 149.038925 
C 45.366425 153.934668 47.870435 158.619341 50.814465 163.025393 
C 53.758495 167.431445 57.128326 171.537596 60.875365 175.284635 
C 64.622404 179.031674 68.728555 182.401505 73.134607 185.345535 
C 77.540659 188.289565 82.225332 190.793575 87.121075 192.821458 
C 92.016817 194.849341 97.099984 196.391302 102.297277 197.425108 
C 107.494569 198.458914 112.780886 198.979571 118.08 198.979571 
C 123.379114 198.979571 128.665431 198.458914 133.862723 197.425108 
C 139.060016 196.391302 144.143183 194.849341 149.038925 192.821458 
C 153.934668 190.793575 158.619341 188.289565 163.025393 185.345535 
C 167.431445 182.401505 171.537596 179.031674 175.284635 175.284635 
C 179.031674 171.537596 182.401505 167.431445 185.345535 163.025393 
C 188.289565 158.619341 190.793575 153.934668 192.821458 149.038925 
C 194.849341 144.143183 196.391302 139.060016 197.425108 133.862723 
C 198.458914 128.665431 198.979571 123.379114 198.979571 118.08 
C 198.979571 107.456366 196.886947 96.936033 192.821458 87.121075 
C 188.755969 77.306116 182.796679 68.387409 175.284635 60.875365 
C 167.772591 53.363321 158.853884 47.404031 149.038925 43.338542 
C 139.223967 39.273053 128.703634 37.180429 118.08 37.180429 
C 107.456366 37.180429 96.936033 39.273053 87.121075 43.338542 
C 77.306116 47.404031 68.387409 53.363321 60.875365 60.875365 
C 53.363321 68.387409 47.404031 77.306116 43.338542 87.121075 
C 39.273053 96.936033 37.180429 107.456366 37.180429 118.08 
C 37.180429 128.703634 39.273053 139.223967 43.338542 149.038925 
C 47.404031 158.853884 53.363321 167.772591 60.875365 175.284635 
C 68.387409 182.796679 77.306116 188.755969 87.121075 192.821458 
C 96.936033 196.886947 107.456366 198.979571 118.08 198.979571 
C 128.703634 198.979571 139.223967 196.886947 149.038925 192.821458 
C 158.853884 188.755969 167.772591 182.796679 175.284635 175.284635 
C 182.796679 167.772591 188.755969 158.853884 192.821458 149.038925 
C 196.886947 139.223967 198.979571 128.703634 198.979571 118.08 
C 198.979571 112.780886 198.458914 107.494569 197.425108 102.297277 
C 196.391302 97.099984 194.849341 92.016817 192.821458 87.121075 
C 190.793575 82.225332 188.289565 77.540659 185.345535 73.134607 
C 182.401505 68.728555 179.031674 64.622404 175.284635 60.875365 
C 171.537596 57.128326 167.431445 53.758495 163.025393 50.814465 
C 158.619341 47.870435 153.934668 45.366425 149.038925 43.338542 
C 144.143183 41.310659 139.060016 39.768698 133.862723 38.734892 
C 128.665431 37.701086 123.379114 37.180429 118.08 37.180429 
C 112.780886 37.180429 107.494569 37.701086 102.297277 38.734892 
C 97.099984 39.768698 92.016817 41.310659 87.121075 43.338542 
C 82.225332 45.366425 77.540659 47.870435 73.134607 50.814465 
C 68.728555 53.758495 64.622404 57.128326 60.875365 60.875365 
C 57.128326 64.622404 53.758495 68.728555 50.814465 73.134607 
C 47.870435 77.540659 45.366425 82.225332 43.338542 87.121075 
C 41.310659 92.016817 39.768698 97.099984 38.734892 102.297277 
C 37.701086 107.494569 37.180429 112.780886 37.180429 118.08 
C 37.180429 123.379114 37.701086 128.665431 38.734892 133.862723 
C 39.768698 139.060016 41.310659 144.143183 43.338542 149.038925 
C 45.366425 153.934668 47.870435 158.619341 50.814465 163.025393 
C 53.758495 167.431445 57.128326 171.537596 60.875365 175.284635 
C 64.622404 179.031674 68.728555 182.401505 73.134607 185.345535 
C 77.540659 188.289565 82.225332 190.793575 87.121075 192.821458 
C 92.016817 194.849341 97.099984 196.391302 102.297277 197.425108 
C 107.494569 198.458914 112.780886 198.979571 118.08 198.979571 
C 123.379114 198.979571 128.665431 198.458914 133.862723 197.425108 
C 139.060016 196.391302 144.143183 194.849341 149.038925 192.821458 
C 153.934668 190.793575 158.619341 188.289565 163.025393 185.345535 
C 167.431445 182.401505 171.537596 179.031674 175.284635 175.284635 
C 179.031674 171.537596 182.401505 167.431445 185.345535 163.025393 
C 188.289565 158.619341 190.793575 153.934668 192.821458 149.038925 
C 194.849341 144.143183 196.391302 139.060016 197.425108 133.862723 
C 198.458914 128.665431 198.979571 123.379114 198.979571 118.08 
C 198.979571 108.359133 197.227486 98.717376 193.807499 89.617983 
C 190.387512 80.51859 185.355287 72.109667 178.952606 64.795233 
C 172.549926 57.4808 164.881001 51.379909 156.314298 46.785688 
C 147.747596 42.191466 138.422551 39.178692 128.7872 37.892118 
C 119.151849 36.605544 109.363021 37.066112 99.891036 39.251692 
C 90.419051 41.437272 81.418078 45.312292 73.320586 50.690569 
C 65.223093 56.068846 58.160876 62.862843 52.473253 70.746129 
C 46.78563 78.629415 42.565174 87.47368 40.014662 96.853987 
C 37.464151 106.234293 36.625099 115.997965 37.537818 125.675888 
C 38.450538 135.353811 41.100174 144.788466 45.35942 153.526548 
C 49.618666 162.26463 55.418198 170.163916 62.479366 176.844871 
C 69.540535 183.525826 77.748411 188.879708 86.708632 192.649282 
C 95.668854 196.418856 105.235582 198.542766 114.949167 198.918966 
C 124.662752 199.295166 134.365092 197.917532 143.590022 194.852256 
C 152.814953 191.78698 161.412325 187.083952 168.969064 180.969138 
C 176.525803 174.854324 182.918914 167.42725 187.841227 159.044763 
L 212.462836 173.502915 
C 205.184766 185.897155 195.53607 196.737256 184.068939 205.402844 
C 172.601808 214.068432 159.539249 220.390984 145.628825 224.008662 
C 131.7184 227.626341 117.230633 228.468792 102.994651 226.487802 
C 88.758669 224.506812 75.051326 219.740907 62.657085 212.462836 
C 50.262845 205.184766 39.422744 195.53607 30.757156 184.068939 
C 22.091568 172.601808 15.769016 159.539249 12.151338 145.628825 
C 8.533659 131.7184 7.691208 117.230633 9.672198 102.994651 
C 11.653188 88.758669 16.419093 75.051326 23.697164 62.657085 
C 30.975234 50.262845 40.62393 39.422744 52.091061 30.757156 
C 63.558192 22.091568 76.620751 15.769016 90.531175 12.151338 
C 104.4416 8.533659 118.929367 7.691208 133.165349 9.672198 
C 147.401331 11.653188 161.108674 16.419093 173.502915 23.697164 
C 185.897155 30.975234 196.737256 40.62393 205.402844 52.091061 
C 214.068432 63.558192 220.390984 76.620751 224.008662 90.531175 
C 227.626341 104.4416 228.468792 118.929367 226.487802 133.165349 
C 224.506812 147.401331 219.740907 161.108674 212.462836 173.502915 
C 208.832504 179.685214 204.603505 185.495891 199.836822 190.851157 
C 195.070139 196.206423 189.788793 201.080412 184.068939 205.402844 
C 178.349086 209.725276 172.218351 213.475274 165.765138 216.598764 
C 159.311926 219.722253 152.567403 222.204149 145.628825 224.008662 
C 138.690246 225.813176 131.591124 226.931591 124.433825 227.347782 
C 117.276526 227.763972 110.095619 227.475928 102.994651 226.487802 
C 95.893683 225.499676 88.90695 223.81624 82.135199 221.461771 
C 75.363448 219.107301 68.839385 216.093168 62.657085 212.462836 
C 56.474786 208.832504 50.664109 204.603505 45.308843 199.836822 
C 39.953577 195.070139 35.079588 189.788793 30.757156 184.068939 
C 26.434724 178.349086 22.684726 172.218351 19.561236 165.765138 
C 16.437747 159.311926 13.955851 152.567403 12.151338 145.628825 
C 10.346824 138.690246 9.228409 131.591124 8.812218 124.433825 
C 8.396028 117.276526 8.684072 110.095619 9.672198 102.994651 
C 10.660324 95.893683 12.34376 88.90695 14.698229 82.135199 
C 17.052699 75.363448 20.066832 68.839385 23.697164 62.657085 
C 27.327496 56.474786 31.556495 50.664109 36.323178 45.308843 
C 41.089861 39.953577 46.371207 35.079588 52.091061 30.757156 
C 57.810914 26.434724 63.941649 22.684726 70.394862 19.561236 
C 76.848074 16.437747 83.592597 13.955851 90.531175 12.151338 
C 97.469754 10.346824 104.568876 9.228409 111.726175 8.812218 
C 118.883474 8.396028 126.064381 8.684072 133.165349 9.672198 
C 140.266317 10.660324 147.25305 12.34376 154.024801 14.698229 
C 160.796552 17.052699 167.320615 20.066832 173.502915 23.697164 
C 179.685214 27.327496 185.495891 31.556495 190.851157 36.323178 
C 196.206423 41.089861 201.080412 46.371207 205.402844 52.091061 
C 209.725276 57.810914 213.475274 63.941649 216.598764 70.394862 
C 219.722253 76.848074 222.204149 83.592597 224.008662 90.531175 
C 225.813176 97.469754 226.931591 104.568876 227.347782 111.726175 
C 227.763972 118.883474 227.475928 126.064381 226.487802 133.165349 
C 225.499676 140.266317 223.81624 147.25305 221.461771 154.024801 
C 219.107301 160.796552 216.093168 167.320615 212.462836 173.502915 
C 205.184766 185.897155 195.53607 196.737256 184.068939 205.402844 
C 172.601808 214.068432 159.539249 220.390984 145.628825 224.008662 
C 131.7184 227.626341 117.230633 228.468792 102.994651 226.487802 
C 88.758669 224.506812 75.051326 219.740907 62.657085 212.462836 
C 50.262845 205.184766 39.422744 195.53607 30.757156 184.068939 
C 22.091568 172.601808 15.769016 159.539249 12.151338 145.628825 
C 8.533659 131.7184 7.691208 117.230633 9.672198 102.994651 
C 11.653188 88.758669 16.419093 75.051326 23.697164 62.657085 
C 30.975234 50.262845 40.62393 39.422744 52.091061 30.757156 
C 63.558192 22.091568 76.620751 15.769016 90.531175 12.151338 
C 104.4416 8.533659 118.929367 7.691208 133.165349 9.672198 
C 147.401331 11.653188 161.108674 16.419093 173.502915 23.697164 
C 185.897155 30.975234 196.737256 40.62393 205.402844 52.091061 
C 214.068432 63.558192 220.390984 76.620751 224.008662 90.531175 
C 227.626341 104.4416 228.468792 118.929367 226.487802 133.165349 
C 224.506812 147.401331 219.740907 161.108674 212.462836 173.502915 
C 208.832504 179.685214 204.603505 185.495891 199.836822 190.851157 
C 195.070139 196.206423 189.788793 201.080412 184.068939 205.402844 
C 178.349086 209.725276 172.218351 213.475274 165.765138 216.598764 
C 159.311926 219.722253 152.567403 222.204149 145.628825 224.008662 
C 138.690246 225.813176 131.591124 226.931591 124.433825 227.347782 
C 117.276526 227.763972 110.095619 227.475928 102.994651 226.487802 
C 95.893683 225.499676 88.90695 223.81624 82.135199 221.461771 
C 75.363448 219.107301 68.839385 216.093168 62.657085 212.462836 
C 56.474786 208.832504 50.664109 204.603505 45.308843 199.836822 
C 39.953577 195.070139 35.079588 189.788793 30.757156 184.068939 
C 26.434724 178.349086 22.684726 172.218351 19.561236 165.765138 
C 16.437747 159.311926 13.955851 152.567403 12.151338 145.628825 
C 10.346824 138.690246 9.228409 131.591124 8.812218 124.433825 
C 8.396028 117.276526 8.684072 110.095619 9.672198 102.994651 
C 10.660324 95.893683 12.34376 88.90695 14.698229 82.135199 
C 17.052699 75.363448 20.066832 68.839385 23.697164 62.657085 
C 27.327496 56.474786 31.556495 50.664109 36.323178 45.308843 
C 41.089861 39.953577 46.371207 35.079588 52.091061 30.757156 
C 57.810914 26.434724 63.941649 22.684726 70.394862 19.561236 
C 76.848074 16.437747 83.592597 13.955851 90.531175 12.151338 
C 97.469754 10.346824 104.568876 9.228409 111.726175 8.812218 
C 118.883474 8.396028 126.064381 8.684072 133.165349 9.672198 
C 140.266317 10.660324 147.25305 12.34376 154.024801 14.698229 
C 160.796552 17.052699 167.320615 20.066832 173.502915 23.697164 
C 179.685214 27.327496 185.495891 31.556495 190.851157 36.323178 
C 196.206423 41.089861 201.080412 46.371207 205.402844 52.091061 
C 209.725276 57.810914 213.475274 63.941649 216.598764 70.394862 
C 219.722253 76.848074 222.204149 83.592597 224.008662 90.531175 
C 225.813176 97.469754 226.931591 104.568876 227.347782 111.726175 
C 227.763972 118.883474 227.475928 126.064381 226.487802 133.165349 
C 225.499676 140.266317 223.81624 147.25305 221.461771 154.024801 
C 219.107301 160.796552 216.093168 167.320615 212.462836 173.502915 
C 205.184766 185.897155 195.53607 196.737256 184.068939 205.402844 
C 172.601808 214.068432 159.539249 220.390984 145.628825 224.008662 
C 131.7184 227.626341 117.230633 228.468792 102.994651 226.487802 
C 88.758669 224.506812 75.051326 219.740907 62.657085 212.462836 
C 50.262845 205.184766 39.422744 195.53607 30.757156 184.068939 
C 22.091568 172.601808 15.769016 159.539249 12.151338 145.628825 
C 8.533659 131.7184 7.691208 117.230633 9.672198 102.994651 
C 11.653188 88.758669 16.419093 75.051326 23.697164 62.657085 
C 30.975234 50.262845 40.62393 39.422744 52.091061 30.757156 
C 63.558192 22.091568 76.620751 15.769016 90.531175 12.151338 
C 104.4416 8.533659 118.929367 7.691208 133.165349 9.672198 
C 147.401331 11.653188 161.108674 16.419093 173.502915 23.697164 
C 185.897155 30.975234 196.737256 40.62393 205.402844 52.091061 
C 214.068432 63.558192 220.390984 76.620751 224.008662 90.531175 
C 227.626341 104.4416 228.468792 118.929367 226.487802 133.165349 
C 224.506812 147.401331 219.740907 161.108674 212.462836 173.502915 
C 205.184766 185.897155 195.53607 196.737256 184.068939 205.402844 
C 172.601808 214.068432 159.539249 220.390984 145.628825 224.008662 
C 131.7184 227.626341 117.230633 228.468792 102.994651 226.487802 
C 88.758669 224.506812 75.051326 219.740907 62.657085 212.462836 
C 50.262845 205.184766 39.422744 195.53607 30.757156 184.068939 
C 22.091568 172.601808 15.769016 159.539249 12.151338 145.628825 
C 8.533659 131.7184 7.691208 117.230633 9.672198 102.994651 
C 11.653188 88.758669 16.419093 75.051326 23.697164 62.657085 
C 30.975234 50.262845 40.62393 39.422744 52.091061 30.757156 
C 63.558192 22.091568 76.620751 15.769016 90.531175 12.151338 
C 104.4416 8.533659 118.929367 7.691208 133.165349 9.672198 
C 147.401331 11.653188 161.108674 16.419093 173.502915 23.697164 
C 185.897155 30.975234 196.737256 40.62393 205.402844 52.091061 
C 214.068432 63.558192 220.390984 76.620751 224.008662 90.531175 
C 227.626341 104.4416 228.468792 118.929367 226.487802 133.165349 
C 224.506812 147.401331 219.740907 161.108674 212.462836 173.502915 
C 205.184766 185.897155 195.53607 196.737256 184.068939 205.402844 
C 172.601808 214.068432 159.539249 220.390984 145.628825 224.008662 
C 131.7184 227.626341 117.230633 228.468792 102.994651 226.487802 
C 88.758669 224.506812 75.051326 219.740907 62.657085 212.462836 
C 50.262845 205.184766 39.422744 195.53607 30.757156 184.068939 
C 22.091568 172.601808 15.769016 159.539249 12.151338 145.628825 
C 8.533659 131.7184 7.691208 117.230633 9.672198 102.994651 
C 11.653188 88.758669 16.419093 75.051326 23.697164 62.657085 
C 30.975234 50.262845 40.62393 39.422744 52.091061 30.757156 
C 63.558192 22.091568 76.620751 15.769016 90.531175 12.151338 
C 104.4416 8.533659 118.929367 7.691208 133.165349 9.672198 
C 147.401331 11.653188 161.108674 16.419093 173.502915 23.697164 
C 185.897155 30.975234 196.737256 40.62393 205.402844 52.091061 
C 214.068432 63.558192 220.390984 76.620751 224.008662 90.531175 
C 227.626341 104.4416 228.468792 118.929367 226.487802 133.165349 
C 224.506812 147.401331 219.740907 161.108674 212.462836 173.502915 
C 205.184766 185.897155 195.53607 196.737256 184.068939 205.402844 
C 172.601808 214.068432 159.539249 220.390984 145.628825 224.008662 
C 131.7184 227.626341 117.230633 228.468792 102.994651 226.487802 
C 88.758669 224.506812 75.051326 219.740907 62.657085 212.462836 
C 50.262845 205.184766 39.422744 195.53607 30.757156 184.068939 
C 22.091568 172.601808 15.769016 159.539249 12.151338 145.628825 
C 8.533659 131.7184 7.691208 117.230633 9.672198 102.994651 
C 11.653188 88.758669 16.419093 75.051326 23.697164 62.657085 
C 30.975234 50.262845 40.62393 39.422744 52.091061 30.757156 
C 63.558192 22.091568 76.620751 15.769016 90.531175 12.151338 
C 104.4416 8.533659 118.929367 7.691208 133.165349 9.672198 
C 147.401331 11.653188 161.108674 16.419093 173.502915 23.697164 
C 185.897155 30.975234 196.737256 40.62393 205.402844 52.091061 
C 214.068432 63.558192 220.390984 76.620751 224.008662 90.531175 
C 227.626341 104.4416 228.468792 118.929367 226.487802 133.165349 
C 224.506812 147.401331 219.740907 161.108674 212.462836 173.502915 
C 205.184766 185.897155 195.53607 196.737256 184.068939 205.402844 
C 172.601808 214.068432 159.539249 220.390984 145.628825 224.008662 
C 131.7184 227.626341 117.230633 228.468792 102.994651 226.487802 
C 88.758669 224.506812 75.051326 219.740907 62.657085 212.462836 
C 50.262845 205.184766 39.422744 195.53607 30.757156 184.068939 
C 22.091568 172.601808 15.769016 159.539249 12.151338 145.628825 
C 8.533659 131.7184 7.691208 117.230633 9.672198 102.994651 
C 11.653188 88.758669 16.419093 75.051326 23.697164 62.657085 
C 30.975234 50.262845 40.62393 39.422744 52.091061 30.757156 
C 63.558192 22.091568 76.620751 15.769016 90.531175 12.151338 
C 104.4416 8.533659 118.929367 7.691208 133.165349 9.672198 
C 147.401331 11.653188 161.108674 16.419093 173.502915 23.697164 
C 185.897155 30.975234 196.737256 40.62393 205.402844 52.091061 
C 214.068432 63.558192 220.390984 76.620751 224.008662 90.531175 
C 227.626341 104.4416 228.468792 118.929367 226.487802 133.165349 
C 224.506812 147.401331 219.740907 161.108674 212.462836 173.502915 
C 205.184766 185.897155 195.53607 196.737256 184.068939 205.402844 
C 172.601808 214.068432 159.539249 220.390984 145.628825 224.008662 
C 131.7184 227.626341 117.230633 228.468792 102.994651 226.487802 
C 88.758669 224.506812 75.051326 219.740907 62.657085 212.462836 
C 50.262845 205.184766 39.422744 195.53607 30.757156 184.068939 
C 22.091568 172.601808 15.769016 159.539249 12.151338 145.628825 
C 8.533659 131.7184 7.691208 117.230633 9.672198 102.994651 
C 11.653188 88.758669 16.419093 75.051326 23.697164 62.657085 
C 30.975234 50.262845 40.62393 39.422744 52.091061 30.757156 
C 63.558192 22.091568 76.620751 15.769016 90.531175 12.151338 
C 104.4416 8.533659 118.929367 7.691208 133.165349 9.672198 
C 147.401331 11.653188 161.108674 16.419093 173.502915 23.697164 
C 185.897155 30.975234 196.737256 40.62393 205.402844 52.091061 
C 214.068432 63.558192 220.390984 76.620751 224.008662 90.531175 
C 227.626341 104.4416 228.468792 118.929367 226.487802 133.165349 
C 224.506812 147.401331 219.740907 161.108674 212.462836 173.502915 
C 208.832504 179.685214 204.603505 185.495891 199.836822 190.851157 
C 195.070139 196.206423 189.788793 201.080412 184.068939 205.402844 
C 178.349086 209.725276 172.218351 213.475274 165.765138 216.598764 
C 159.311926 219.722253 152.567403 222.204149 145.628825 224.008662 
C 138.690246 225.813176 131.591124 226.931591 124.433825 227.347782 
C 117.276526 227.763972 110.095619 227.475928 102.994651 226.487802 
C 95.893683 225.499676 88.90695 223.81624 82.135199 221.461771 
C 75.363448 219.107301 68.839385 216.093168 62.657085 212.462836 
C 56.474786 208.832504 50.664109 204.603505 45.308843 199.836822 
C 39.953577 195.070139 35.079588 189.788793 30.757156 184.068939 
C 26.434724 178.349086 22.684726 172.218351 19.561236 165.765138 
C 16.437747 159.311926 13.955851 152.567403 12.151338 145.628825 
C 10.346824 138.690246 9.228409 131.591124 8.812218 124.433825 
C 8.396028 117.276526 8.684072 110.095619 9.672198 102.994651 
C 10.660324 95.893683 12.34376 88.90695 14.698229 82.135199 
C 17.052699 75.363448 20.066832 68.839385 23.697164 62.657085 
C 27.327496 56.474786 31.556495 50.664109 36.323178 45.308843 
C 41.089861 39.953577 46.371207 35.079588 52.091061 30.757156 
C 57.810914 26.434724 63.941649 22.684726 70.394862 19.561236 
C 76.848074 16.437747 83.592597 13.955851 90.531175 12.151338 
C 97.469754 10.346824 104.568876 9.228409 111.726175 8.812218 
C 118.883474 8.396028 126.064381 8.684072 133.165349 9.672198 
C 140.266317 10.660324 147.25305 12.34376 154.024801 14.698229 
C 160.796552 17.052699 167.320615 20.066832 173.502915 23.697164 
C 179.685214 27.327496 185.495891 31.556495 190.851157 36.323178 
C 196.206423 41.089861 201.080412 46.371207 205.402844 52.091061 
C 209.725276 57.810914 213.475274 63.941649 216.598764 70.394862 
C 219.722253 76.848074 222.204149 83.592597 224.008662 90.531175 
C 225.813176 97.469754 226.931591 104.568876 227.347782 111.726175 
C 227.763972 118.883474 227.475928 126.064381 226.487802 133.165349 
C 225.499676 140.266317 223.81624 147.25305 221.461771 154.024801 
C 219.107301 160.796552 216.093168 167.320615 212.462836 173.502915 
C 205.184766 185.897155 195.53607 196.737256 184.068939 205.402844 
C 172.601808 214.068432 159.539249 220.390984 145.628825 224.008662 
C 131.7184 227.626341 117.230633 228.468792 102.994651 226.487802 
C 88.758669 224.506812 75.051326 219.740907 62.657085 212.462836 
C 50.262845 205.184766 39.422744 195.53607 30.757156 184.068939 
C 22.091568 172.601808 15.769016 159.539249 12.151338 145.628825 
C 8.533659 131.7184 7.691208 117.230633 9.672198 102.994651 
C 11.653188 88.758669 16.419093 75.051326 23.697164 62.657085 
C 30.975234 50.262845 40.62393 39.422744 52.091061 30.757156 
C 63.558192 22.091568 76.620751 15.769016 90.531175 12.151338 
C 104.4416 8.533659 118.929367 7.691208 133.165349 9.672198 
C 147.401331 11.653188 161.108674 16.419093 173.502915 23.697164 
C 185.897155 30.975234 196.737256 40.62393 205.402844 52.091061 
C 214.068432 63.558192 220.390984 76.620751 224.008662 90.531175 
C 227.626341 104.4416 228.468792 118.929367 226.487802 133.165349 
C 224.506812 147.401331 219.740907 161.108674 212.462836 173.502915 
C 205.184766 185.897155 195.53607 196.737256 184.068939 205.402844 
C 172.601808 214.068432 159.539249 220.390984 145.628825 224.008662 
C 131.7184 227.626341 117.230633 228.468792 102.994651 226.487802 
C 88.758669 224.506812 75.051326 219.740907 62.657085 212.462836 
C 50.262845 205.184766 39.422744 195.53607 30.757156 184.068939 
C 22.091568 172.601808 15.769016 159.539249 12.151338 145.628825 
C 8.533659 131.7184 7.691208 117.230633 9.672198 102.994651 
C 11.653188 88.758669 16.419093 75.051326 23.697164 62.657085 
C 30.975234 50.262845 40.62393 39.422744 52.091061 30.757156 
C 63.558192 22.091568 76.620751 15.769016 90.531175 12.151338 
C 104.4416 8.533659 118.929367 7.691208 133.165349 9.672198 
C 147.401331 11.653188 161.108674 16.419093 173.502915 23.697164 
C 185.897155 30.975234 196.737256 40.62393 205.402844 52.091061 
C 214.068432 63.558192 220.390984 76.620751 224.008662 90.531175 
C 227.626341 104.4416 228.468792 118.929367 226.487802 133.165349 
C 224.506812 147.401331 219.740907 161.108674 212.462836 173.502915 
C 205.184766 185.897155 195.53607 196.737256 184.068939 205.402844 
C 172.601808 214.068432 159.539249 220.390984 145.628825 224.008662 
C 131.7184 227.626341 117.230633 228.468792 102.994651 226.487802 
C 88.758669 224.506812 75.051326 219.740907 62.657085 212.462836 
C 50.262845 205.184766 39.422744 195.53607 30.757156 184.068939 
C 22.091568 172.601808 15.769016 159.539249 12.151338 145.628825 
C 8.533659 131.7184 7.691208 117.230633 9.672198 102.994651 
C 11.653188 88.758669 16.419093 75.051326 23.697164 62.657085 
C 30.975234 50.262845 40.62393 39.422744 52.091061 30.757156 
C 63.558192 22.091568 76.620751 15.769016 90.531175 12.151338 
C 104.4416 8.533659 118.929367 7.691208 133.165349 9.672198 
C 147.401331 11.653188 161.108674 16.419093 173.502915 23.697164 
C 185.897155 30.975234 196.737256 40.62393 205.402844 52.091061 
C 214.068432 63.558192 220.390984 76.620751 224.008662 90.531175 
C 227.626341 104.4416 228.468792 118.929367 226.487802 133.165349 
C 224.506812 147.401331 219.740907 161.108674 212.462836 173.502915 
C 205.184766 185.897155 195.53607 196.737256 184.068939 205.402844 
C 172.601808 214.068432 159.539249 220.390984 145.628825 224.008662 
C 131.7184 227.626341 117.230633 228.468792 102.994651 226.487802 
C 88.758669 224.506812 75.051326 219.740907 62.657085 212.462836 
C 50.262845 205.184766 39.422744 195.53607 30.757156 184.068939 
C 22.091568 172.601808 15.769016 159.539249 12.151338 145.628825 
C 8.533659 131.7184 7.691208 117.230633 9.672198 102.994651 
C 11.653188 88.758669 16.419093 75.051326 23.697164 62.657085 
C 30.975234 50.262845 40.62393 39.422744 52.091061 30.757156 
C 63.558192 22.091568 76.620751 15.769016 90.531175 12.151338 
C 104.4416 8.533659 118.929367 7.691208 133.165349 9.672198 
C 147.401331 11.653188 161.108674 16.419093 173.502915 23.697164 
C 185.897155 30.975234 196.737256 40.62393 205.402844 52.091061 
C 214.068432 63.558192 220.390984 76.620751 224.008662 90.531175 
C 227.626341 104.4416 228.468792 118.929367 226.487802 133.165349 
C 224.506812 147.401331 219.740907 161.108674 212.462836 173.502915 
C 205.803236 184.843927 197.153734 194.892321 186.929911 203.165305 
C 176.706087 211.438288 165.074348 217.801208 152.59356 221.948347 
C 140.112772 226.095485 126.986076 227.959342 113.844167 227.450366 
C 100.702258 226.94139 87.759037 224.067864 75.636385 218.967852 
C 63.513732 213.867841 52.408959 206.624353 42.855613 197.585414 
C 33.302267 188.546475 25.455842 177.859206 19.693333 166.037095 
C 13.930823 154.214984 10.346022 141.450451 9.111166 128.35679 
C 7.87631 115.263129 9.011499 102.053456 12.46219 89.362453 
C 15.912882 76.67145 21.622911 64.705679 29.317931 54.040057 
C 37.01295 43.374434 46.567714 34.182557 57.523145 26.906064 
C 68.478577 19.629572 80.656363 14.386898 93.471401 11.429936 
C 106.28644 8.472975 119.530149 7.849854 132.566211 9.590512 
C 145.602274 11.331171 158.218512 15.407278 169.808757 21.622989 
C 181.399001 27.8387 191.774605 36.092847 200.437056 45.988845 
C 209.099506 55.884843 215.907811 67.261622 220.534852 79.572565 
C 225.161893 91.883508 227.532361 104.928239 227.532361 118.08 
z
" clip-path="url(#p545218759a)" style="fill: #30363d"/>
   </g>
   <g id="patch_3">
    <path d="M 198.979571 118.08 
C 198.979571 107.456366 196.886947 96.936033 192.821458 87.121075 
C 188.755969 77.306116 182.796679 68.387409 175.284635 60.875365 
C 167.772591 53.363321 158.853884 47.404031 149.038925 43.338542 
C 139.223967 39.273053 128.703634 37.180429 118.08 37.180429 
C 107.456366 37.180429 96.936033 39.273053 87.121075 43.338542 
C 77.306116 47.404031 68.387409 53.363321 60.875365 60.875365 
C 53.363321 68.387409 47.404031 77.306116 43.338542 87.121075 
C 39.273053 96.936033 37.180429 107.456366 37.180429 118.08 
C 37.180429 128.703634 39.273053 139.223967 43.338542 149.038925 
C 47.404031 158.853884 53.363321 167.772591 60.875365 175.284635 
C 68.387409 182.796679 77.306116 188.755969 87.121075 192.821458 
C 96.936033 196.886947 107.456366 198.979571 118.08 198.979571 
C 128.703634 198.979571 139.223967 196.886947 149.038925 192.821458 
C 158.853884 188.755969 167.772591 182.796679 175.284635 175.284635 
C 182.796679 167.772591 188.755969 158.853884 192.821458 149.038925 
C 196.886947 139.223967 198.979571 128.703634 198.979571 118.08 
C 198.979571 107.456366 196.886947 96.936033 192.821458 87.121075 
C 188.755969 77.306116 182.796679 68.387409 175.284635 60.875365 
C 167.772591 53.363321 158.853884 47.404031 149.038925 43.338542 
C 139.223967 39.273053 128.703634 37.180429 118.08 37.180429 
C 107.456366 37.180429 96.936033 39.273053 87.121075 43.338542 
C 77.306116 47.404031 68.387409 53.363321 60.875365 60.875365 
C 53.363321 68.387409 47.404031 77.306116 43.338542 87.121075 
C 39.273053 96.936033 37.180429 107.456366 37.180429 118.08 
C 37.180429 128.703634 39.273053 139.223967 43.338542 149.038925 
C 47.404031 158.853884 53.363321 167.772591 60.875365 175.284635 
C 68.387409 182.796679 77.306116 188.755969 87.121075 192.821458 
C 96.936033 196.886947 107.456366 198.979571 118.08 198.979571 
C 128.703634 198.979571 139.223967 196.886947 149.038925 192.821458 
C 158.853884 188.755969 167.772591 182.796679 175.284635 175.284635 
C 182.796679 167.772591 188.755969 158.853884 192.821458 149.038925 
C 196.886947 139.223967 198.979571 128.703634 198.979571 118.08 
C 198.979571 107.456366 196.886947 96.936033 192.821458 87.121075 
C 188.755969 77.306116 182.796679 68.387409 175.284635 60.875365 
C 167.772591 53.363321 158.853884 47.404031 149.038925 43.338542 
C 139.223967 39.273053 128.703634 37.180429 118.08 37.180429 
C 107.456366 37.180429 96.936033 39.273053 87.121075 43.338542 
C 77.306116 47.404031 68.387409 53.363321 60.875365 60.875365 
C 53.363321 68.387409 47.404031 77.306116 43.338542 87.121075 
C 39.273053 96.936033 37.180429 107.456366 37.180429 118.08 
C 37.180429 128.703634 39.273053 139.223967 43.338542 149.038925 
C 47.404031 158.853884 53.363321 167.772591 60.875365 175.284635 
C 68.387409 182.796679 77.306116 188.755969 87.121075 192.821458 
C 96.936033 196.886947 107.456366 198.979571 118.08 198.979571 
C 128.703634 198.979571 139.223967 196.886947 149.038925 192.821458 
C 158.853884 188.755969 167.772591 182.796679 175.284635 175.284635 
C 182.796679 167.772591 188.755969 158.853884 192.821458 149.038925 
C 196.886947 139.223967 198.979571 128.703634 198.979571 118.08 
C 198.979571 107.456366 196.886947 96.936033 192.821458 87.121075 
C 188.755969 77.306116 182.796679 68.387409 175.284635 60.875365 
C 167.772591 53.363321 158.853884 47.404031 149.038925 43.338542 
C 139.223967 39.273053 128.703634 37.180429 118.08 37.180429 
C 107.456366 37.180429 96.936033 39.273053 87.121075 43.338542 
C 77.306116 47.404031 68.387409 53.363321 60.875365 60.875365 
C 53.363321 68.387409 47.404031 77.306116 43.338542 87.121075 
C 39.273053 96.936033 37.180429 107.456366 37.180429 118.08 
C 37.180429 128.703634 39.273053 139.223967 43.338542 149.038925 
C 47.404031 158.853884 53.363321 167.772591 60.875365 175.284635 
C 68.387409 182.796679 77.306116 188.755969 87.121075 192.821458 
C 96.936033 196.886947 107.456366 198.979571 118.08 198.979571 
C 128.703634 198.979571 139.223967 196.886947 149.038925 192.821458 
C 158.853884 188.755969 167.772591 182.796679 175.284635 175.284635 
C 182.796679 167.772591 188.755969 158.853884 192.821458 149.038925 
C 196.886947 139.223967 198.979571 128.703634 198.979571 118.08 
C 198.979571 107.456366 196.886947 96.936033 192.821458 87.121075 
C 188.755969 77.306116 182.796679 68.387409 175.284635 60.875365 
C 167.772591 53.363321 158.853884 47.404031 149.038925 43.338542 
C 139.223967 39.273053 128.703634 37.180429 118.08 37.180429 
C 107.456366 37.180429 96.936033 39.273053 87.121075 43.338542 
C 77.306116 47.404031 68.387409 53.363321 60.875365 60.875365 
C 53.363321 68.387409 47.404031 77.306116 43.338542 87.121075 
C 39.273053 96.936033 37.180429 107.456366 37.180429 118.08 
C 37.180429 128.703634 39.273053 139.223967 43.338542 149.038925 
C 47.404031 158.853884 53.363321 167.772591 60.875365 175.284635 
C 68.387409 182.796679 77.306116 188.755969 87.121075 192.821458 
C 96.936033 196.886947 107.456366 198.979571 118.08 198.979571 
C 128.703634 198.979571 139.223967 196.886947 149.038925 192.821458 
C 158.853884 188.755969 167.772591 182.796679 175.284635 175.284635 
C 182.796679 167.772591 188.755969 158.853884 192.821458 149.038925 
C 196.886947 139.223967 198.979571 128.703634 198.979571 118.08 
C 198.979571 107.456366 196.886947 96.936033 192.821458 87.121075 
C 188.755969 77.306116 182.796679 68.387409 175.284635 60.875365 
C 167.772591 53.363321 158.853884 47.404031 149.038925 43.338542 
C 139.223967 39.273053 128.703634 37.180429 118.08 37.180429 
C 107.456366 37.180429 96.936033 39.273053 87.121075 43.338542 
C 77.306116 47.404031 68.387409 53.363321 60.875365 60.875365 
C 53.363321 68.387409 47.404031 77.306116 43.338542 87.121075 
C 39.273053 96.936033 37.180429 107.456366 37.180429 118.08 
C 37.180429 128.703634 39.273053 139.223967 43.338542 149.038925 
C 47.404031 158.853884 53.363321 167.772591 60.875365 175.284635 
C 68.387409 182.796679 77.306116 188.755969 87.121075 192.821458 
C 96.936033 196.886947 107.456366 198.979571 118.08 198.979571 
C 128.703634 198.979571 139.223967 196.886947 149.038925 192.821458 
C 158.853884 188.755969 167.772591 182.796679 175.284635 175.284635 
C 182.796679 167.772591 188.755969 158.853884 192.821458 149.038925 
C 196.886947 139.223967 198.979571 128.703634 198.979571 118.08 
C 198.979571 107.456366 196.886947 96.936033 192.821458 87.121075 
C 188.755969 77.306116 182.796679 68.387409 175.284635 60.875365 
C 167.772591 53.363321 158.853884 47.404031 149.038925 43.338542 
C 139.223967 39.273053 128.703634 37.180429 118.08 37.180429 
C 107.456366 37.180429 96.936033 39.273053 87.121075 43.338542 
C 77.306116 47.404031 68.387409 53.363321 60.875365 60.875365 
C 53.363321 68.387409 47.404031 77.306116 43.338542 87.121075 
C 39.273053 96.936033 37.180429 107.456366 37.180429 118.08 
C 37.180429 128.703634 39.273053 139.223967 43.338542 149.038925 
C 47.404031 158.853884 53.363321 167.772591 60.875365 175.284635 
C 68.387409 182.796679 77.306116 188.755969 87.121075 192.821458 
C 96.936033 196.886947 107.456366 198.979571 118.08 198.979571 
C 128.703634 198.979571 139.223967 196.886947 149.038925 192.821458 
C 158.853884 188.755969 167.772591 182.796679 175.284635 175.284635 
C 182.796679 167.772591 188.755969 158.853884 192.821458 149.038925 
C 196.886947 139.223967 198.979571 128.703634 198.979571 118.08 
C 198.979571 107.456366 196.886947 96.936033 192.821458 87.121075 
C 188.755969 77.306116 182.796679 68.387409 175.284635 60.875365 
C 167.772591 53.363321 158.853884 47.404031 149.038925 43.338542 
C 139.223967 39.273053 128.703634 37.180429 118.08 37.180429 
C 107.456366 37.180429 96.936033 39.273053 87.121075 43.338542 
C 77.306116 47.404031 68.387409 53.363321 60.875365 60.875365 
C 53.363321 68.387409 47.404031 77.306116 43.338542 87.121075 
C 39.273053 96.936033 37.180429 107.456366 37.180429 118.08 
C 37.180429 128.703634 39.273053 139.223967 43.338542 149.038925 
C 47.404031 158.853884 53.363321 167.772591 60.875365 175.284635 
C 68.387409 182.796679 77.306116 188.755969 87.121075 192.821458 
C 96.936033 196.886947 107.456366 198.979571 118.08 198.979571 
C 128.703634 198.979571 139.223967 196.886947 149.038925 192.821458 
C 158.853884 188.755969 167.772591 182.796679 175.284635 175.284635 
C 182.796679 167.772591 188.755969 158.853884 192.821458 149.038925 
C 196.886947 139.223967 198.979571 128.703634 198.979571 118.08 
C 198.979571 107.456366 196.886947 96.936033 192.821458 87.121075 
C 188.755969 77.306116 182.796679 68.387409 175.284635 60.875365 
C 167.772591 53.363321 158.853884 47.404031 149.038925 43.338542 
C 139.223967 39.273053 128.703634 37.180429 118.08 37.180429 
C 107.456366 37.180429 96.936033 39.273053 87.121075 43.338542 
C 77.306116 47.404031 68.387409 53.363321 60.875365 60.875365 
C 53.363321 68.387409 47.404031 77.306116 43.338542 87.121075 
C 39.273053 96.936033 37.180429 107.456366 37.180429 118.08 
C 37.180429 128.703634 39.273053 139.223967 43.338542 149.038925 
C 47.404031 158.853884 53.363321 167.772591 60.875365 175.284635 
C 68.387409 182.796679 77.306116 188.755969 87.121075 192.821458 
C 96.936033 196.886947 107.456366 198.979571 118.08 198.979571 
C 128.703634 198.979571 139.223967 196.886947 149.038925 192.821458 
C 158.853884 188.755969 167.772591 182.796679 175.284635 175.284635 
C 182.796679 167.772591 188.755969 158.853884 192.821458 149.038925 
C 196.886947 139.223967 198.979571 128.703634 198.979571 118.08 
C 198.979571 107.456366 196.886947 96.936033 192.821458 87.121075 
C 188.755969 77.306116 182.796679 68.387409 175.284635 60.875365 
C 167.772591 53.363321 158.853884 47.404031 149.038925 43.338542 
C 139.223967 39.273053 128.703634 37.180429 118.08 37.180429 
C 107.456366 37.180429 96.936033 39.273053 87.121075 43.338542 
C 77.306116 47.404031 68.387409 53.363321 60.875365 60.875365 
C 53.363321 68.387409 47.404031 77.306116 43.338542 87.121075 
C 39.273053 96.936033 37.180429 107.456366 37.180429 118.08 
C 37.180429 128.703634 39.273053 139.223967 43.338542 149.038925 
C 47.404031 158.853884 53.363321 167.772591 60.875365 175.284635 
C 68.387409 182.796679 77.306116 188.755969 87.121075 192.821458 
C 96.936033 196.886947 107.456366 198.979571 118.08 198.979571 
C 128.703634 198.979571 139.223967 196.886947 149.038925 192.821458 
C 158.853884 188.755969 167.772591 182.796679 175.284635 175.284635 
C 182.796679 167.772591 188.755969 158.853884 192.821458 149.038925 
C 196.886947 139.223967 198.979571 128.703634 198.979571 118.08 
C 198.979571 112.780886 198.458914 107.494569 197.425108 102.297277 
C 196.391302 97.099984 194.849341 92.016817 192.821458 87.121075 
C 190.793575 82.225332 188.289565 77.540659 185.345535 73.134607 
C 182.401505 68.728555 179.031674 64.622404 175.284635 60.875365 
C 171.537596 57.128326 167.431445 53.758495 163.025393 50.814465 
C 158.619341 47.870435 153.934668 45.366425 149.038925 43.338542 
C 144.143183 41.310659 139.060016 39.768698 133.862723 38.734892 
C 128.665431 37.701086 123.379114 37.180429 118.08 37.180429 
C 112.780886 37.180429 107.494569 37.701086 102.297277 38.734892 
C 97.099984 39.768698 92.016817 41.310659 87.121075 43.338542 
C 82.225332 45.366425 77.540659 47.870435 73.134607 50.814465 
C 68.728555 53.758495 64.622404 57.128326 60.875365 60.875365 
C 57.128326 64.622404 53.758495 68.728555 50.814465 73.134607 
C 47.870435 77.540659 45.366425 82.225332 43.338542 87.121075 
C 41.310659 92.016817 39.768698 97.099984 38.734892 102.297277 
C 37.701086 107.494569 37.180429 112.780886 37.180429 118.08 
C 37.180429 123.379114 37.701086 128.665431 38.734892 133.862723 
C 39.768698 139.060016 41.310659 144.143183 43.338542 149.038925 
C 45.366425 153.934668 47.870435 158.619341 50.814465 163.025393 
C 53.758495 167.431445 57.128326 171.537596 60.875365 175.284635 
C 64.622404 179.031674 68.728555 182.401505 73.134607 185.345535 
C 77.540659 188.289565 82.225332 190.793575 87.121075 192.821458 
C 92.016817 194.849341 97.099984 196.391302 102.297277 197.425108 
C 107.494569 198.458914 112.780886 198.979571 118.08 198.979571 
C 123.379114 198.979571 128.665431 198.458914 133.862723 197.425108 
C 139.060016 196.391302 144.143183 194.849341 149.038925 192.821458 
C 153.934668 190.793575 158.619341 188.289565 163.025393 185.345535 
C 167.431445 182.401505 171.537596 179.031674 175.284635 175.284635 
C 179.031674 171.537596 182.401505 167.431445 185.345535 163.025393 
C 188.289565 158.619341 190.793575 153.934668 192.821458 149.038925 
C 194.849341 144.143183 196.391302 139.060016 197.425108 133.862723 
C 198.458914 128.665431 198.979571 123.379114 198.979571 118.08 
C 198.979571 108.13357 197.145232 98.271893 193.568766 88.99071 
C 189.992299 79.709526 184.734655 71.167006 178.060132 63.792577 
C 171.385609 56.418147 163.407953 50.337482 154.528197 45.856254 
C 145.648441 41.375026 136.017913 38.569603 126.120733 37.581011 
C 116.223554 36.59242 106.22839 37.437509 96.637693 40.073795 
C 87.046996 42.710081 78.02421 47.092637 70.022904 53.001155 
C 62.021599 58.909672 55.178132 66.243459 49.83652 74.63385 
C 44.494908 83.024241 40.746183 92.328247 38.778791 102.078162 
C 36.811399 111.828077 36.658868 121.857743 38.328866 131.662976 
C 39.998864 141.468208 43.462931 150.881906 48.54693 159.430849 
C 53.630929 167.979792 60.248219 175.51829 68.066153 181.667386 
C 75.884087 187.816482 84.769432 192.471384 94.275527 195.398094 
C 103.781622 198.324803 113.746465 199.473443 123.66913 198.786271 
C 133.591794 198.099099 143.303178 195.587827 152.315097 191.378695 
C 161.327016 187.169563 169.485888 181.334302 176.381573 174.166247 
C 183.277258 166.998193 188.792239 158.619503 192.649282 149.451368 
L 218.967852 160.523615 
C 216.187695 167.132009 212.764953 173.451283 208.748982 179.390317 
C 204.733011 185.32935 200.143207 190.859458 195.045753 195.900897 
C 189.9483 200.942336 184.367817 205.470758 178.384774 209.420864 
C 172.401731 213.37097 166.045024 216.723681 159.406316 219.430653 
C 152.767608 222.137624 145.878962 224.185782 138.839711 225.545593 
C 131.80046 226.905403 124.644602 227.570298 117.475322 227.53069 
C 110.306042 227.491082 103.157967 226.747163 96.13417 225.309659 
C 89.110373 223.872155 82.244778 221.74801 75.636385 218.967852 
C 69.027991 216.187695 62.708717 212.764953 56.769683 208.748982 
C 50.83065 204.733011 45.300542 200.143207 40.259103 195.045753 
C 35.217664 189.9483 30.689242 184.367817 26.739136 178.384774 
C 22.78903 172.401731 19.436319 166.045024 16.729347 159.406316 
C 14.022376 152.767608 11.974218 145.878962 10.614407 138.839711 
C 9.254597 131.80046 8.589702 124.644602 8.62931 117.475322 
C 8.668918 110.306042 9.412837 103.157967 10.850341 96.13417 
C 12.287845 89.110373 14.41199 82.244778 17.192148 75.636385 
C 19.972305 69.027991 23.395047 62.708717 27.411018 56.769683 
C 31.426989 50.83065 36.016793 45.300542 41.114247 40.259103 
C 46.2117 35.217664 51.792183 30.689242 57.775226 26.739136 
C 63.758269 22.78903 70.114976 19.436319 76.753684 16.729347 
C 83.392392 14.022376 90.281038 11.974218 97.320289 10.614407 
C 104.35954 9.254597 111.515398 8.589702 118.684678 8.62931 
C 125.853958 8.668918 133.002033 9.412837 140.02583 10.850341 
C 147.049627 12.287845 153.915222 14.41199 160.523615 17.192148 
C 167.132009 19.972305 173.451283 23.395047 179.390317 27.411018 
C 185.32935 31.426989 190.859458 36.016793 195.900897 41.114247 
C 200.942336 46.2117 205.470758 51.792183 209.420864 57.775226 
C 213.37097 63.758269 216.723681 70.114976 219.430653 76.753684 
C 222.137624 83.392392 224.185782 90.281038 225.545593 97.320289 
C 226.905403 104.35954 227.570298 111.515398 227.53069 118.684678 
C 227.491082 125.853958 226.747163 133.002033 225.309659 140.02583 
C 223.872155 147.049627 221.74801 153.915222 218.967852 160.523615 
C 213.394208 173.772087 205.2651 185.793847 195.045753 195.900897 
C 184.826407 206.007947 172.715562 214.003731 159.406316 219.430653 
C 146.09707 224.857575 131.848255 227.610096 117.475322 227.53069 
C 103.102389 227.451285 88.884856 224.541497 75.636385 218.967852 
C 62.387913 213.394208 50.366153 205.2651 40.259103 195.045753 
C 30.152053 184.826407 22.156269 172.715562 16.729347 159.406316 
C 11.302425 146.09707 8.549904 131.848255 8.62931 117.475322 
C 8.708715 103.102389 11.618503 88.884856 17.192148 75.636385 
C 22.765792 62.387913 30.8949 50.366153 41.114247 40.259103 
C 51.333593 30.152053 63.444438 22.156269 76.753684 16.729347 
C 90.06293 11.302425 104.311745 8.549904 118.684678 8.62931 
C 133.057611 8.708715 147.275144 11.618503 160.523615 17.192148 
C 173.772087 22.765792 185.793847 30.8949 195.900897 41.114247 
C 206.007947 51.333593 214.003731 63.444438 219.430653 76.753684 
C 224.857575 90.06293 227.610096 104.311745 227.53069 118.684678 
C 227.451285 133.057611 224.541497 147.275144 218.967852 160.523615 
C 213.394208 173.772087 205.2651 185.793847 195.045753 195.900897 
C 184.826407 206.007947 172.715562 214.003731 159.406316 219.430653 
C 146.09707 224.857575 131.848255 227.610096 117.475322 227.53069 
C 103.102389 227.451285 88.884856 224.541497 75.636385 218.967852 
C 62.387913 213.394208 50.366153 205.2651 40.259103 195.045753 
C 30.152053 184.826407 22.156269 172.715562 16.729347 159.406316 
C 11.302425 146.09707 8.549904 131.848255 8.62931 117.475322 
C 8.708715 103.102389 11.618503 88.884856 17.192148 75.636385 
C 22.765792 62.387913 30.8949 50.366153 41.114247 40.259103 
C 51.333593 30.152053 63.444438 22.156269 76.753684 16.729347 
C 90.06293 11.302425 104.311745 8.549904 118.684678 8.62931 
C 133.057611 8.708715 147.275144 11.618503 160.523615 17.192148 
C 173.772087 22.765792 185.793847 30.8949 195.900897 41.114247 
C 206.007947 51.333593 214.003731 63.444438 219.430653 76.753684 
C 224.857575 90.06293 227.610096 104.311745 227.53069 118.684678 
C 227.451285 133.057611 224.541497 147.275144 218.967852 160.523615 
C 213.394208 173.772087 205.2651 185.793847 195.045753 195.900897 
C 184.826407 206.007947 172.715562 214.003731 159.406316 219.430653 
C 146.09707 224.857575 131.848255 227.610096 117.475322 227.53069 
C 103.102389 227.451285 88.884856 224.541497 75.636385 218.967852 
C 62.387913 213.394208 50.366153 205.2651 40.259103 195.045753 
C 30.152053 184.826407 22.156269 172.715562 16.729347 159.406316 
C 11.302425 146.09707 8.549904 131.848255 8.62931 117.475322 
C 8.708715 103.102389 11.618503 88.884856 17.192148 75.636385 
C 22.765792 62.387913 30.8949 50.366153 41.114247 40.259103 
C 51.333593 30.152053 63.444438 22.156269 76.753684 16.729347 
C 90.06293 11.302425 104.311745 8.549904 118.684678 8.62931 
C 133.057611 8.708715 147.275144 11.618503 160.523615 17.192148 
C 173.772087 22.765792 185.793847 30.8949 195.900897 41.114247 
C 206.007947 51.333593 214.003731 63.444438 219.430653 76.753684 
C 224.857575 90.06293 227.610096 104.311745 227.53069 118.684678 
C 227.451285 133.057611 224.541497 147.275144 218.967852 160.523615 
C 213.394208 173.772087 205.2651 185.793847 195.045753 195.900897 
C 184.826407 206.007947 172.715562 214.003731 159.406316 219.430653 
C 146.09707 224.857575 131.848255 227.610096 117.475322 227.53069 
C 103.102389 227.451285 88.884856 224.541497 75.636385 218.967852 
C 62.387913 213.394208 50.366153 205.2651 40.259103 195.045753 
C 30.152053 184.826407 22.156269 172.715562 16.729347 159.406316 
C 11.302425 146.09707 8.549904 131.848255 8.62931 117.475322 
C 8.708715 103.102389 11.618503 88.884856 17.192148 75.636385 
C 22.765792 62.387913 30.8949 50.366153 41.114247 40.259103 
C 51.333593 30.152053 63.444438 22.156269 76.753684 16.729347 
C 90.06293 11.302425 104.311745 8.549904 118.684678 8.62931 
C 133.057611 8.708715 147.275144 11.618503 160.523615 17.192148 
C 173.772087 22.765792 185.793847 30.8949 195.900897 41.114247 
C 206.007947 51.333593 214.003731 63.444438 219.430653 76.753684 
C 224.857575 90.06293 227.610096 104.311745 227.53069 118.684678 
C 227.451285 133.057611 224.541497 147.275144 218.967852 160.523615 
C 213.394208 173.772087 205.2651 185.793847 195.045753 195.900897 
C 184.826407 206.007947 172.715562 214.003731 159.406316 219.430653 
C 146.09707 224.857575 131.848255 227.610096 117.475322 227.53069 
C 103.102389 227.451285 88.884856 224.541497 75.636385 218.967852 
C 62.387913 213.394208 50.366153 205.2651 40.259103 195.045753 
C 30.152053 184.826407 22.156269 172.715562 16.729347 159.406316 
C 11.302425 146.09707 8.549904 131.848255 8.62931 117.475322 
C 8.708715 103.102389 11.618503 88.884856 17.192148 75.636385 
C 22.765792 62.387913 30.8949 50.366153 41.114247 40.259103 
C 51.333593 30.152053 63.444438 22.156269 76.753684 16.729347 
C 90.06293 11.302425 104.311745 8.549904 118.684678 8.62931 
C 133.057611 8.708715 147.275144 11.618503 160.523615 17.192148 
C 173.772087 22.765792 185.793847 30.8949 195.900897 41.114247 
C 206.007947 51.333593 214.003731 63.444438 219.430653 76.753684 
C 224.857575 90.06293 227.610096 104.311745 227.53069 118.684678 
C 227.451285 133.057611 224.541497 147.275144 218.967852 160.523615 
C 213.394208 173.772087 205.2651 185.793847 195.045753 195.900897 
C 184.826407 206.007947 172.715562 214.003731 159.406316 219.430653 
C 146.09707 224.857575 131.848255 227.610096 117.475322 227.53069 
C 103.102389 227.451285 88.884856 224.541497 75.636385 218.967852 
C 62.387913 213.394208 50.366153 205.2651 40.259103 195.045753 
C 30.152053 184.826407 22.156269 172.715562 16.729347 159.406316 
C 11.302425 146.09707 8.549904 131.848255 8.62931 117.475322 
C 8.708715 103.102389 11.618503 88.884856 17.192148 75.636385 
C 22.765792 62.387913 30.8949 50.366153 41.114247 40.259103 
C 51.333593 30.152053 63.444438 22.156269 76.753684 16.729347 
C 90.06293 11.302425 104.311745 8.549904 118.684678 8.62931 
C 133.057611 8.708715 147.275144 11.618503 160.523615 17.192148 
C 173.772087 22.765792 185.793847 30.8949 195.900897 41.114247 
C 206.007947 51.333593 214.003731 63.444438 219.430653 76.753684 
C 224.857575 90.06293 227.610096 104.311745 227.53069 118.684678 
C 227.451285 133.057611 224.541497 147.275144 218.967852 160.523615 
C 213.394208 173.772087 205.2651 185.793847 195.045753 195.900897 
C 184.826407 206.007947 172.715562 214.003731 159.406316 219.430653 
C 146.09707 224.857575 131.848255 227.610096 117.475322 227.53069 
C 103.102389 227.451285 88.884856 224.541497 75.636385 218.967852 
C 62.387913 213.394208 50.366153 205.2651 40.259103 195.045753 
C 30.152053 184.826407 22.156269 172.715562 16.729347 159.406316 
C 11.302425 146.09707 8.549904 131.848255 8.62931 117.475322 
C 8.708715 103.102389 11.618503 88.884856 17.192148 75.636385 
C 22.765792 62.387913 30.8949 50.366153 41.114247 40.259103 
C 51.333593 30.152053 63.444438 22.156269 76.753684 16.729347 
C 90.06293 11.302425 104.311745 8.549904 118.684678 8.62931 
C 133.057611 8.708715 147.275144 11.618503 160.523615 17.192148 
C 173.772087 22.765792 185.793847 30.8949 195.900897 41.114247 
C 206.007947 51.333593 214.003731 63.444438 219.430653 76.753684 
C 224.857575 90.06293 227.610096 104.311745 227.53069 118.684678 
C 227.451285 133.057611 224.541497 147.275144 218.967852 160.523615 
C 213.394208 173.772087 205.2651 185.793847 195.045753 195.900897 
C 184.826407 206.007947 172.715562 214.003731 159.406316 219.430653 
C 146.09707 224.857575 131.848255 227.610096 117.475322 227.53069 
C 103.102389 227.451285 88.884856 224.541497 75.636385 218.967852 
C 62.387913 213.394208 50.366153 205.2651 40.259103 195.045753 
C 30.152053 184.826407 22.156269 172.715562 16.729347 159.406316 
C 11.302425 146.09707 8.549904 131.848255 8.62931 117.475322 
C 8.708715 103.102389 11.618503 88.884856 17.192148 75.636385 
C 22.765792 62.387913 30.8949 50.366153 41.114247 40.259103 
C 51.333593 30.152053 63.444438 22.156269 76.753684 16.729347 
C 90.06293 11.302425 104.311745 8.549904 118.684678 8.62931 
C 133.057611 8.708715 147.275144 11.618503 160.523615 17.192148 
C 173.772087 22.765792 185.793847 30.8949 195.900897 41.114247 
C 206.007947 51.333593 214.003731 63.444438 219.430653 76.753684 
C 224.857575 90.06293 227.610096 104.311745 227.53069 118.684678 
C 227.451285 133.057611 224.541497 147.275144 218.967852 160.523615 
C 216.187695 167.132009 212.764953 173.451283 208.748982 179.390317 
C 204.733011 185.32935 200.143207 190.859458 195.045753 195.900897 
C 189.9483 200.942336 184.367817 205.470758 178.384774 209.420864 
C 172.401731 213.37097 166.045024 216.723681 159.406316 219.430653 
C 152.767608 222.137624 145.878962 224.185782 138.839711 225.545593 
C 131.80046 226.905403 124.644602 227.570298 117.475322 227.53069 
C 110.306042 227.491082 103.157967 226.747163 96.13417 225.309659 
C 89.110373 223.872155 82.244778 221.74801 75.636385 218.967852 
C 69.027991 216.187695 62.708717 212.764953 56.769683 208.748982 
C 50.83065 204.733011 45.300542 200.143207 40.259103 195.045753 
C 35.217664 189.9483 30.689242 184.367817 26.739136 178.384774 
C 22.78903 172.401731 19.436319 166.045024 16.729347 159.406316 
C 14.022376 152.767608 11.974218 145.878962 10.614407 138.839711 
C 9.254597 131.80046 8.589702 124.644602 8.62931 117.475322 
C 8.668918 110.306042 9.412837 103.157967 10.850341 96.13417 
C 12.287845 89.110373 14.41199 82.244778 17.192148 75.636385 
C 19.972305 69.027991 23.395047 62.708717 27.411018 56.769683 
C 31.426989 50.83065 36.016793 45.300542 41.114247 40.259103 
C 46.2117 35.217664 51.792183 30.689242 57.775226 26.739136 
C 63.758269 22.78903 70.114976 19.436319 76.753684 16.729347 
C 83.392392 14.022376 90.281038 11.974218 97.320289 10.614407 
C 104.35954 9.254597 111.515398 8.589702 118.684678 8.62931 
C 125.853958 8.668918 133.002033 9.412837 140.02583 10.850341 
C 147.049627 12.287845 153.915222 14.41199 160.523615 17.192148 
C 167.132009 19.972305 173.451283 23.395047 179.390317 27.411018 
C 185.32935 31.426989 190.859458 36.016793 195.900897 41.114247 
C 200.942336 46.2117 205.470758 51.792183 209.420864 57.775226 
C 213.37097 63.758269 216.723681 70.114976 219.430653 76.753684 
C 222.137624 83.392392 224.185782 90.281038 225.545593 97.320289 
C 226.905403 104.35954 227.570298 111.515398 227.53069 118.684678 
C 227.491082 125.853958 226.747163 133.002033 225.309659 140.02583 
C 223.872155 147.049627 221.74801 153.915222 218.967852 160.523615 
C 213.394208 173.772087 205.2651 185.793847 195.045753 195.900897 
C 184.826407 206.007947 172.715562 214.003731 159.406316 219.430653 
C 146.09707 224.857575 131.848255 227.610096 117.475322 227.53069 
C 103.102389 227.451285 88.884856 224.541497 75.636385 218.967852 
C 62.387913 213.394208 50.366153 205.2651 40.259103 195.045753 
C 30.152053 184.826407 22.156269 172.715562 16.729347 159.406316 
C 11.302425 146.09707 8.549904 131.848255 8.62931 117.475322 
C 8.708715 103.102389 11.618503 88.884856 17.192148 75.636385 
C 22.765792 62.387913 30.8949 50.366153 41.114247 40.259103 
C 51.333593 30.152053 63.444438 22.156269 76.753684 16.729347 
C 90.06293 11.302425 104.311745 8.549904 118.684678 8.62931 
C 133.057611 8.708715 147.275144 11.618503 160.523615 17.192148 
C 173.772087 22.765792 185.793847 30.8949 195.900897 41.114247 
C 206.007947 51.333593 214.003731 63.444438 219.430653 76.753684 
C 224.857575 90.06293 227.610096 104.311745 227.53069 118.684678 
C 227.451285 133.057611 224.541497 147.275144 218.967852 160.523615 
C 213.7495 172.927562 206.288055 184.263437 196.958599 193.961393 
C 187.629143 203.65935 176.590668 211.554114 164.398072 217.248823 
C 152.205476 222.943531 139.066545 226.341135 125.641764 227.270837 
C 112.216982 228.20054 98.735136 226.646498 85.873948 222.686833 
C 73.01276 218.727167 60.991411 212.429358 50.414207 204.109993 
C 39.837002 195.790627 30.884198 185.591484 24.005846 174.025266 
C 17.127495 162.459049 12.440816 149.72287 10.181407 136.456967 
C 7.921998 123.191064 8.128363 109.621516 10.790129 96.430454 
C 13.451895 83.239393 18.523699 70.65162 25.750585 59.299915 
C 32.977472 47.948209 42.23628 38.026027 53.061576 30.03215 
C 63.886872 22.038273 76.094171 16.108933 89.06982 12.542193 
C 102.045469 8.975453 115.568338 7.832098 128.958639 9.169604 
C 142.348941 10.507109 155.378479 14.302682 167.392267 20.36552 
C 179.406054 26.428358 190.199353 34.65514 199.22959 44.63231 
C 208.259828 54.609479 215.373111 66.167006 220.211859 78.723901 
C 225.050608 91.280796 227.532361 104.623065 227.532361 118.08 
z
" clip-path="url(#p545218759a)" style="fill: #58a6ff"/>
   </g>
  </g>
  <g id="text_1">
   <!-- C++ -->
   <g style="fill: #c9d1d9" transform="translate(95.20125 112.09675) scale(0.16 -0.16)">
    <defs>
     <path id="DejaVuSans-Bold-43" d="M 4288 256 
Q 3956 84 3597 -3 
Q 3238 -91 2847 -91 
Q 1681 -91 1000 561 
Q 319 1213 319 2328 
Q 319 3447 1000 4098 
Q 1681 4750 2847 4750 
Q 3238 4750 3597 4662 
Q 3956 4575 4288 4403 
L 4288 3438 
Q 3953 3666 3628 3772 
Q 3303 3878 2944 3878 
Q 2300 3878 1931 3465 
Q 1563 3053 1563 2328 
Q 1563 1606 1931 1193 
Q 2300 781 2944 781 
Q 3303 781 3628 887 
Q 3953 994 4288 1222 
L 4288 256 
z
" transform="scale(0.015625)"/>
     <path id="DejaVuSans-Bold-2b" d="M 3053 4013 
L 3053 2375 
L 4684 2375 
L 4684 1638 
L 3053 1638 
L 3053 0 
L 2309 0 
L 2309 1638 
L 678 1638 
L 678 2375 
L 2309 2375 
L 2309 4013 
L 3053 4013 
z
" transform="scale(0.015625)"/>
    </defs>
    <use xlink:href="#DejaVuSans-Bold-43"/>
    <use xlink:href="#DejaVuSans-Bold-2b" transform="translate(73.388672 0)"/>
    <use xlink:href="#DejaVuSans-Bold-2b" transform="translate(157.177734 0)"/>
   </g>
   <!-- 75% -->
   <g style="fill: #c9d1d9" transform="translate(95.33125 130.01325) scale(0.16 -0.16)">
    <defs>
     <path id="DejaVuSans-Bold-37" d="M 428 4666 
L 3944 4666 
L 3944 3988 
L 2125 0 
L 953 0 
L 2675 3781 
L 428 3781 
L 428 4666 
z
" transform="scale(0.015625)"/>
     <path id="DejaVuSans-Bold-35" d="M 678 4666 
L 3669 4666 
L 3669 3781 
L 1638 3781 
L 1638 3059 
Q 1775 3097 1914 3117 
Q 2053 3138 2203 3138 
Q 3056 3138 3531 2711 
Q 4006 2284 4006 1522 
Q 4006 766 3489 337 
Q 2972 -91 2053 -91 
Q 1656 -91 1267 -14 
Q 878 63 494 219 
L 494 1166 
Q 875 947 1217 837 
Q 1559 728 1863 728 
Q 2300 728 2551 942 
Q 2803 1156 2803 1522 
Q 2803 1891 2551 2103 
Q 2300 2316 1863 2316 
Q 1603 2316 1309 2248 
Q 1016 2181 678 2041 
L 678 4666 
z
" transform="scale(0.015625)"/>
     <path id="DejaVuSans-Bold-25" d="M 4959 1925 
Q 4738 1925 4616 1733 
Q 4494 1541 4494 1184 
Q 4494 825 4614 633 
Q 4734 441 4959 441 
Q 5184 441 5303 633 
Q 5422 825 5422 1184 
Q 5422 1541 5301 1733 
Q 5181 1925 4959 1925 
z
M 4959 2450 
Q 5541 2450 5875 2112 
Q 6209 1775 6209 1184 
Q 6209 594 5875 251 
Q 5541 -91 4959 -91 
Q 4378 -91 4042 251 
Q 3706 594 3706 1184 
Q 3706 1772 4042 2111 
Q 4378 2450 4959 2450 
z
M 2094 -91 
L 1403 -91 
L 4319 4750 
L 5013 4750 
L 2094 -91 
z
M 1453 4750 
Q 2034 4750 2367 4411 
Q 2700 4072 2700 3481 
Q 2700 2891 2367 2550 
Q 2034 2209 1453 2209 
Q 872 2209 539 2550 
Q 206 2891 206 3481 
Q 206 4072 539 4411 
Q 872 4750 1453 4750 
z
M 1453 4225 
Q 1228 4225 1106 4031 
Q 984 3838 984 3481 
Q 984 3122 1106 2926 
Q 1228 2731 1453 2731 
Q 1678 2731 1798 2926 
Q 1919 3122 1919 3481 
Q 1919 3838 1797 4031 
Q 1675 4225 1453 4225 
z
" transform="scale(0.015625)"/>
    </defs>
    <use xlink:href="#DejaVuSans-Bold-37"/>
    <use xlink:href="#DejaVuSans-Bold-35" transform="translate(69.580078 0)"/>
    <use xlink:href="#DejaVuSans-Bold-25" transform="translate(139.160156 0)"/>
   </g>
  </g>
 </g>
 <defs>
  <clipPath id="p545218759a">
   <path d="M 228.96 118.08 
C 228.96 103.519372 226.091874 89.100327 220.519763 75.648061 
C 214.947651 62.195795 206.779919 49.971919 196.484 39.676 
C 186.188081 29.380081 173.964205 21.212349 160.511939 15.640237 
C 147.059673 10.068126 132.640628 7.2 118.08 7.2 
C 103.519372 7.2 89.100327 10.068126 75.648061 15.640237 
C 62.195795 21.212349 49.971919 29.380081 39.676 39.676 
C 29.380081 49.971919 21.212349 62.195795 15.640237 75.648061 
C 10.068126 89.100327 7.2 103.519372 7.2 118.08 
C 7.2 132.640628 10.068126 147.059673 15.640237 160.511939 
C 21.212349 173.964205 29.380081 186.188081 39.676 196.484 
C 49.971919 206.779919 62.195795 214.947651 75.648061 220.519763 
C 89.100327 226.091874 103.519372 228.96 118.08 228.96 
C 132.640628 228.96 147.059673 226.091874 160.511939 220.519763 
C 173.964205 214.947651 186.188081 206.779919 196.484 196.484 
C 206.779919 186.188081 214.947651 173.964205 220.519763 160.511939 
C 226.091874 147.059673 228.96 132.640628 228.96 118.08 
M 118.08 118.08 
C 118.08 118.08 118.08 118.08 118.08 118.08 
C 118.08 118.08 118.08 118.08 118.08 118.08 
C 118.08 118.08 118.08 118.08 118.08 118.08 
C 118.08 118.08 118.08 118.08 118.08 118.08 
C 118.08 118.08 118.08 118.08 118.08 118.08 
C 118.08 118.08 118.08 118.08 118.08 118.08 
C 118.08 118.08 118.08 118.08 118.08 118.08 
C 118.08 118.08 118.08 118.08 118.08 118.08 
C 118.08 118.08 118.08 118.08 118.08 118.08 
C 118.08 118.08 118.08 118.08 118.08 118.08 
C 118.08 118.08 118.08 118.08 118.08 118.08 
C 118.08 118.08 118.08 118.08 118.08 118.08 
C 118.08 118.08 118.08 118.08 118.08 118.08 
C 118.08 118.08 118.08 118.08 118.08 118.08 
C 118.08 118.08 118.08 118.08 118.08 118.08 
C 118.08 118.08 118.08 118.08 118.08 118.08 
z
"/>
  </clipPath>
 </defs>
</svg>
