<?xml version="1.0" encoding="utf-8" standalone="no"?>
<!DOCTYPE svg PUBLIC "-//W3C//DTD SVG 1.1//EN"
  "http://www.w3.org/Graphics/SVG/1.1/DTD/svg11.dtd">
<svg xmlns:xlink="http://www.w3.org/1999/xlink" width="236.16pt" height="236.16pt" viewBox="0 0 236.16 236.16" xmlns="http://www.w3.org/2000/svg" version="1.1">
 <metadata>
  <rdf:RDF xmlns:dc="http://purl.org/dc/elements/1.1/" xmlns:cc="http://creativecommons.org/ns#" xmlns:rdf="http://www.w3.org/1999/02/22-rdf-syntax-ns#">
   <cc:Work>
    <dc:type rdf:resource="http://purl.org/dc/dcmitype/StillImage"/>
    <dc:date>2025-09-10T14:44:24.588203</dc:date>
    <dc:format>image/svg+xml</dc:format>
    <dc:creator>
     <cc:Agent>
      <dc:title>Matplotlib v3.10.6, https://matplotlib.org/</dc:title>
     </cc:Agent>
    </dc:creator>
   </cc:Work>
  </rdf:RDF>
 </metadata>
 <defs>
  <style type="text/css">*{stroke-linejoin: round; stroke-linecap: butt}</style>
 </defs>
 <g id="figure_1">
  <g id="patch_1">
   <path d="M 0 236.16 
L 236.16 236.16 
L 236.16 0 
L 0 0 
z
" style="fill: #0d1117"/>
  </g>
  <g id="axes_1">
   <g id="patch_2">
    <path d="M 164.28 118.08 
C 164.28 112.013072 163.084947 106.005136 160.763234 100.400025 
C 158.441521 94.794914 155.0383 89.701633 150.748333 85.411667 
C 146.458367 81.1217 141.365086 77.718479 135.759975 75.396766 
C 130.154864 73.075053 124.146928 71.88 118.08 71.88 
C 112.013072 71.88 106.005136 73.075053 100.400025 75.396766 
C 94.794914 77.718479 89.701633 81.1217 85.411667 85.411667 
C 81.1217 89.701633 77.718479 94.794914 75.396766 100.400025 
C 73.075053 106.005136 71.88 112.013072 71.88 118.08 
C 71.88 124.146928 73.075053 130.154864 75.396766 135.759975 
C 77.718479 141.365086 81.1217 146.458367 85.411667 150.748333 
C 89.701633 155.0383 94.794914 158.441521 100.400025 160.763234 
C 106.005136 163.084947 112.013072 164.28 118.08 164.28 
C 124.146928 164.28 130.154864 163.084947 135.759975 160.763234 
C 141.365086 158.441521 146.458367 155.0383 150.748333 150.748333 
C 155.0383 146.458367 158.441521 141.365086 160.763234 135.759975 
C 163.084947 130.154864 164.28 124.146928 164.28 118.08 
C 164.28 112.013072 163.084947 106.005136 160.763234 100.400025 
C 158.441521 94.794914 155.0383 89.701633 150.748333 85.411667 
C 146.458367 81.1217 141.365086 77.718479 135.759975 75.396766 
C 130.154864 73.075053 124.146928 71.88 118.08 71.88 
C 112.013072 71.88 106.005136 73.075053 100.400025 75.396766 
C 94.794914 77.718479 89.701633 81.1217 85.411667 85.411667 
C 81.1217 89.701633 77.718479 94.794914 75.396766 100.400025 
C 73.075053 106.005136 71.88 112.013072 71.88 118.08 
C 71.88 124.146928 73.075053 130.154864 75.396766 135.759975 
C 77.718479 141.365086 81.1217 146.458367 85.411667 150.748333 
C 89.701633 155.0383 94.794914 158.441521 100.400025 160.763234 
C 106.005136 163.084947 112.013072 164.28 118.08 164.28 
C 124.146928 164.28 130.154864 163.084947 135.759975 160.763234 
C 141.365086 158.441521 146.458367 155.0383 150.748333 150.748333 
C 155.0383 146.458367 158.441521 141.365086 160.763234 135.759975 
C 163.084947 130.154864 164.28 124.146928 164.28 118.08 
C 164.28 112.013072 163.084947 106.005136 160.763234 100.400025 
C 158.441521 94.794914 155.0383 89.701633 150.748333 85.411667 
C 146.458367 81.1217 141.365086 77.718479 135.759975 75.396766 
C 130.154864 73.075053 124.146928 71.88 118.08 71.88 
C 112.013072 71.88 106.005136 73.075053 100.400025 75.396766 
C 94.794914 77.718479 89.701633 81.1217 85.411667 85.411667 
C 81.1217 89.701633 77.718479 94.794914 75.396766 100.400025 
C 73.075053 106.005136 71.88 112.013072 71.88 118.08 
C 71.88 124.146928 73.075053 130.154864 75.396766 135.759975 
C 77.718479 141.365086 81.1217 146.458367 85.411667 150.748333 
C 89.701633 155.0383 94.794914 158.441521 100.400025 160.763234 
C 106.005136 163.084947 112.013072 164.28 118.08 164.28 
C 124.146928 164.28 130.154864 163.084947 135.759975 160.763234 
C 141.365086 158.441521 146.458367 155.0383 150.748333 150.748333 
C 155.0383 146.458367 158.441521 141.365086 160.763234 135.759975 
C 163.084947 130.154864 164.28 124.146928 164.28 118.08 
C 164.28 112.013072 163.084947 106.005136 160.763234 100.400025 
C 158.441521 94.794914 155.0383 89.701633 150.748333 85.411667 
C 146.458367 81.1217 141.365086 77.718479 135.759975 75.396766 
C 130.154864 73.075053 124.146928 71.88 118.08 71.88 
C 112.013072 71.88 106.005136 73.075053 100.400025 75.396766 
C 94.794914 77.718479 89.701633 81.1217 85.411667 85.411667 
C 81.1217 89.701633 77.718479 94.794914 75.396766 100.400025 
C 73.075053 106.005136 71.88 112.013072 71.88 118.08 
C 71.88 124.146928 73.075053 130.154864 75.396766 135.759975 
C 77.718479 141.365086 81.1217 146.458367 85.411667 150.748333 
C 89.701633 155.0383 94.794914 158.441521 100.400025 160.763234 
C 106.005136 163.084947 112.013072 164.28 118.08 164.28 
C 124.146928 164.28 130.154864 163.084947 135.759975 160.763234 
C 141.365086 158.441521 146.458367 155.0383 150.748333 150.748333 
C 155.0383 146.458367 158.441521 141.365086 160.763234 135.759975 
C 163.084947 130.154864 164.28 124.146928 164.28 118.08 
C 164.28 112.013072 163.084947 106.005136 160.763234 100.400025 
C 158.441521 94.794914 155.0383 89.701633 150.748333 85.411667 
C 146.458367 81.1217 141.365086 77.718479 135.759975 75.396766 
C 130.154864 73.075053 124.146928 71.88 118.08 71.88 
C 112.013072 71.88 106.005136 73.075053 100.400025 75.396766 
C 94.794914 77.718479 89.701633 81.1217 85.411667 85.411667 
C 81.1217 89.701633 77.718479 94.794914 75.396766 100.400025 
C 73.075053 106.005136 71.88 112.013072 71.88 118.08 
C 71.88 124.146928 73.075053 130.154864 75.396766 135.759975 
C 77.718479 141.365086 81.1217 146.458367 85.411667 150.748333 
C 89.701633 155.0383 94.794914 158.441521 100.400025 160.763234 
C 106.005136 163.084947 112.013072 164.28 118.08 164.28 
C 124.146928 164.28 130.154864 163.084947 135.759975 160.763234 
C 141.365086 158.441521 146.458367 155.0383 150.748333 150.748333 
C 155.0383 146.458367 158.441521 141.365086 160.763234 135.759975 
C 163.084947 130.154864 164.28 124.146928 164.28 118.08 
C 164.28 112.013072 163.084947 106.005136 160.763234 100.400025 
C 158.441521 94.794914 155.0383 89.701633 150.748333 85.411667 
C 146.458367 81.1217 141.365086 77.718479 135.759975 75.396766 
C 130.154864 73.075053 124.146928 71.88 118.08 71.88 
C 112.013072 71.88 106.005136 73.075053 100.400025 75.396766 
C 94.794914 77.718479 89.701633 81.1217 85.411667 85.411667 
C 81.1217 89.701633 77.718479 94.794914 75.396766 100.400025 
C 73.075053 106.005136 71.88 112.013072 71.88 118.08 
C 71.88 124.146928 73.075053 130.154864 75.396766 135.759975 
C 77.718479 141.365086 81.1217 146.458367 85.411667 150.748333 
C 89.701633 155.0383 94.794914 158.441521 100.400025 160.763234 
C 106.005136 163.084947 112.013072 164.28 118.08 164.28 
C 124.146928 164.28 130.154864 163.084947 135.759975 160.763234 
C 141.365086 158.441521 146.458367 155.0383 150.748333 150.748333 
C 155.0383 146.458367 158.441521 141.365086 160.763234 135.759975 
C 163.084947 130.154864 164.28 124.146928 164.28 118.08 
C 164.28 112.013072 163.084947 106.005136 160.763234 100.400025 
C 158.441521 94.794914 155.0383 89.701633 150.748333 85.411667 
C 146.458367 81.1217 141.365086 77.718479 135.759975 75.396766 
C 130.154864 73.075053 124.146928 71.88 118.08 71.88 
C 112.013072 71.88 106.005136 73.075053 100.400025 75.396766 
C 94.794914 77.718479 89.701633 81.1217 85.411667 85.411667 
C 81.1217 89.701633 77.718479 94.794914 75.396766 100.400025 
C 73.075053 106.005136 71.88 112.013072 71.88 118.08 
C 71.88 124.146928 73.075053 130.154864 75.396766 135.759975 
C 77.718479 141.365086 81.1217 146.458367 85.411667 150.748333 
C 89.701633 155.0383 94.794914 158.441521 100.400025 160.763234 
C 106.005136 163.084947 112.013072 164.28 118.08 164.28 
C 124.146928 164.28 130.154864 163.084947 135.759975 160.763234 
C 141.365086 158.441521 146.458367 155.0383 150.748333 150.748333 
C 155.0383 146.458367 158.441521 141.365086 160.763234 135.759975 
C 163.084947 130.154864 164.28 124.146928 164.28 118.08 
C 164.28 112.013072 163.084947 106.005136 160.763234 100.400025 
C 158.441521 94.794914 155.0383 89.701633 150.748333 85.411667 
C 146.458367 81.1217 141.365086 77.718479 135.759975 75.396766 
C 130.154864 73.075053 124.146928 71.88 118.08 71.88 
C 112.013072 71.88 106.005136 73.075053 100.400025 75.396766 
C 94.794914 77.718479 89.701633 81.1217 85.411667 85.411667 
C 81.1217 89.701633 77.718479 94.794914 75.396766 100.400025 
C 73.075053 106.005136 71.88 112.013072 71.88 118.08 
C 71.88 124.146928 73.075053 130.154864 75.396766 135.759975 
C 77.718479 141.365086 81.1217 146.458367 85.411667 150.748333 
C 89.701633 155.0383 94.794914 158.441521 100.400025 160.763234 
C 106.005136 163.084947 112.013072 164.28 118.08 164.28 
C 124.146928 164.28 130.154864 163.084947 135.759975 160.763234 
C 141.365086 158.441521 146.458367 155.0383 150.748333 150.748333 
C 155.0383 146.458367 158.441521 141.365086 160.763234 135.759975 
C 163.084947 130.154864 164.28 124.146928 164.28 118.08 
C 164.28 112.013072 163.084947 106.005136 160.763234 100.400025 
C 158.441521 94.794914 155.0383 89.701633 150.748333 85.411667 
C 146.458367 81.1217 141.365086 77.718479 135.759975 75.396766 
C 130.154864 73.075053 124.146928 71.88 118.08 71.88 
C 112.013072 71.88 106.005136 73.075053 100.400025 75.396766 
C 94.794914 77.718479 89.701633 81.1217 85.411667 85.411667 
C 81.1217 89.701633 77.718479 94.794914 75.396766 100.400025 
C 73.075053 106.005136 71.88 112.013072 71.88 118.08 
C 71.88 124.146928 73.075053 130.154864 75.396766 135.759975 
C 77.718479 141.365086 81.1217 146.458367 85.411667 150.748333 
C 89.701633 155.0383 94.794914 158.441521 100.400025 160.763234 
C 106.005136 163.084947 112.013072 164.28 118.08 164.28 
C 124.146928 164.28 130.154864 163.084947 135.759975 160.763234 
C 141.365086 158.441521 146.458367 155.0383 150.748333 150.748333 
C 155.0383 146.458367 158.441521 141.365086 160.763234 135.759975 
C 163.084947 130.154864 164.28 124.146928 164.28 118.08 
C 164.28 112.013072 163.084947 106.005136 160.763234 100.400025 
C 158.441521 94.794914 155.0383 89.701633 150.748333 85.411667 
C 146.458367 81.1217 141.365086 77.718479 135.759975 75.396766 
C 130.154864 73.075053 124.146928 71.88 118.08 71.88 
C 112.013072 71.88 106.005136 73.075053 100.400025 75.396766 
C 94.794914 77.718479 89.701633 81.1217 85.411667 85.411667 
C 81.1217 89.701633 77.718479 94.794914 75.396766 100.400025 
C 73.075053 106.005136 71.88 112.013072 71.88 118.08 
C 71.88 124.146928 73.075053 130.154864 75.396766 135.759975 
C 77.718479 141.365086 81.1217 146.458367 85.411667 150.748333 
C 89.701633 155.0383 94.794914 158.441521 100.400025 160.763234 
C 106.005136 163.084947 112.013072 164.28 118.08 164.28 
C 124.146928 164.28 130.154864 163.084947 135.759975 160.763234 
C 141.365086 158.441521 146.458367 155.0383 150.748333 150.748333 
C 155.0383 146.458367 158.441521 141.365086 160.763234 135.759975 
C 163.084947 130.154864 164.28 124.146928 164.28 118.08 
C 164.28 115.05379 163.982664 112.034889 163.39228 109.066827 
C 162.801896 106.098765 161.921315 103.195878 160.763234 100.400025 
C 159.605154 97.604172 158.175168 94.928857 156.493896 92.412655 
C 154.812624 89.896454 152.888187 87.55152 150.748333 85.411667 
C 148.60848 83.271813 146.263546 81.347376 143.747345 79.666104 
C 141.231143 77.984832 138.555828 76.554846 135.759975 75.396766 
C 132.964122 74.238685 130.061235 73.358104 127.093173 72.76772 
C 124.125111 72.177336 121.10621 71.88 118.08 71.88 
C 115.05379 71.88 112.034889 72.177336 109.066827 72.76772 
C 106.098765 73.358104 103.195878 74.238685 100.400025 75.396766 
C 97.604172 76.554846 94.928857 77.984832 92.412655 79.666104 
C 89.896454 81.347376 87.55152 83.271813 85.411667 85.411667 
C 83.271813 87.55152 81.347376 89.896454 79.666104 92.412655 
C 77.984832 94.928857 76.554846 97.604172 75.396766 100.400025 
C 74.238685 103.195878 73.358104 106.098765 72.76772 109.066827 
C 72.177336 112.034889 71.88 115.05379 71.88 118.08 
C 71.88 121.10621 72.177336 124.125111 72.76772 127.093173 
C 73.358104 130.061235 74.238685 132.964122 75.396766 135.759975 
C 76.554846 138.555828 77.984832 141.231143 79.666104 143.747345 
C 81.347376 146.263546 83.271813 148.60848 85.411667 150.748333 
C 87.55152 152.888187 89.896454 154.812624 92.412655 156.493896 
C 94.928857 158.175168 97.604172 159.605154 100.400025 160.763234 
C 103.195878 161.921315 106.098765 162.801896 109.066827 163.39228 
C 112.034889 163.982664 115.05379 164.28 118.08 164.28 
C 121.10621 164.28 124.125111 163.982664 127.093173 163.39228 
C 130.061235 162.801896 132.964122 161.921315 135.759975 160.763234 
C 138.555828 159.605154 141.231143 158.175168 143.747345 156.493896 
C 146.263546 154.812624 148.60848 152.888187 150.748333 150.748333 
C 152.888187 148.60848 154.812624 146.263546 156.493896 143.747345 
C 158.175168 141.231143 159.605154 138.555828 160.763234 135.759975 
C 161.921315 132.964122 162.801896 130.061235 163.39228 127.093173 
C 163.982664 124.125111 164.28 121.10621 164.28 118.08 
C 164.28 112.013072 163.084947 106.005136 160.763234 100.400025 
C 158.441521 94.794914 155.0383 89.701633 150.748333 85.411667 
C 146.458367 81.1217 141.365086 77.718479 135.759975 75.396766 
C 130.154864 73.075053 124.146928 71.88 118.08 71.88 
C 112.013072 71.88 106.005136 73.075053 100.400025 75.396766 
C 94.794914 77.718479 89.701633 81.1217 85.411667 85.411667 
C 81.1217 89.701633 77.718479 94.794914 75.396766 100.400025 
C 73.075053 106.005136 71.88 112.013072 71.88 118.08 
C 71.88 124.146928 73.075053 130.154864 75.396766 135.759975 
C 77.718479 141.365086 81.1217 146.458367 85.411667 150.748333 
C 89.701633 155.0383 94.794914 158.441521 100.400025 160.763234 
C 106.005136 163.084947 112.013072 164.28 118.08 164.28 
C 124.146928 164.28 130.154864 163.084947 135.759975 160.763234 
C 141.365086 158.441521 146.458367 155.0383 150.748333 150.748333 
C 155.0383 146.458367 158.441521 141.365086 160.763234 135.759975 
C 163.084947 130.154864 164.28 124.146928 164.28 118.08 
C 164.28 115.05379 163.982664 112.034889 163.39228 109.066827 
C 162.801896 106.098765 161.921315 103.195878 160.763234 100.400025 
C 159.605154 97.604172 158.175168 94.928857 156.493896 92.412655 
C 154.812624 89.896454 152.888187 87.55152 150.748333 85.411667 
C 148.60848 83.271813 146.263546 81.347376 143.747345 79.666104 
C 141.231143 77.984832 138.555828 76.554846 135.759975 75.396766 
C 132.964122 74.238685 130.061235 73.358104 127.093173 72.76772 
C 124.125111 72.177336 121.10621 71.88 118.08 71.88 
C 115.05379 71.88 112.034889 72.177336 109.066827 72.76772 
C 106.098765 73.358104 103.195878 74.238685 100.400025 75.396766 
C 97.604172 76.554846 94.928857 77.984832 92.412655 79.666104 
C 89.896454 81.347376 87.55152 83.271813 85.411667 85.411667 
C 83.271813 87.55152 81.347376 89.896454 79.666104 92.412655 
C 77.984832 94.928857 76.554846 97.604172 75.396766 100.400025 
C 74.238685 103.195878 73.358104 106.098765 72.76772 109.066827 
C 72.177336 112.034889 71.88 115.05379 71.88 118.08 
C 71.88 121.10621 72.177336 124.125111 72.76772 127.093173 
C 73.358104 130.061235 74.238685 132.964122 75.396766 135.759975 
C 76.554846 138.555828 77.984832 141.231143 79.666104 143.747345 
C 81.347376 146.263546 83.271813 148.60848 85.411667 150.748333 
C 87.55152 152.888187 89.896454 154.812624 92.412655 156.493896 
C 94.928857 158.175168 97.604172 159.605154 100.400025 160.763234 
C 103.195878 161.921315 106.098765 162.801896 109.066827 163.39228 
C 112.034889 163.982664 115.05379 164.28 118.08 164.28 
C 121.10621 164.28 124.125111 163.982664 127.093173 163.39228 
C 130.061235 162.801896 132.964122 161.921315 135.759975 160.763234 
C 138.555828 159.605154 141.231143 158.175168 143.747345 156.493896 
C 146.263546 154.812624 148.60848 152.888187 150.748333 150.748333 
C 152.888187 148.60848 154.812624 146.263546 156.493896 143.747345 
C 158.175168 141.231143 159.605154 138.555828 160.763234 135.759975 
C 161.921315 132.964122 162.801896 130.061235 163.39228 127.093173 
C 163.982664 124.125111 164.28 121.10621 164.28 118.08 
C 164.28 112.013072 163.084947 106.005136 160.763234 100.400025 
C 158.441521 94.794914 155.0383 89.701633 150.748333 85.411667 
C 146.458367 81.1217 141.365086 77.718479 135.759975 75.396766 
C 130.154864 73.075053 124.146928 71.88 118.08 71.88 
C 112.013072 71.88 106.005136 73.075053 100.400025 75.396766 
C 94.794914 77.718479 89.701633 81.1217 85.411667 85.411667 
C 81.1217 89.701633 77.718479 94.794914 75.396766 100.400025 
C 73.075053 106.005136 71.88 112.013072 71.88 118.08 
C 71.88 124.146928 73.075053 130.154864 75.396766 135.759975 
C 77.718479 141.365086 81.1217 146.458367 85.411667 150.748333 
C 89.701633 155.0383 94.794914 158.441521 100.400025 160.763234 
C 106.005136 163.084947 112.013072 164.28 118.08 164.28 
C 124.146928 164.28 130.154864 163.084947 135.759975 160.763234 
C 141.365086 158.441521 146.458367 155.0383 150.748333 150.748333 
C 155.0383 146.458367 158.441521 141.365086 160.763234 135.759975 
C 163.084947 130.154864 164.28 124.146928 164.28 118.08 
C 164.28 115.05379 163.982664 112.034889 163.39228 109.066827 
C 162.801896 106.098765 161.921315 103.195878 160.763234 100.400025 
C 159.605154 97.604172 158.175168 94.928857 156.493896 92.412655 
C 154.812624 89.896454 152.888187 87.55152 150.748333 85.411667 
C 148.60848 83.271813 146.263546 81.347376 143.747345 79.666104 
C 141.231143 77.984832 138.555828 76.554846 135.759975 75.396766 
C 132.964122 74.238685 130.061235 73.358104 127.093173 72.76772 
C 124.125111 72.177336 121.10621 71.88 118.08 71.88 
C 115.05379 71.88 112.034889 72.177336 109.066827 72.76772 
C 106.098765 73.358104 103.195878 74.238685 100.400025 75.396766 
C 97.604172 76.554846 94.928857 77.984832 92.412655 79.666104 
C 89.896454 81.347376 87.55152 83.271813 85.411667 85.411667 
C 83.271813 87.55152 81.347376 89.896454 79.666104 92.412655 
C 77.984832 94.928857 76.554846 97.604172 75.396766 100.400025 
C 74.238685 103.195878 73.358104 106.098765 72.76772 109.066827 
C 72.177336 112.034889 71.88 115.05379 71.88 118.08 
C 71.88 121.10621 72.177336 124.125111 72.76772 127.093173 
C 73.358104 130.061235 74.238685 132.964122 75.396766 135.759975 
C 76.554846 138.555828 77.984832 141.231143 79.666104 143.747345 
C 81.347376 146.263546 83.271813 148.60848 85.411667 150.748333 
C 87.55152 152.888187 89.896454 154.812624 92.412655 156.493896 
C 94.928857 158.175168 97.604172 159.605154 100.400025 160.763234 
C 103.195878 161.921315 106.098765 162.801896 109.066827 163.39228 
C 112.034889 163.982664 115.05379 164.28 118.08 164.28 
C 121.10621 164.28 124.125111 163.982664 127.093173 163.39228 
C 130.061235 162.801896 132.964122 161.921315 135.759975 160.763234 
C 138.555828 159.605154 141.231143 158.175168 143.747345 156.493896 
C 146.263546 154.812624 148.60848 152.888187 150.748333 150.748333 
C 152.888187 148.60848 154.812624 146.263546 156.493896 143.747345 
C 158.175168 141.231143 159.605154 138.555828 160.763234 135.759975 
C 161.921315 132.964122 162.801896 130.061235 163.39228 127.093173 
C 163.982664 124.125111 164.28 121.10621 164.28 118.08 
C 164.28 112.528622 163.279422 107.022423 161.326341 101.825956 
C 159.373261 96.629489 156.499466 91.827334 152.843033 87.650219 
C 149.1866 83.473104 144.807042 79.989017 139.914783 77.365356 
C 135.022524 74.741695 129.697192 73.021165 124.194651 72.28643 
C 118.69211 71.551696 113.101921 71.814716 107.692675 73.062854 
C 102.283429 74.310991 97.143167 76.523931 92.518864 79.59535 
C 87.89456 82.666768 83.861481 86.546673 80.613402 91.048647 
C 77.365323 95.550622 74.955111 100.601391 73.498569 105.958282 
C 72.042028 111.315172 71.562863 116.890995 72.084097 122.417848 
C 72.605332 127.944701 74.118482 133.332629 76.550845 138.322759 
C 78.983209 143.312889 82.295196 147.824001 86.327677 151.63935 
C 90.360158 155.4547 95.047499 158.512186 100.164488 160.664909 
C 105.281478 162.817631 110.74483 164.03055 116.292049 164.24539 
C 121.839267 164.46023 127.380065 163.673493 132.648224 161.92298 
C 137.916382 160.172466 142.826156 157.486669 147.141647 153.99463 
C 151.457138 150.502592 155.108105 146.26115 157.919132 141.474093 
L 211.037974 172.666216 
C 203.869778 184.873345 194.366745 195.549798 183.072729 204.084565 
C 171.778713 212.619332 158.913355 218.846434 145.212931 222.409498 
C 131.512506 225.972561 117.243456 226.802294 103.222389 224.851211 
C 89.201322 222.900127 75.700913 218.206171 63.493784 211.037974 
C 51.286655 203.869778 40.610202 194.366745 32.075435 183.072729 
C 23.540668 171.778713 17.313566 158.913355 13.750502 145.212931 
C 10.187439 131.512506 9.357706 117.243456 11.308789 103.222389 
C 13.259873 89.201322 17.953829 75.700913 25.122026 63.493784 
C 32.290222 51.286655 41.793255 40.610202 53.087271 32.075435 
C 64.381287 23.540668 77.246645 17.313566 90.947069 13.750502 
C 104.647494 10.187439 118.916544 9.357706 132.937611 11.308789 
C 146.958678 13.259873 160.459087 17.953829 172.666216 25.122026 
C 184.873345 32.290222 195.549798 41.793255 204.084565 53.087271 
C 212.619332 64.381287 218.846434 77.246645 222.409498 90.947069 
C 225.972561 104.647494 226.802294 118.916544 224.851211 132.937611 
C 222.900127 146.958678 218.206171 160.459087 211.037974 172.666216 
C 207.462448 178.755184 203.297293 184.478139 198.602571 189.752558 
C 193.907848 195.026978 188.706232 199.827387 183.072729 204.084565 
C 177.439227 208.341742 171.401045 212.035128 165.045254 215.111463 
C 158.689463 218.187799 152.04676 220.632226 145.212931 222.409498 
C 138.379101 224.186769 131.387151 225.2883 124.337904 225.698208 
C 117.288656 226.108115 110.216156 225.824419 103.222389 224.851211 
C 96.228621 223.878002 89.347364 222.219981 82.677844 219.901055 
C 76.008323 217.58213 69.582752 214.613501 63.493784 211.037974 
C 57.404816 207.462448 51.681861 203.297293 46.407442 198.602571 
C 41.133022 193.907848 36.332613 188.706232 32.075435 183.072729 
C 27.818258 177.439227 24.124872 171.401045 21.048537 165.045254 
C 17.972201 158.689463 15.527774 152.04676 13.750502 145.212931 
C 11.973231 138.379101 10.8717 131.387151 10.461792 124.337904 
C 10.051885 117.288656 10.335581 110.216156 11.308789 103.222389 
C 12.281998 96.228621 13.940019 89.347364 16.258945 82.677844 
C 18.57787 76.008323 21.546499 69.582752 25.122026 63.493784 
C 28.697552 57.404816 32.862707 51.681861 37.557429 46.407442 
C 42.252152 41.133022 47.453768 36.332613 53.087271 32.075435 
C 58.720773 27.818258 64.758955 24.124872 71.114746 21.048537 
C 77.470537 17.972201 84.11324 15.527774 90.947069 13.750502 
C 97.780899 11.973231 104.772849 10.8717 111.822096 10.461792 
C 118.871344 10.051885 125.943844 10.335581 132.937611 11.308789 
C 139.931379 12.281998 146.812636 13.940019 153.482156 16.258945 
C 160.151677 18.57787 166.577248 21.546499 172.666216 25.122026 
C 178.755184 28.697552 184.478139 32.862707 189.752558 37.557429 
C 195.026978 42.252152 199.827387 47.453768 204.084565 53.087271 
C 208.341742 58.720773 212.035128 64.758955 215.111463 71.114746 
C 218.187799 77.470537 220.632226 84.11324 222.409498 90.947069 
C 224.186769 97.780899 225.2883 104.772849 225.698208 111.822096 
C 226.108115 118.871344 225.824419 125.943844 224.851211 132.937611 
C 223.878002 139.931379 222.219981 146.812636 219.901055 153.482156 
C 217.58213 160.151677 214.613501 166.577248 211.037974 172.666216 
C 203.869778 184.873345 194.366745 195.549798 183.072729 204.084565 
C 171.778713 212.619332 158.913355 218.846434 145.212931 222.409498 
C 131.512506 225.972561 117.243456 226.802294 103.222389 224.851211 
C 89.201322 222.900127 75.700913 218.206171 63.493784 211.037974 
C 51.286655 203.869778 40.610202 194.366745 32.075435 183.072729 
C 23.540668 171.778713 17.313566 158.913355 13.750502 145.212931 
C 10.187439 131.512506 9.357706 117.243456 11.308789 103.222389 
C 13.259873 89.201322 17.953829 75.700913 25.122026 63.493784 
C 32.290222 51.286655 41.793255 40.610202 53.087271 32.075435 
C 64.381287 23.540668 77.246645 17.313566 90.947069 13.750502 
C 104.647494 10.187439 118.916544 9.357706 132.937611 11.308789 
C 146.958678 13.259873 160.459087 17.953829 172.666216 25.122026 
C 184.873345 32.290222 195.549798 41.793255 204.084565 53.087271 
C 212.619332 64.381287 218.846434 77.246645 222.409498 90.947069 
C 225.972561 104.647494 226.802294 118.916544 224.851211 132.937611 
C 222.900127 146.958678 218.206171 160.459087 211.037974 172.666216 
C 207.462448 178.755184 203.297293 184.478139 198.602571 189.752558 
C 193.907848 195.026978 188.706232 199.827387 183.072729 204.084565 
C 177.439227 208.341742 171.401045 212.035128 165.045254 215.111463 
C 158.689463 218.187799 152.04676 220.632226 145.212931 222.409498 
C 138.379101 224.186769 131.387151 225.2883 124.337904 225.698208 
C 117.288656 226.108115 110.216156 225.824419 103.222389 224.851211 
C 96.228621 223.878002 89.347364 222.219981 82.677844 219.901055 
C 76.008323 217.58213 69.582752 214.613501 63.493784 211.037974 
C 57.404816 207.462448 51.681861 203.297293 46.407442 198.602571 
C 41.133022 193.907848 36.332613 188.706232 32.075435 183.072729 
C 27.818258 177.439227 24.124872 171.401045 21.048537 165.045254 
C 17.972201 158.689463 15.527774 152.04676 13.750502 145.212931 
C 11.973231 138.379101 10.8717 131.387151 10.461792 124.337904 
C 10.051885 117.288656 10.335581 110.216156 11.308789 103.222389 
C 12.281998 96.228621 13.940019 89.347364 16.258945 82.677844 
C 18.57787 76.008323 21.546499 69.582752 25.122026 63.493784 
C 28.697552 57.404816 32.862707 51.681861 37.557429 46.407442 
C 42.252152 41.133022 47.453768 36.332613 53.087271 32.075435 
C 58.720773 27.818258 64.758955 24.124872 71.114746 21.048537 
C 77.470537 17.972201 84.11324 15.527774 90.947069 13.750502 
C 97.780899 11.973231 104.772849 10.8717 111.822096 10.461792 
C 118.871344 10.051885 125.943844 10.335581 132.937611 11.308789 
C 139.931379 12.281998 146.812636 13.940019 153.482156 16.258945 
C 160.151677 18.57787 166.577248 21.546499 172.666216 25.122026 
C 178.755184 28.697552 184.478139 32.862707 189.752558 37.557429 
C 195.026978 42.252152 199.827387 47.453768 204.084565 53.087271 
C 208.341742 58.720773 212.035128 64.758955 215.111463 71.114746 
C 218.187799 77.470537 220.632226 84.11324 222.409498 90.947069 
C 224.186769 97.780899 225.2883 104.772849 225.698208 111.822096 
C 226.108115 118.871344 225.824419 125.943844 224.851211 132.937611 
C 223.878002 139.931379 222.219981 146.812636 219.901055 153.482156 
C 217.58213 160.151677 214.613501 166.577248 211.037974 172.666216 
C 203.869778 184.873345 194.366745 195.549798 183.072729 204.084565 
C 171.778713 212.619332 158.913355 218.846434 145.212931 222.409498 
C 131.512506 225.972561 117.243456 226.802294 103.222389 224.851211 
C 89.201322 222.900127 75.700913 218.206171 63.493784 211.037974 
C 51.286655 203.869778 40.610202 194.366745 32.075435 183.072729 
C 23.540668 171.778713 17.313566 158.913355 13.750502 145.212931 
C 10.187439 131.512506 9.357706 117.243456 11.308789 103.222389 
C 13.259873 89.201322 17.953829 75.700913 25.122026 63.493784 
C 32.290222 51.286655 41.793255 40.610202 53.087271 32.075435 
C 64.381287 23.540668 77.246645 17.313566 90.947069 13.750502 
C 104.647494 10.187439 118.916544 9.357706 132.937611 11.308789 
C 146.958678 13.259873 160.459087 17.953829 172.666216 25.122026 
C 184.873345 32.290222 195.549798 41.793255 204.084565 53.087271 
C 212.619332 64.381287 218.846434 77.246645 222.409498 90.947069 
C 225.972561 104.647494 226.802294 118.916544 224.851211 132.937611 
C 222.900127 146.958678 218.206171 160.459087 211.037974 172.666216 
C 203.869778 184.873345 194.366745 195.549798 183.072729 204.084565 
C 171.778713 212.619332 158.913355 218.846434 145.212931 222.409498 
C 131.512506 225.972561 117.243456 226.802294 103.222389 224.851211 
C 89.201322 222.900127 75.700913 218.206171 63.493784 211.037974 
C 51.286655 203.869778 40.610202 194.366745 32.075435 183.072729 
C 23.540668 171.778713 17.313566 158.913355 13.750502 145.212931 
C 10.187439 131.512506 9.357706 117.243456 11.308789 103.222389 
C 13.259873 89.201322 17.953829 75.700913 25.122026 63.493784 
C 32.290222 51.286655 41.793255 40.610202 53.087271 32.075435 
C 64.381287 23.540668 77.246645 17.313566 90.947069 13.750502 
C 104.647494 10.187439 118.916544 9.357706 132.937611 11.308789 
C 146.958678 13.259873 160.459087 17.953829 172.666216 25.122026 
C 184.873345 32.290222 195.549798 41.793255 204.084565 53.087271 
C 212.619332 64.381287 218.846434 77.246645 222.409498 90.947069 
C 225.972561 104.647494 226.802294 118.916544 224.851211 132.937611 
C 222.900127 146.958678 218.206171 160.459087 211.037974 172.666216 
C 203.869778 184.873345 194.366745 195.549798 183.072729 204.084565 
C 171.778713 212.619332 158.913355 218.846434 145.212931 222.409498 
C 131.512506 225.972561 117.243456 226.802294 103.222389 224.851211 
C 89.201322 222.900127 75.700913 218.206171 63.493784 211.037974 
C 51.286655 203.869778 40.610202 194.366745 32.075435 183.072729 
C 23.540668 171.778713 17.313566 158.913355 13.750502 145.212931 
C 10.187439 131.512506 9.357706 117.243456 11.308789 103.222389 
C 13.259873 89.201322 17.953829 75.700913 25.122026 63.493784 
C 32.290222 51.286655 41.793255 40.610202 53.087271 32.075435 
C 64.381287 23.540668 77.246645 17.313566 90.947069 13.750502 
C 104.647494 10.187439 118.916544 9.357706 132.937611 11.308789 
C 146.958678 13.259873 160.459087 17.953829 172.666216 25.122026 
C 184.873345 32.290222 195.549798 41.793255 204.084565 53.087271 
C 212.619332 64.381287 218.846434 77.246645 222.409498 90.947069 
C 225.972561 104.647494 226.802294 118.916544 224.851211 132.937611 
C 222.900127 146.958678 218.206171 160.459087 211.037974 172.666216 
C 203.869778 184.873345 194.366745 195.549798 183.072729 204.084565 
C 171.778713 212.619332 158.913355 218.846434 145.212931 222.409498 
C 131.512506 225.972561 117.243456 226.802294 103.222389 224.851211 
C 89.201322 222.900127 75.700913 218.206171 63.493784 211.037974 
C 51.286655 203.869778 40.610202 194.366745 32.075435 183.072729 
C 23.540668 171.778713 17.313566 158.913355 13.750502 145.212931 
C 10.187439 131.512506 9.357706 117.243456 11.308789 103.222389 
C 13.259873 89.201322 17.953829 75.700913 25.122026 63.493784 
C 32.290222 51.286655 41.793255 40.610202 53.087271 32.075435 
C 64.381287 23.540668 77.246645 17.313566 90.947069 13.750502 
C 104.647494 10.187439 118.916544 9.357706 132.937611 11.308789 
C 146.958678 13.259873 160.459087 17.953829 172.666216 25.122026 
C 184.873345 32.290222 195.549798 41.793255 204.084565 53.087271 
C 212.619332 64.381287 218.846434 77.246645 222.409498 90.947069 
C 225.972561 104.647494 226.802294 118.916544 224.851211 132.937611 
C 222.900127 146.958678 218.206171 160.459087 211.037974 172.666216 
C 203.869778 184.873345 194.366745 195.549798 183.072729 204.084565 
C 171.778713 212.619332 158.913355 218.846434 145.212931 222.409498 
C 131.512506 225.972561 117.243456 226.802294 103.222389 224.851211 
C 89.201322 222.900127 75.700913 218.206171 63.493784 211.037974 
C 51.286655 203.869778 40.610202 194.366745 32.075435 183.072729 
C 23.540668 171.778713 17.313566 158.913355 13.750502 145.212931 
C 10.187439 131.512506 9.357706 117.243456 11.308789 103.222389 
C 13.259873 89.201322 17.953829 75.700913 25.122026 63.493784 
C 32.290222 51.286655 41.793255 40.610202 53.087271 32.075435 
C 64.381287 23.540668 77.246645 17.313566 90.947069 13.750502 
C 104.647494 10.187439 118.916544 9.357706 132.937611 11.308789 
C 146.958678 13.259873 160.459087 17.953829 172.666216 25.122026 
C 184.873345 32.290222 195.549798 41.793255 204.084565 53.087271 
C 212.619332 64.381287 218.846434 77.246645 222.409498 90.947069 
C 225.972561 104.647494 226.802294 118.916544 224.851211 132.937611 
C 222.900127 146.958678 218.206171 160.459087 211.037974 172.666216 
C 203.869778 184.873345 194.366745 195.549798 183.072729 204.084565 
C 171.778713 212.619332 158.913355 218.846434 145.212931 222.409498 
C 131.512506 225.972561 117.243456 226.802294 103.222389 224.851211 
C 89.201322 222.900127 75.700913 218.206171 63.493784 211.037974 
C 51.286655 203.869778 40.610202 194.366745 32.075435 183.072729 
C 23.540668 171.778713 17.313566 158.913355 13.750502 145.212931 
C 10.187439 131.512506 9.357706 117.243456 11.308789 103.222389 
C 13.259873 89.201322 17.953829 75.700913 25.122026 63.493784 
C 32.290222 51.286655 41.793255 40.610202 53.087271 32.075435 
C 64.381287 23.540668 77.246645 17.313566 90.947069 13.750502 
C 104.647494 10.187439 118.916544 9.357706 132.937611 11.308789 
C 146.958678 13.259873 160.459087 17.953829 172.666216 25.122026 
C 184.873345 32.290222 195.549798 41.793255 204.084565 53.087271 
C 212.619332 64.381287 218.846434 77.246645 222.409498 90.947069 
C 225.972561 104.647494 226.802294 118.916544 224.851211 132.937611 
C 222.900127 146.958678 218.206171 160.459087 211.037974 172.666216 
C 207.462448 178.755184 203.297293 184.478139 198.602571 189.752558 
C 193.907848 195.026978 188.706232 199.827387 183.072729 204.084565 
C 177.439227 208.341742 171.401045 212.035128 165.045254 215.111463 
C 158.689463 218.187799 152.04676 220.632226 145.212931 222.409498 
C 138.379101 224.186769 131.387151 225.2883 124.337904 225.698208 
C 117.288656 226.108115 110.216156 225.824419 103.222389 224.851211 
C 96.228621 223.878002 89.347364 222.219981 82.677844 219.901055 
C 76.008323 217.58213 69.582752 214.613501 63.493784 211.037974 
C 57.404816 207.462448 51.681861 203.297293 46.407442 198.602571 
C 41.133022 193.907848 36.332613 188.706232 32.075435 183.072729 
C 27.818258 177.439227 24.124872 171.401045 21.048537 165.045254 
C 17.972201 158.689463 15.527774 152.04676 13.750502 145.212931 
C 11.973231 138.379101 10.8717 131.387151 10.461792 124.337904 
C 10.051885 117.288656 10.335581 110.216156 11.308789 103.222389 
C 12.281998 96.228621 13.940019 89.347364 16.258945 82.677844 
C 18.57787 76.008323 21.546499 69.582752 25.122026 63.493784 
C 28.697552 57.404816 32.862707 51.681861 37.557429 46.407442 
C 42.252152 41.133022 47.453768 36.332613 53.087271 32.075435 
C 58.720773 27.818258 64.758955 24.124872 71.114746 21.048537 
C 77.470537 17.972201 84.11324 15.527774 90.947069 13.750502 
C 97.780899 11.973231 104.772849 10.8717 111.822096 10.461792 
C 118.871344 10.051885 125.943844 10.335581 132.937611 11.308789 
C 139.931379 12.281998 146.812636 13.940019 153.482156 16.258945 
C 160.151677 18.57787 166.577248 21.546499 172.666216 25.122026 
C 178.755184 28.697552 184.478139 32.862707 189.752558 37.557429 
C 195.026978 42.252152 199.827387 47.453768 204.084565 53.087271 
C 208.341742 58.720773 212.035128 64.758955 215.111463 71.114746 
C 218.187799 77.470537 220.632226 84.11324 222.409498 90.947069 
C 224.186769 97.780899 225.2883 104.772849 225.698208 111.822096 
C 226.108115 118.871344 225.824419 125.943844 224.851211 132.937611 
C 223.878002 139.931379 222.219981 146.812636 219.901055 153.482156 
C 217.58213 160.151677 214.613501 166.577248 211.037974 172.666216 
C 203.869778 184.873345 194.366745 195.549798 183.072729 204.084565 
C 171.778713 212.619332 158.913355 218.846434 145.212931 222.409498 
C 131.512506 225.972561 117.243456 226.802294 103.222389 224.851211 
C 89.201322 222.900127 75.700913 218.206171 63.493784 211.037974 
C 51.286655 203.869778 40.610202 194.366745 32.075435 183.072729 
C 23.540668 171.778713 17.313566 158.913355 13.750502 145.212931 
C 10.187439 131.512506 9.357706 117.243456 11.308789 103.222389 
C 13.259873 89.201322 17.953829 75.700913 25.122026 63.493784 
C 32.290222 51.286655 41.793255 40.610202 53.087271 32.075435 
C 64.381287 23.540668 77.246645 17.313566 90.947069 13.750502 
C 104.647494 10.187439 118.916544 9.357706 132.937611 11.308789 
C 146.958678 13.259873 160.459087 17.953829 172.666216 25.122026 
C 184.873345 32.290222 195.549798 41.793255 204.084565 53.087271 
C 212.619332 64.381287 218.846434 77.246645 222.409498 90.947069 
C 225.972561 104.647494 226.802294 118.916544 224.851211 132.937611 
C 222.900127 146.958678 218.206171 160.459087 211.037974 172.666216 
C 203.869778 184.873345 194.366745 195.549798 183.072729 204.084565 
C 171.778713 212.619332 158.913355 218.846434 145.212931 222.409498 
C 131.512506 225.972561 117.243456 226.802294 103.222389 224.851211 
C 89.201322 222.900127 75.700913 218.206171 63.493784 211.037974 
C 51.286655 203.869778 40.610202 194.366745 32.075435 183.072729 
C 23.540668 171.778713 17.313566 158.913355 13.750502 145.212931 
C 10.187439 131.512506 9.357706 117.243456 11.308789 103.222389 
C 13.259873 89.201322 17.953829 75.700913 25.122026 63.493784 
C 32.290222 51.286655 41.793255 40.610202 53.087271 32.075435 
C 64.381287 23.540668 77.246645 17.313566 90.947069 13.750502 
C 104.647494 10.187439 118.916544 9.357706 132.937611 11.308789 
C 146.958678 13.259873 160.459087 17.953829 172.666216 25.122026 
C 184.873345 32.290222 195.549798 41.793255 204.084565 53.087271 
C 212.619332 64.381287 218.846434 77.246645 222.409498 90.947069 
C 225.972561 104.647494 226.802294 118.916544 224.851211 132.937611 
C 222.900127 146.958678 218.206171 160.459087 211.037974 172.666216 
C 203.869778 184.873345 194.366745 195.549798 183.072729 204.084565 
C 171.778713 212.619332 158.913355 218.846434 145.212931 222.409498 
C 131.512506 225.972561 117.243456 226.802294 103.222389 224.851211 
C 89.201322 222.900127 75.700913 218.206171 63.493784 211.037974 
C 51.286655 203.869778 40.610202 194.366745 32.075435 183.072729 
C 23.540668 171.778713 17.313566 158.913355 13.750502 145.212931 
C 10.187439 131.512506 9.357706 117.243456 11.308789 103.222389 
C 13.259873 89.201322 17.953829 75.700913 25.122026 63.493784 
C 32.290222 51.286655 41.793255 40.610202 53.087271 32.075435 
C 64.381287 23.540668 77.246645 17.313566 90.947069 13.750502 
C 104.647494 10.187439 118.916544 9.357706 132.937611 11.308789 
C 146.958678 13.259873 160.459087 17.953829 172.666216 25.122026 
C 184.873345 32.290222 195.549798 41.793255 204.084565 53.087271 
C 212.619332 64.381287 218.846434 77.246645 222.409498 90.947069 
C 225.972561 104.647494 226.802294 118.916544 224.851211 132.937611 
C 222.900127 146.958678 218.206171 160.459087 211.037974 172.666216 
C 203.869778 184.873345 194.366745 195.549798 183.072729 204.084565 
C 171.778713 212.619332 158.913355 218.846434 145.212931 222.409498 
C 131.512506 225.972561 117.243456 226.802294 103.222389 224.851211 
C 89.201322 222.900127 75.700913 218.206171 63.493784 211.037974 
C 51.286655 203.869778 40.610202 194.366745 32.075435 183.072729 
C 23.540668 171.778713 17.313566 158.913355 13.750502 145.212931 
C 10.187439 131.512506 9.357706 117.243456 11.308789 103.222389 
C 13.259873 89.201322 17.953829 75.700913 25.122026 63.493784 
C 32.290222 51.286655 41.793255 40.610202 53.087271 32.075435 
C 64.381287 23.540668 77.246645 17.313566 90.947069 13.750502 
C 104.647494 10.187439 118.916544 9.357706 132.937611 11.308789 
C 146.958678 13.259873 160.459087 17.953829 172.666216 25.122026 
C 184.873345 32.290222 195.549798 41.793255 204.084565 53.087271 
C 212.619332 64.381287 218.846434 77.246645 222.409498 90.947069 
C 225.972561 104.647494 226.802294 118.916544 224.851211 132.937611 
C 222.900127 146.958678 218.206171 160.459087 211.037974 172.666216 
C 204.478912 183.836017 195.959988 193.732715 185.89051 201.880804 
C 175.821031 210.028894 164.364892 216.295755 152.072522 220.380286 
C 139.780151 224.464817 126.851624 226.300536 113.908114 225.799243 
C 100.964603 225.297951 88.216781 222.467805 76.27714 217.444787 
C 64.337498 212.421768 53.400369 205.287632 43.991247 196.385151 
C 34.582125 187.48267 26.854154 176.956742 21.178639 165.313105 
C 15.503124 153.669468 11.97244 141.097636 10.756227 128.201645 
C 9.540013 115.305654 10.658064 102.295402 14.056662 89.795991 
C 17.45526 77.296579 23.079087 65.511451 30.657938 55.006843 
C 38.236789 44.502236 47.647307 35.449125 58.437349 28.282482 
C 69.22739 21.11584 81.221333 15.952313 93.842908 13.039992 
C 106.464482 10.12767 119.508256 9.513956 132.347519 11.228337 
C 145.186781 12.942717 157.612557 16.957289 169.027827 23.079164 
C 180.443098 29.201039 190.662066 37.330576 199.193743 47.077178 
C 207.72542 56.82378 214.430942 68.028808 218.98813 80.153897 
C 223.545319 92.278987 225.88 105.126786 225.88 118.08 
z
" clip-path="url(#pcc2ecb7f1b)" style="fill: #30363d"/>
   </g>
   <g id="patch_3">
    <path d="M 164.28 118.08 
C 164.28 112.013072 163.084947 106.005136 160.763234 100.400025 
C 158.441521 94.794914 155.0383 89.701633 150.748333 85.411667 
C 146.458367 81.1217 141.365086 77.718479 135.759975 75.396766 
C 130.154864 73.075053 124.146928 71.88 118.08 71.88 
C 112.013072 71.88 106.005136 73.075053 100.400025 75.396766 
C 94.794914 77.718479 89.701633 81.1217 85.411667 85.411667 
C 81.1217 89.701633 77.718479 94.794914 75.396766 100.400025 
C 73.075053 106.005136 71.88 112.013072 71.88 118.08 
C 71.88 124.146928 73.075053 130.154864 75.396766 135.759975 
C 77.718479 141.365086 81.1217 146.458367 85.411667 150.748333 
C 89.701633 155.0383 94.794914 158.441521 100.400025 160.763234 
C 106.005136 163.084947 112.013072 164.28 118.08 164.28 
C 124.146928 164.28 130.154864 163.084947 135.759975 160.763234 
C 141.365086 158.441521 146.458367 155.0383 150.748333 150.748333 
C 155.0383 146.458367 158.441521 141.365086 160.763234 135.759975 
C 163.084947 130.154864 164.28 124.146928 164.28 118.08 
C 164.28 112.013072 163.084947 106.005136 160.763234 100.400025 
C 158.441521 94.794914 155.0383 89.701633 150.748333 85.411667 
C 146.458367 81.1217 141.365086 77.718479 135.759975 75.396766 
C 130.154864 73.075053 124.146928 71.88 118.08 71.88 
C 112.013072 71.88 106.005136 73.075053 100.400025 75.396766 
C 94.794914 77.718479 89.701633 81.1217 85.411667 85.411667 
C 81.1217 89.701633 77.718479 94.794914 75.396766 100.400025 
C 73.075053 106.005136 71.88 112.013072 71.88 118.08 
C 71.88 124.146928 73.075053 130.154864 75.396766 135.759975 
C 77.718479 141.365086 81.1217 146.458367 85.411667 150.748333 
C 89.701633 155.0383 94.794914 158.441521 100.400025 160.763234 
C 106.005136 163.084947 112.013072 164.28 118.08 164.28 
C 124.146928 164.28 130.154864 163.084947 135.759975 160.763234 
C 141.365086 158.441521 146.458367 155.0383 150.748333 150.748333 
C 155.0383 146.458367 158.441521 141.365086 160.763234 135.759975 
C 163.084947 130.154864 164.28 124.146928 164.28 118.08 
C 164.28 112.013072 163.084947 106.005136 160.763234 100.400025 
C 158.441521 94.794914 155.0383 89.701633 150.748333 85.411667 
C 146.458367 81.1217 141.365086 77.718479 135.759975 75.396766 
C 130.154864 73.075053 124.146928 71.88 118.08 71.88 
C 112.013072 71.88 106.005136 73.075053 100.400025 75.396766 
C 94.794914 77.718479 89.701633 81.1217 85.411667 85.411667 
C 81.1217 89.701633 77.718479 94.794914 75.396766 100.400025 
C 73.075053 106.005136 71.88 112.013072 71.88 118.08 
C 71.88 124.146928 73.075053 130.154864 75.396766 135.759975 
C 77.718479 141.365086 81.1217 146.458367 85.411667 150.748333 
C 89.701633 155.0383 94.794914 158.441521 100.400025 160.763234 
C 106.005136 163.084947 112.013072 164.28 118.08 164.28 
C 124.146928 164.28 130.154864 163.084947 135.759975 160.763234 
C 141.365086 158.441521 146.458367 155.0383 150.748333 150.748333 
C 155.0383 146.458367 158.441521 141.365086 160.763234 135.759975 
C 163.084947 130.154864 164.28 124.146928 164.28 118.08 
C 164.28 112.013072 163.084947 106.005136 160.763234 100.400025 
C 158.441521 94.794914 155.0383 89.701633 150.748333 85.411667 
C 146.458367 81.1217 141.365086 77.718479 135.759975 75.396766 
C 130.154864 73.075053 124.146928 71.88 118.08 71.88 
C 112.013072 71.88 106.005136 73.075053 100.400025 75.396766 
C 94.794914 77.718479 89.701633 81.1217 85.411667 85.411667 
C 81.1217 89.701633 77.718479 94.794914 75.396766 100.400025 
C 73.075053 106.005136 71.88 112.013072 71.88 118.08 
C 71.88 124.146928 73.075053 130.154864 75.396766 135.759975 
C 77.718479 141.365086 81.1217 146.458367 85.411667 150.748333 
C 89.701633 155.0383 94.794914 158.441521 100.400025 160.763234 
C 106.005136 163.084947 112.013072 164.28 118.08 164.28 
C 124.146928 164.28 130.154864 163.084947 135.759975 160.763234 
C 141.365086 158.441521 146.458367 155.0383 150.748333 150.748333 
C 155.0383 146.458367 158.441521 141.365086 160.763234 135.759975 
C 163.084947 130.154864 164.28 124.146928 164.28 118.08 
C 164.28 112.013072 163.084947 106.005136 160.763234 100.400025 
C 158.441521 94.794914 155.0383 89.701633 150.748333 85.411667 
C 146.458367 81.1217 141.365086 77.718479 135.759975 75.396766 
C 130.154864 73.075053 124.146928 71.88 118.08 71.88 
C 112.013072 71.88 106.005136 73.075053 100.400025 75.396766 
C 94.794914 77.718479 89.701633 81.1217 85.411667 85.411667 
C 81.1217 89.701633 77.718479 94.794914 75.396766 100.400025 
C 73.075053 106.005136 71.88 112.013072 71.88 118.08 
C 71.88 124.146928 73.075053 130.154864 75.396766 135.759975 
C 77.718479 141.365086 81.1217 146.458367 85.411667 150.748333 
C 89.701633 155.0383 94.794914 158.441521 100.400025 160.763234 
C 106.005136 163.084947 112.013072 164.28 118.08 164.28 
C 124.146928 164.28 130.154864 163.084947 135.759975 160.763234 
C 141.365086 158.441521 146.458367 155.0383 150.748333 150.748333 
C 155.0383 146.458367 158.441521 141.365086 160.763234 135.759975 
C 163.084947 130.154864 164.28 124.146928 164.28 118.08 
C 164.28 112.013072 163.084947 106.005136 160.763234 100.400025 
C 158.441521 94.794914 155.0383 89.701633 150.748333 85.411667 
C 146.458367 81.1217 141.365086 77.718479 135.759975 75.396766 
C 130.154864 73.075053 124.146928 71.88 118.08 71.88 
C 112.013072 71.88 106.005136 73.075053 100.400025 75.396766 
C 94.794914 77.718479 89.701633 81.1217 85.411667 85.411667 
C 81.1217 89.701633 77.718479 94.794914 75.396766 100.400025 
C 73.075053 106.005136 71.88 112.013072 71.88 118.08 
C 71.88 124.146928 73.075053 130.154864 75.396766 135.759975 
C 77.718479 141.365086 81.1217 146.458367 85.411667 150.748333 
C 89.701633 155.0383 94.794914 158.441521 100.400025 160.763234 
C 106.005136 163.084947 112.013072 164.28 118.08 164.28 
C 124.146928 164.28 130.154864 163.084947 135.759975 160.763234 
C 141.365086 158.441521 146.458367 155.0383 150.748333 150.748333 
C 155.0383 146.458367 158.441521 141.365086 160.763234 135.759975 
C 163.084947 130.154864 164.28 124.146928 164.28 118.08 
C 164.28 112.013072 163.084947 106.005136 160.763234 100.400025 
C 158.441521 94.794914 155.0383 89.701633 150.748333 85.411667 
C 146.458367 81.1217 141.365086 77.718479 135.759975 75.396766 
C 130.154864 73.075053 124.146928 71.88 118.08 71.88 
C 112.013072 71.88 106.005136 73.075053 100.400025 75.396766 
C 94.794914 77.718479 89.701633 81.1217 85.411667 85.411667 
C 81.1217 89.701633 77.718479 94.794914 75.396766 100.400025 
C 73.075053 106.005136 71.88 112.013072 71.88 118.08 
C 71.88 124.146928 73.075053 130.154864 75.396766 135.759975 
C 77.718479 141.365086 81.1217 146.458367 85.411667 150.748333 
C 89.701633 155.0383 94.794914 158.441521 100.400025 160.763234 
C 106.005136 163.084947 112.013072 164.28 118.08 164.28 
C 124.146928 164.28 130.154864 163.084947 135.759975 160.763234 
C 141.365086 158.441521 146.458367 155.0383 150.748333 150.748333 
C 155.0383 146.458367 158.441521 141.365086 160.763234 135.759975 
C 163.084947 130.154864 164.28 124.146928 164.28 118.08 
C 164.28 112.013072 163.084947 106.005136 160.763234 100.400025 
C 158.441521 94.794914 155.0383 89.701633 150.748333 85.411667 
C 146.458367 81.1217 141.365086 77.718479 135.759975 75.396766 
C 130.154864 73.075053 124.146928 71.88 118.08 71.88 
C 112.013072 71.88 106.005136 73.075053 100.400025 75.396766 
C 94.794914 77.718479 89.701633 81.1217 85.411667 85.411667 
C 81.1217 89.701633 77.718479 94.794914 75.396766 100.400025 
C 73.075053 106.005136 71.88 112.013072 71.88 118.08 
C 71.88 124.146928 73.075053 130.154864 75.396766 135.759975 
C 77.718479 141.365086 81.1217 146.458367 85.411667 150.748333 
C 89.701633 155.0383 94.794914 158.441521 100.400025 160.763234 
C 106.005136 163.084947 112.013072 164.28 118.08 164.28 
C 124.146928 164.28 130.154864 163.084947 135.759975 160.763234 
C 141.365086 158.441521 146.458367 155.0383 150.748333 150.748333 
C 155.0383 146.458367 158.441521 141.365086 160.763234 135.759975 
C 163.084947 130.154864 164.28 124.146928 164.28 118.08 
C 164.28 112.013072 163.084947 106.005136 160.763234 100.400025 
C 158.441521 94.794914 155.0383 89.701633 150.748333 85.411667 
C 146.458367 81.1217 141.365086 77.718479 135.759975 75.396766 
C 130.154864 73.075053 124.146928 71.88 118.08 71.88 
C 112.013072 71.88 106.005136 73.075053 100.400025 75.396766 
C 94.794914 77.718479 89.701633 81.1217 85.411667 85.411667 
C 81.1217 89.701633 77.718479 94.794914 75.396766 100.400025 
C 73.075053 106.005136 71.88 112.013072 71.88 118.08 
C 71.88 124.146928 73.075053 130.154864 75.396766 135.759975 
C 77.718479 141.365086 81.1217 146.458367 85.411667 150.748333 
C 89.701633 155.0383 94.794914 158.441521 100.400025 160.763234 
C 106.005136 163.084947 112.013072 164.28 118.08 164.28 
C 124.146928 164.28 130.154864 163.084947 135.759975 160.763234 
C 141.365086 158.441521 146.458367 155.0383 150.748333 150.748333 
C 155.0383 146.458367 158.441521 141.365086 160.763234 135.759975 
C 163.084947 130.154864 164.28 124.146928 164.28 118.08 
C 164.28 112.013072 163.084947 106.005136 160.763234 100.400025 
C 158.441521 94.794914 155.0383 89.701633 150.748333 85.411667 
C 146.458367 81.1217 141.365086 77.718479 135.759975 75.396766 
C 130.154864 73.075053 124.146928 71.88 118.08 71.88 
C 112.013072 71.88 106.005136 73.075053 100.400025 75.396766 
C 94.794914 77.718479 89.701633 81.1217 85.411667 85.411667 
C 81.1217 89.701633 77.718479 94.794914 75.396766 100.400025 
C 73.075053 106.005136 71.88 112.013072 71.88 118.08 
C 71.88 124.146928 73.075053 130.154864 75.396766 135.759975 
C 77.718479 141.365086 81.1217 146.458367 85.411667 150.748333 
C 89.701633 155.0383 94.794914 158.441521 100.400025 160.763234 
C 106.005136 163.084947 112.013072 164.28 118.08 164.28 
C 124.146928 164.28 130.154864 163.084947 135.759975 160.763234 
C 141.365086 158.441521 146.458367 155.0383 150.748333 150.748333 
C 155.0383 146.458367 158.441521 141.365086 160.763234 135.759975 
C 163.084947 130.154864 164.28 124.146928 164.28 118.08 
C 164.28 115.05379 163.982664 112.034889 163.39228 109.066827 
C 162.801896 106.098765 161.921315 103.195878 160.763234 100.400025 
C 159.605154 97.604172 158.175168 94.928857 156.493896 92.412655 
C 154.812624 89.896454 152.888187 87.55152 150.748333 85.411667 
C 148.60848 83.271813 146.263546 81.347376 143.747345 79.666104 
C 141.231143 77.984832 138.555828 76.554846 135.759975 75.396766 
C 132.964122 74.238685 130.061235 73.358104 127.093173 72.76772 
C 124.125111 72.177336 121.10621 71.88 118.08 71.88 
C 115.05379 71.88 112.034889 72.177336 109.066827 72.76772 
C 106.098765 73.358104 103.195878 74.238685 100.400025 75.396766 
C 97.604172 76.554846 94.928857 77.984832 92.412655 79.666104 
C 89.896454 81.347376 87.55152 83.271813 85.411667 85.411667 
C 83.271813 87.55152 81.347376 89.896454 79.666104 92.412655 
C 77.984832 94.928857 76.554846 97.604172 75.396766 100.400025 
C 74.238685 103.195878 73.358104 106.098765 72.76772 109.066827 
C 72.177336 112.034889 71.88 115.05379 71.88 118.08 
C 71.88 121.10621 72.177336 124.125111 72.76772 127.093173 
C 73.358104 130.061235 74.238685 132.964122 75.396766 135.759975 
C 76.554846 138.555828 77.984832 141.231143 79.666104 143.747345 
C 81.347376 146.263546 83.271813 148.60848 85.411667 150.748333 
C 87.55152 152.888187 89.896454 154.812624 92.412655 156.493896 
C 94.928857 158.175168 97.604172 159.605154 100.400025 160.763234 
C 103.195878 161.921315 106.098765 162.801896 109.066827 163.39228 
C 112.034889 163.982664 115.05379 164.28 118.08 164.28 
C 121.10621 164.28 124.125111 163.982664 127.093173 163.39228 
C 130.061235 162.801896 132.964122 161.921315 135.759975 160.763234 
C 138.555828 159.605154 141.231143 158.175168 143.747345 156.493896 
C 146.263546 154.812624 148.60848 152.888187 150.748333 150.748333 
C 152.888187 148.60848 154.812624 146.263546 156.493896 143.747345 
C 158.175168 141.231143 159.605154 138.555828 160.763234 135.759975 
C 161.921315 132.964122 162.801896 130.061235 163.39228 127.093173 
C 163.982664 124.125111 164.28 121.10621 164.28 118.08 
C 164.28 112.399808 163.232449 106.768017 161.190006 101.467734 
C 159.147563 96.16745 156.145036 91.289001 152.33336 87.077623 
C 148.521683 82.866246 143.965816 79.393709 138.894779 76.834576 
C 133.823742 74.275444 128.323955 72.673327 122.671889 72.108764 
C 117.019824 71.544201 111.311801 72.026813 105.834761 73.532339 
C 100.357721 75.037865 95.205002 77.540648 90.635629 80.914875 
C 86.066256 84.289102 82.1581 88.47727 79.10762 93.268841 
C 76.057141 98.060412 73.916325 103.373729 72.79279 108.941695 
C 71.669255 114.509662 71.582148 120.237388 72.535848 125.836944 
C 73.489547 131.436501 75.467801 136.812461 78.371163 141.694578 
C 81.274526 146.576695 85.053517 150.881768 89.518171 154.393385 
C 93.982824 157.905001 99.057053 160.563315 104.485779 162.234696 
C 109.914505 163.906076 115.605212 164.56204 121.271831 164.169611 
C 126.938451 163.777182 132.484413 162.343049 137.630925 159.939304 
C 142.777438 157.535559 147.436794 154.203167 151.374771 150.109646 
C 155.312748 146.016125 158.462235 141.231236 160.664909 135.995512 
L 217.444787 159.88286 
C 214.7066 166.391489 211.33553 172.615364 207.380187 178.464738 
C 203.424843 184.314112 198.90433 189.760734 193.883831 194.726065 
C 188.863332 199.691395 183.367095 204.151453 177.474376 208.041926 
C 171.581657 211.932398 165.320915 215.234495 158.782429 217.900601 
C 152.243943 220.566706 145.459292 222.583944 138.52631 223.923226 
C 131.593328 225.262507 124.545499 225.917365 117.484451 225.878355 
C 110.423403 225.839345 103.38324 225.106656 96.465478 223.690854 
C 89.547717 222.275051 82.785769 220.182973 76.27714 217.444787 
C 69.768511 214.7066 63.544636 211.33553 57.695262 207.380187 
C 51.845888 203.424843 46.399266 198.90433 41.433935 193.883831 
C 36.468605 188.863332 32.008547 183.367095 28.118074 177.474376 
C 24.227602 171.581657 20.925505 165.320915 18.259399 158.782429 
C 15.593294 152.243943 13.576056 145.459292 12.236774 138.52631 
C 10.897493 131.593328 10.242635 124.545499 10.281645 117.484451 
C 10.320655 110.423403 11.053344 103.38324 12.469146 96.465478 
C 13.884949 89.547717 15.977027 82.785769 18.715213 76.27714 
C 21.4534 69.768511 24.82447 63.544636 28.779813 57.695262 
C 32.735157 51.845888 37.25567 46.399266 42.276169 41.433935 
C 47.296668 36.468605 52.792905 32.008547 58.685624 28.118074 
C 64.578343 24.227602 70.839085 20.925505 77.377571 18.259399 
C 83.916057 15.593294 90.700708 13.576056 97.63369 12.236774 
C 104.566672 10.897493 111.614501 10.242635 118.675549 10.281645 
C 125.736597 10.320655 132.77676 11.053344 139.694522 12.469146 
C 146.612283 13.884949 153.374231 15.977027 159.88286 18.715213 
C 166.391489 21.4534 172.615364 24.82447 178.464738 28.779813 
C 184.314112 32.735157 189.760734 37.25567 194.726065 42.276169 
C 199.691395 47.296668 204.151453 52.792905 208.041926 58.685624 
C 211.932398 64.578343 215.234495 70.839085 217.900601 77.377571 
C 220.566706 83.916057 222.583944 90.700708 223.923226 97.63369 
C 225.262507 104.566672 225.917365 111.614501 225.878355 118.675549 
C 225.839345 125.736597 225.106656 132.77676 223.690854 139.694522 
C 222.275051 146.612283 220.182973 153.374231 217.444787 159.88286 
C 211.955286 172.931325 203.9489 184.771597 193.883831 194.726065 
C 183.818762 204.680533 171.89075 212.555607 158.782429 217.900601 
C 145.674107 223.245595 131.640401 225.956562 117.484451 225.878355 
C 103.3285 225.800148 89.325604 222.934288 76.27714 217.444787 
C 63.228675 211.955286 51.388403 203.9489 41.433935 193.883831 
C 31.479467 183.818762 23.604393 171.89075 18.259399 158.782429 
C 12.914405 145.674107 10.203438 131.640401 10.281645 117.484451 
C 10.359852 103.3285 13.225712 89.325604 18.715213 76.27714 
C 24.204714 63.228675 32.2111 51.388403 42.276169 41.433935 
C 52.341238 31.479467 64.26925 23.604393 77.377571 18.259399 
C 90.485893 12.914405 104.519599 10.203438 118.675549 10.281645 
C 132.8315 10.359852 146.834396 13.225712 159.88286 18.715213 
C 172.931325 24.204714 184.771597 32.2111 194.726065 42.276169 
C 204.680533 52.341238 212.555607 64.26925 217.900601 77.377571 
C 223.245595 90.485893 225.956562 104.519599 225.878355 118.675549 
C 225.800148 132.8315 222.934288 146.834396 217.444787 159.88286 
C 211.955286 172.931325 203.9489 184.771597 193.883831 194.726065 
C 183.818762 204.680533 171.89075 212.555607 158.782429 217.900601 
C 145.674107 223.245595 131.640401 225.956562 117.484451 225.878355 
C 103.3285 225.800148 89.325604 222.934288 76.27714 217.444787 
C 63.228675 211.955286 51.388403 203.9489 41.433935 193.883831 
C 31.479467 183.818762 23.604393 171.89075 18.259399 158.782429 
C 12.914405 145.674107 10.203438 131.640401 10.281645 117.484451 
C 10.359852 103.3285 13.225712 89.325604 18.715213 76.27714 
C 24.204714 63.228675 32.2111 51.388403 42.276169 41.433935 
C 52.341238 31.479467 64.26925 23.604393 77.377571 18.259399 
C 90.485893 12.914405 104.519599 10.203438 118.675549 10.281645 
C 132.8315 10.359852 146.834396 13.225712 159.88286 18.715213 
C 172.931325 24.204714 184.771597 32.2111 194.726065 42.276169 
C 204.680533 52.341238 212.555607 64.26925 217.900601 77.377571 
C 223.245595 90.485893 225.956562 104.519599 225.878355 118.675549 
C 225.800148 132.8315 222.934288 146.834396 217.444787 159.88286 
C 211.955286 172.931325 203.9489 184.771597 193.883831 194.726065 
C 183.818762 204.680533 171.89075 212.555607 158.782429 217.900601 
C 145.674107 223.245595 131.640401 225.956562 117.484451 225.878355 
C 103.3285 225.800148 89.325604 222.934288 76.27714 217.444787 
C 63.228675 211.955286 51.388403 203.9489 41.433935 193.883831 
C 31.479467 183.818762 23.604393 171.89075 18.259399 158.782429 
C 12.914405 145.674107 10.203438 131.640401 10.281645 117.484451 
C 10.359852 103.3285 13.225712 89.325604 18.715213 76.27714 
C 24.204714 63.228675 32.2111 51.388403 42.276169 41.433935 
C 52.341238 31.479467 64.26925 23.604393 77.377571 18.259399 
C 90.485893 12.914405 104.519599 10.203438 118.675549 10.281645 
C 132.8315 10.359852 146.834396 13.225712 159.88286 18.715213 
C 172.931325 24.204714 184.771597 32.2111 194.726065 42.276169 
C 204.680533 52.341238 212.555607 64.26925 217.900601 77.377571 
C 223.245595 90.485893 225.956562 104.519599 225.878355 118.675549 
C 225.800148 132.8315 222.934288 146.834396 217.444787 159.88286 
C 211.955286 172.931325 203.9489 184.771597 193.883831 194.726065 
C 183.818762 204.680533 171.89075 212.555607 158.782429 217.900601 
C 145.674107 223.245595 131.640401 225.956562 117.484451 225.878355 
C 103.3285 225.800148 89.325604 222.934288 76.27714 217.444787 
C 63.228675 211.955286 51.388403 203.9489 41.433935 193.883831 
C 31.479467 183.818762 23.604393 171.89075 18.259399 158.782429 
C 12.914405 145.674107 10.203438 131.640401 10.281645 117.484451 
C 10.359852 103.3285 13.225712 89.325604 18.715213 76.27714 
C 24.204714 63.228675 32.2111 51.388403 42.276169 41.433935 
C 52.341238 31.479467 64.26925 23.604393 77.377571 18.259399 
C 90.485893 12.914405 104.519599 10.203438 118.675549 10.281645 
C 132.8315 10.359852 146.834396 13.225712 159.88286 18.715213 
C 172.931325 24.204714 184.771597 32.2111 194.726065 42.276169 
C 204.680533 52.341238 212.555607 64.26925 217.900601 77.377571 
C 223.245595 90.485893 225.956562 104.519599 225.878355 118.675549 
C 225.800148 132.8315 222.934288 146.834396 217.444787 159.88286 
C 211.955286 172.931325 203.9489 184.771597 193.883831 194.726065 
C 183.818762 204.680533 171.89075 212.555607 158.782429 217.900601 
C 145.674107 223.245595 131.640401 225.956562 117.484451 225.878355 
C 103.3285 225.800148 89.325604 222.934288 76.27714 217.444787 
C 63.228675 211.955286 51.388403 203.9489 41.433935 193.883831 
C 31.479467 183.818762 23.604393 171.89075 18.259399 158.782429 
C 12.914405 145.674107 10.203438 131.640401 10.281645 117.484451 
C 10.359852 103.3285 13.225712 89.325604 18.715213 76.27714 
C 24.204714 63.228675 32.2111 51.388403 42.276169 41.433935 
C 52.341238 31.479467 64.26925 23.604393 77.377571 18.259399 
C 90.485893 12.914405 104.519599 10.203438 118.675549 10.281645 
C 132.8315 10.359852 146.834396 13.225712 159.88286 18.715213 
C 172.931325 24.204714 184.771597 32.2111 194.726065 42.276169 
C 204.680533 52.341238 212.555607 64.26925 217.900601 77.377571 
C 223.245595 90.485893 225.956562 104.519599 225.878355 118.675549 
C 225.800148 132.8315 222.934288 146.834396 217.444787 159.88286 
C 211.955286 172.931325 203.9489 184.771597 193.883831 194.726065 
C 183.818762 204.680533 171.89075 212.555607 158.782429 217.900601 
C 145.674107 223.245595 131.640401 225.956562 117.484451 225.878355 
C 103.3285 225.800148 89.325604 222.934288 76.27714 217.444787 
C 63.228675 211.955286 51.388403 203.9489 41.433935 193.883831 
C 31.479467 183.818762 23.604393 171.89075 18.259399 158.782429 
C 12.914405 145.674107 10.203438 131.640401 10.281645 117.484451 
C 10.359852 103.3285 13.225712 89.325604 18.715213 76.27714 
C 24.204714 63.228675 32.2111 51.388403 42.276169 41.433935 
C 52.341238 31.479467 64.26925 23.604393 77.377571 18.259399 
C 90.485893 12.914405 104.519599 10.203438 118.675549 10.281645 
C 132.8315 10.359852 146.834396 13.225712 159.88286 18.715213 
C 172.931325 24.204714 184.771597 32.2111 194.726065 42.276169 
C 204.680533 52.341238 212.555607 64.26925 217.900601 77.377571 
C 223.245595 90.485893 225.956562 104.519599 225.878355 118.675549 
C 225.800148 132.8315 222.934288 146.834396 217.444787 159.88286 
C 211.955286 172.931325 203.9489 184.771597 193.883831 194.726065 
C 183.818762 204.680533 171.89075 212.555607 158.782429 217.900601 
C 145.674107 223.245595 131.640401 225.956562 117.484451 225.878355 
C 103.3285 225.800148 89.325604 222.934288 76.27714 217.444787 
C 63.228675 211.955286 51.388403 203.9489 41.433935 193.883831 
C 31.479467 183.818762 23.604393 171.89075 18.259399 158.782429 
C 12.914405 145.674107 10.203438 131.640401 10.281645 117.484451 
C 10.359852 103.3285 13.225712 89.325604 18.715213 76.27714 
C 24.204714 63.228675 32.2111 51.388403 42.276169 41.433935 
C 52.341238 31.479467 64.26925 23.604393 77.377571 18.259399 
C 90.485893 12.914405 104.519599 10.203438 118.675549 10.281645 
C 132.8315 10.359852 146.834396 13.225712 159.88286 18.715213 
C 172.931325 24.204714 184.771597 32.2111 194.726065 42.276169 
C 204.680533 52.341238 212.555607 64.26925 217.900601 77.377571 
C 223.245595 90.485893 225.956562 104.519599 225.878355 118.675549 
C 225.800148 132.8315 222.934288 146.834396 217.444787 159.88286 
C 211.955286 172.931325 203.9489 184.771597 193.883831 194.726065 
C 183.818762 204.680533 171.89075 212.555607 158.782429 217.900601 
C 145.674107 223.245595 131.640401 225.956562 117.484451 225.878355 
C 103.3285 225.800148 89.325604 222.934288 76.27714 217.444787 
C 63.228675 211.955286 51.388403 203.9489 41.433935 193.883831 
C 31.479467 183.818762 23.604393 171.89075 18.259399 158.782429 
C 12.914405 145.674107 10.203438 131.640401 10.281645 117.484451 
C 10.359852 103.3285 13.225712 89.325604 18.715213 76.27714 
C 24.204714 63.228675 32.2111 51.388403 42.276169 41.433935 
C 52.341238 31.479467 64.26925 23.604393 77.377571 18.259399 
C 90.485893 12.914405 104.519599 10.203438 118.675549 10.281645 
C 132.8315 10.359852 146.834396 13.225712 159.88286 18.715213 
C 172.931325 24.204714 184.771597 32.2111 194.726065 42.276169 
C 204.680533 52.341238 212.555607 64.26925 217.900601 77.377571 
C 223.245595 90.485893 225.956562 104.519599 225.878355 118.675549 
C 225.800148 132.8315 222.934288 146.834396 217.444787 159.88286 
C 214.7066 166.391489 211.33553 172.615364 207.380187 178.464738 
C 203.424843 184.314112 198.90433 189.760734 193.883831 194.726065 
C 188.863332 199.691395 183.367095 204.151453 177.474376 208.041926 
C 171.581657 211.932398 165.320915 215.234495 158.782429 217.900601 
C 152.243943 220.566706 145.459292 222.583944 138.52631 223.923226 
C 131.593328 225.262507 124.545499 225.917365 117.484451 225.878355 
C 110.423403 225.839345 103.38324 225.106656 96.465478 223.690854 
C 89.547717 222.275051 82.785769 220.182973 76.27714 217.444787 
C 69.768511 214.7066 63.544636 211.33553 57.695262 207.380187 
C 51.845888 203.424843 46.399266 198.90433 41.433935 193.883831 
C 36.468605 188.863332 32.008547 183.367095 28.118074 177.474376 
C 24.227602 171.581657 20.925505 165.320915 18.259399 158.782429 
C 15.593294 152.243943 13.576056 145.459292 12.236774 138.52631 
C 10.897493 131.593328 10.242635 124.545499 10.281645 117.484451 
C 10.320655 110.423403 11.053344 103.38324 12.469146 96.465478 
C 13.884949 89.547717 15.977027 82.785769 18.715213 76.27714 
C 21.4534 69.768511 24.82447 63.544636 28.779813 57.695262 
C 32.735157 51.845888 37.25567 46.399266 42.276169 41.433935 
C 47.296668 36.468605 52.792905 32.008547 58.685624 28.118074 
C 64.578343 24.227602 70.839085 20.925505 77.377571 18.259399 
C 83.916057 15.593294 90.700708 13.576056 97.63369 12.236774 
C 104.566672 10.897493 111.614501 10.242635 118.675549 10.281645 
C 125.736597 10.320655 132.77676 11.053344 139.694522 12.469146 
C 146.612283 13.884949 153.374231 15.977027 159.88286 18.715213 
C 166.391489 21.4534 172.615364 24.82447 178.464738 28.779813 
C 184.314112 32.735157 189.760734 37.25567 194.726065 42.276169 
C 199.691395 47.296668 204.151453 52.792905 208.041926 58.685624 
C 211.932398 64.578343 215.234495 70.839085 217.900601 77.377571 
C 220.566706 83.916057 222.583944 90.700708 223.923226 97.63369 
C 225.262507 104.566672 225.917365 111.614501 225.878355 118.675549 
C 225.839345 125.736597 225.106656 132.77676 223.690854 139.694522 
C 222.275051 146.612283 220.182973 153.374231 217.444787 159.88286 
C 211.955286 172.931325 203.9489 184.771597 193.883831 194.726065 
C 183.818762 204.680533 171.89075 212.555607 158.782429 217.900601 
C 145.674107 223.245595 131.640401 225.956562 117.484451 225.878355 
C 103.3285 225.800148 89.325604 222.934288 76.27714 217.444787 
C 63.228675 211.955286 51.388403 203.9489 41.433935 193.883831 
C 31.479467 183.818762 23.604393 171.89075 18.259399 158.782429 
C 12.914405 145.674107 10.203438 131.640401 10.281645 117.484451 
C 10.359852 103.3285 13.225712 89.325604 18.715213 76.27714 
C 24.204714 63.228675 32.2111 51.388403 42.276169 41.433935 
C 52.341238 31.479467 64.26925 23.604393 77.377571 18.259399 
C 90.485893 12.914405 104.519599 10.203438 118.675549 10.281645 
C 132.8315 10.359852 146.834396 13.225712 159.88286 18.715213 
C 172.931325 24.204714 184.771597 32.2111 194.726065 42.276169 
C 204.680533 52.341238 212.555607 64.26925 217.900601 77.377571 
C 223.245595 90.485893 225.956562 104.519599 225.878355 118.675549 
C 225.800148 132.8315 222.934288 146.834396 217.444787 159.88286 
C 212.305214 172.09955 204.956412 183.264291 195.767799 192.815841 
C 186.579186 202.367391 175.707355 210.142971 163.698826 215.751709 
C 151.690297 221.360447 138.749719 224.706758 125.527607 225.622425 
C 112.305494 226.538092 99.027178 225.007511 86.360151 221.107623 
C 73.693123 217.207735 61.853256 211.005002 51.435731 202.811231 
C 41.018207 194.61746 32.20056 184.572289 25.426048 173.180682 
C 18.651536 161.789076 14.035611 149.245169 11.810311 136.179537 
C 9.585012 123.113905 9.788261 109.749211 12.409843 96.757289 
C 15.031425 83.765368 20.026662 71.367628 27.144447 60.187295 
C 34.262232 49.006962 43.381264 39.234572 54.043135 31.361375 
C 64.705005 23.488179 76.728015 17.648351 89.507776 14.135457 
C 102.287537 10.622563 115.606255 9.496469 128.794409 10.813782 
C 141.982562 12.131096 154.815398 15.869368 166.647818 21.840678 
C 178.480238 27.811988 189.110594 35.914573 198.004506 45.741121 
C 206.898417 55.567669 213.904314 66.950717 218.670014 79.318045 
C 223.435714 91.685374 225.88 104.826219 225.88 118.08 
z
" clip-path="url(#pcc2ecb7f1b)" style="fill: #58a6ff"/>
   </g>
   <g id="text_1">
    <!-- C++ -->
    <g style="fill: #c9d1d9" transform="translate(98.80125 113.53675) scale(0.16 -0.16)">
     <defs>
      <path id="DejaVuSans-Bold-43" d="M 4288 256 
Q 3956 84 3597 -3 
Q 3238 -91 2847 -91 
Q 1681 -91 1000 561 
Q 319 1213 319 2328 
Q 319 3447 1000 4098 
Q 1681 4750 2847 4750 
Q 3238 4750 3597 4662 
Q 3956 4575 4288 4403 
L 4288 3438 
Q 3953 3666 3628 3772 
Q 3303 3878 2944 3878 
Q 2300 3878 1931 3465 
Q 1563 3053 1563 2328 
Q 1563 1606 1931 1193 
Q 2300 781 2944 781 
Q 3303 781 3628 887 
Q 3953 994 4288 1222 
L 4288 256 
z
" transform="scale(0.015625)"/>
      <path id="DejaVuSans-Bold-2b" d="M 3053 4013 
L 3053 2375 
L 4684 2375 
L 4684 1638 
L 3053 1638 
L 3053 0 
L 2309 0 
L 2309 1638 
L 678 1638 
L 678 2375 
L 2309 2375 
L 2309 4013 
L 3053 4013 
z
" transform="scale(0.015625)"/>
     </defs>
     <use xlink:href="#DejaVuSans-Bold-43"/>
     <use xlink:href="#DejaVuSans-Bold-2b" transform="translate(73.388672 0)"/>
     <use xlink:href="#DejaVuSans-Bold-2b" transform="translate(157.177734 0)"/>
    </g>
    <!-- 75% -->
    <g style="fill: #c9d1d9" transform="translate(98.93125 131.45325) scale(0.16 -0.16)">
     <defs>
      <path id="DejaVuSans-Bold-37" d="M 428 4666 
L 3944 4666 
L 3944 3988 
L 2125 0 
L 953 0 
L 2675 3781 
L 428 3781 
L 428 4666 
z
" transform="scale(0.015625)"/>
      <path id="DejaVuSans-Bold-35" d="M 678 4666 
L 3669 4666 
L 3669 3781 
L 1638 3781 
L 1638 3059 
Q 1775 3097 1914 3117 
Q 2053 3138 2203 3138 
Q 3056 3138 3531 2711 
Q 4006 2284 4006 1522 
Q 4006 766 3489 337 
Q 2972 -91 2053 -91 
Q 1656 -91 1267 -14 
Q 878 63 494 219 
L 494 1166 
Q 875 947 1217 837 
Q 1559 728 1863 728 
Q 2300 728 2551 942 
Q 2803 1156 2803 1522 
Q 2803 1891 2551 2103 
Q 2300 2316 1863 2316 
Q 1603 2316 1309 2248 
Q 1016 2181 678 2041 
L 678 4666 
z
" transform="scale(0.015625)"/>
      <path id="DejaVuSans-Bold-25" d="M 4959 1925 
Q 4738 1925 4616 1733 
Q 4494 1541 4494 1184 
Q 4494 825 4614 633 
Q 4734 441 4959 441 
Q 5184 441 5303 633 
Q 5422 825 5422 1184 
Q 5422 1541 5301 1733 
Q 5181 1925 4959 1925 
z
M 4959 2450 
Q 5541 2450 5875 2112 
Q 6209 1775 6209 1184 
Q 6209 594 5875 251 
Q 5541 -91 4959 -91 
Q 4378 -91 4042 251 
Q 3706 594 3706 1184 
Q 3706 1772 4042 2111 
Q 4378 2450 4959 2450 
z
M 2094 -91 
L 1403 -91 
L 4319 4750 
L 5013 4750 
L 2094 -91 
z
M 1453 4750 
Q 2034 4750 2367 4411 
Q 2700 4072 2700 3481 
Q 2700 2891 2367 2550 
Q 2034 2209 1453 2209 
Q 872 2209 539 2550 
Q 206 2891 206 3481 
Q 206 4072 539 4411 
Q 872 4750 1453 4750 
z
M 1453 4225 
Q 1228 4225 1106 4031 
Q 984 3838 984 3481 
Q 984 3122 1106 2926 
Q 1228 2731 1453 2731 
Q 1678 2731 1798 2926 
Q 1919 3122 1919 3481 
Q 1919 3838 1797 4031 
Q 1675 4225 1453 4225 
z
" transform="scale(0.015625)"/>
     </defs>
     <use xlink:href="#DejaVuSans-Bold-37"/>
     <use xlink:href="#DejaVuSans-Bold-35" transform="translate(69.580078 0)"/>
     <use xlink:href="#DejaVuSans-Bold-25" transform="translate(139.160156 0)"/>
    </g>
   </g>
  </g>
 </g>
 <defs>
  <clipPath id="pcc2ecb7f1b">
   <path d="M 228.96 118.08 
C 228.96 103.519372 226.091874 89.100327 220.519763 75.648061 
C 214.947651 62.195795 206.779919 49.971919 196.484 39.676 
C 186.188081 29.380081 173.964205 21.212349 160.511939 15.640237 
C 147.059673 10.068126 132.640628 7.2 118.08 7.2 
C 103.519372 7.2 89.100327 10.068126 75.648061 15.640237 
C 62.195795 21.212349 49.971919 29.380081 39.676 39.676 
C 29.380081 49.971919 21.212349 62.195795 15.640237 75.648061 
C 10.068126 89.100327 7.2 103.519372 7.2 118.08 
C 7.2 132.640628 10.068126 147.059673 15.640237 160.511939 
C 21.212349 173.964205 29.380081 186.188081 39.676 196.484 
C 49.971919 206.779919 62.195795 214.947651 75.648061 220.519763 
C 89.100327 226.091874 103.519372 228.96 118.08 228.96 
C 132.640628 228.96 147.059673 226.091874 160.511939 220.519763 
C 173.964205 214.947651 186.188081 206.779919 196.484 196.484 
C 206.779919 186.188081 214.947651 173.964205 220.519763 160.511939 
C 226.091874 147.059673 228.96 132.640628 228.96 118.08 
M 118.08 118.08 
C 118.08 118.08 118.08 118.08 118.08 118.08 
C 118.08 118.08 118.08 118.08 118.08 118.08 
C 118.08 118.08 118.08 118.08 118.08 118.08 
C 118.08 118.08 118.08 118.08 118.08 118.08 
C 118.08 118.08 118.08 118.08 118.08 118.08 
C 118.08 118.08 118.08 118.08 118.08 118.08 
C 118.08 118.08 118.08 118.08 118.08 118.08 
C 118.08 118.08 118.08 118.08 118.08 118.08 
C 118.08 118.08 118.08 118.08 118.08 118.08 
C 118.08 118.08 118.08 118.08 118.08 118.08 
C 118.08 118.08 118.08 118.08 118.08 118.08 
C 118.08 118.08 118.08 118.08 118.08 118.08 
C 118.08 118.08 118.08 118.08 118.08 118.08 
C 118.08 118.08 118.08 118.08 118.08 118.08 
C 118.08 118.08 118.08 118.08 118.08 118.08 
C 118.08 118.08 118.08 118.08 118.08 118.08 
z
"/>
  </clipPath>
 </defs>
</svg>
